<?xml version="1.0" encoding="utf-8" standalone="no"?>
<!DOCTYPE svg PUBLIC "-//W3C//DTD SVG 1.1//EN"
  "http://www.w3.org/Graphics/SVG/1.1/DTD/svg11.dtd">
<!-- Created with matplotlib (http://matplotlib.org/) -->
<svg height="345pt" version="1.1" viewBox="0 0 460 345" width="460pt" xmlns="http://www.w3.org/2000/svg" xmlns:xlink="http://www.w3.org/1999/xlink">
 <defs>
  <style type="text/css">
*{stroke-linecap:butt;stroke-linejoin:round;}
  </style>
 </defs>
 <g id="figure_1">
  <g id="patch_1">
   <path d="M 0 345.6 
L 460.8 345.6 
L 460.8 0 
L 0 0 
z
" style="fill:#ffffff;"/>
  </g>
  <g id="axes_1">
   <g id="PathCollection_1">
    <path clip-path="url(#p7346d67a27)" d="M 387.389835 298.710882 
L 396.050089 298.710882 
L 396.050089 290.050627 
L 387.389835 290.050627 
z
" style="fill:#0000ff;stroke:#0000ff;"/>
    <path clip-path="url(#p7346d67a27)" d="M 172.401652 188.476913 
L 181.061906 188.476913 
L 181.061906 179.816659 
L 172.401652 179.816659 
z
" style="fill:#0000ff;stroke:#0000ff;"/>
    <path clip-path="url(#p7346d67a27)" d="M 261.613745 235.088293 
L 270.273999 235.088293 
L 270.273999 226.428039 
L 261.613745 226.428039 
z
" style="fill:#0000ff;stroke:#0000ff;"/>
    <path clip-path="url(#p7346d67a27)" d="M 298.558685 106.947302 
C 299.707048 106.947302 300.808532 106.491052 301.620547 105.679037 
C 302.432563 104.867021 302.888812 103.765538 302.888812 102.617175 
C 302.888812 101.468811 302.432563 100.367328 301.620547 99.555312 
C 300.808532 98.743297 299.707048 98.287047 298.558685 98.287047 
C 297.410322 98.287047 296.308838 98.743297 295.496823 99.555312 
C 294.684808 100.367328 294.228558 101.468811 294.228558 102.617175 
C 294.228558 103.765538 294.684808 104.867021 295.496823 105.679037 
C 296.308838 106.491052 297.410322 106.947302 298.558685 106.947302 
z
" style="fill:#ff0000;stroke:#ff0000;"/>
    <path clip-path="url(#p7346d67a27)" d="M 266.911534 237.215632 
L 275.571788 237.215632 
L 275.571788 228.555378 
L 266.911534 228.555378 
z
" style="fill:#0000ff;stroke:#0000ff;"/>
    <path clip-path="url(#p7346d67a27)" d="M 291.812789 216.796475 
L 300.473043 216.796475 
L 300.473043 208.136221 
L 291.812789 208.136221 
z
" style="fill:#0000ff;stroke:#0000ff;"/>
    <path clip-path="url(#p7346d67a27)" d="M 144.136776 59.005373 
C 145.285139 59.005373 146.386623 58.549123 147.198638 57.737108 
C 148.010654 56.925092 148.466903 55.823609 148.466903 54.675245 
C 148.466903 53.526882 148.010654 52.425399 147.198638 51.613383 
C 146.386623 50.801368 145.285139 50.345118 144.136776 50.345118 
C 142.988413 50.345118 141.886929 50.801368 141.074914 51.613383 
C 140.262899 52.425399 139.806649 53.526882 139.806649 54.675245 
C 139.806649 55.823609 140.262899 56.925092 141.074914 57.737108 
C 141.886929 58.549123 142.988413 59.005373 144.136776 59.005373 
z
" style="fill:#ff0000;stroke:#ff0000;"/>
    <path clip-path="url(#p7346d67a27)" d="M 313.55015 96.700681 
C 314.698514 96.700681 315.799997 96.244431 316.612013 95.432416 
C 317.424028 94.6204 317.880277 93.518917 317.880277 92.370554 
C 317.880277 91.22219 317.424028 90.120707 316.612013 89.308691 
C 315.799997 88.496676 314.698514 88.040427 313.55015 88.040427 
C 312.401787 88.040427 311.300304 88.496676 310.488288 89.308691 
C 309.676273 90.120707 309.220023 91.22219 309.220023 92.370554 
C 309.220023 93.518917 309.676273 94.6204 310.488288 95.432416 
C 311.300304 96.244431 312.401787 96.700681 313.55015 96.700681 
z
" style="fill:#ff0000;stroke:#ff0000;"/>
    <path clip-path="url(#p7346d67a27)" d="M 307.450686 130.124761 
C 308.599049 130.124761 309.700533 129.668511 310.512548 128.856496 
C 311.324563 128.044481 311.780813 126.942997 311.780813 125.794634 
C 311.780813 124.646271 311.324563 123.544787 310.512548 122.732772 
C 309.700533 121.920756 308.599049 121.464507 307.450686 121.464507 
C 306.302323 121.464507 305.200839 121.920756 304.388824 122.732772 
C 303.576808 123.544787 303.120559 124.646271 303.120559 125.794634 
C 303.120559 126.942997 303.576808 128.044481 304.388824 128.856496 
C 305.200839 129.668511 306.302323 130.124761 307.450686 130.124761 
z
" style="fill:#ff0000;stroke:#ff0000;"/>
    <path clip-path="url(#p7346d67a27)" d="M 210.785975 142.94989 
L 219.446229 142.94989 
L 219.446229 134.289636 
L 210.785975 134.289636 
z
" style="fill:#0000ff;stroke:#0000ff;"/>
    <path clip-path="url(#p7346d67a27)" d="M 312.900799 238.754993 
L 321.561053 238.754993 
L 321.561053 230.094739 
L 312.900799 230.094739 
z
" style="fill:#0000ff;stroke:#0000ff;"/>
    <path clip-path="url(#p7346d67a27)" d="M 369.502455 245.500314 
L 378.162709 245.500314 
L 378.162709 236.84006 
L 369.502455 236.84006 
z
" style="fill:#0000ff;stroke:#0000ff;"/>
    <path clip-path="url(#p7346d67a27)" d="M 323.41869 210.418588 
L 332.078944 210.418588 
L 332.078944 201.758334 
L 323.41869 201.758334 
z
" style="fill:#0000ff;stroke:#0000ff;"/>
    <path clip-path="url(#p7346d67a27)" d="M 388.59019 238.349844 
L 397.250444 238.349844 
L 397.250444 229.68959 
L 388.59019 229.68959 
z
" style="fill:#0000ff;stroke:#0000ff;"/>
    <path clip-path="url(#p7346d67a27)" d="M 283.361628 210.789277 
L 292.021882 210.789277 
L 292.021882 202.129023 
L 283.361628 202.129023 
z
" style="fill:#0000ff;stroke:#0000ff;"/>
    <path clip-path="url(#p7346d67a27)" d="M 242.078198 161.704207 
L 250.738452 161.704207 
L 250.738452 153.043953 
L 242.078198 153.043953 
z
" style="fill:#0000ff;stroke:#0000ff;"/>
    <path clip-path="url(#p7346d67a27)" d="M 393.453987 230.660089 
L 402.114241 230.660089 
L 402.114241 221.999835 
L 393.453987 221.999835 
z
" style="fill:#0000ff;stroke:#0000ff;"/>
    <path clip-path="url(#p7346d67a27)" d="M 333.577425 197.288684 
L 342.237679 197.288684 
L 342.237679 188.62843 
L 333.577425 188.62843 
z
" style="fill:#0000ff;stroke:#0000ff;"/>
    <path clip-path="url(#p7346d67a27)" d="M 355.800375 279.835014 
L 364.460629 279.835014 
L 364.460629 271.17476 
L 355.800375 271.17476 
z
" style="fill:#0000ff;stroke:#0000ff;"/>
    <path clip-path="url(#p7346d67a27)" d="M 197.33123 208.673716 
L 205.991484 208.673716 
L 205.991484 200.013462 
L 197.33123 200.013462 
z
" style="fill:#0000ff;stroke:#0000ff;"/>
    <path clip-path="url(#p7346d67a27)" d="M 361.853716 183.415537 
L 370.51397 183.415537 
L 370.51397 174.755283 
L 361.853716 174.755283 
z
" style="fill:#0000ff;stroke:#0000ff;"/>
    <path clip-path="url(#p7346d67a27)" d="M 294.004947 236.699124 
L 302.665201 236.699124 
L 302.665201 228.03887 
L 294.004947 228.03887 
z
" style="fill:#0000ff;stroke:#0000ff;"/>
    <path clip-path="url(#p7346d67a27)" d="M 301.78147 114.738188 
C 302.929833 114.738188 304.031316 114.281939 304.843332 113.469923 
C 305.655347 112.657908 306.111597 111.556424 306.111597 110.408061 
C 306.111597 109.259698 305.655347 108.158214 304.843332 107.346199 
C 304.031316 106.534184 302.929833 106.077934 301.78147 106.077934 
C 300.633106 106.077934 299.531623 106.534184 298.719607 107.346199 
C 297.907592 108.158214 297.451342 109.259698 297.451342 110.408061 
C 297.451342 111.556424 297.907592 112.657908 298.719607 113.469923 
C 299.531623 114.281939 300.633106 114.738188 301.78147 114.738188 
z
" style="fill:#ff0000;stroke:#ff0000;"/>
    <path clip-path="url(#p7346d67a27)" d="M 347.933797 218.404596 
L 356.594051 218.404596 
L 356.594051 209.744342 
L 347.933797 209.744342 
z
" style="fill:#0000ff;stroke:#0000ff;"/>
    <path clip-path="url(#p7346d67a27)" d="M 174.444589 172.805485 
L 183.104843 172.805485 
L 183.104843 164.145231 
L 174.444589 164.145231 
z
" style="fill:#0000ff;stroke:#0000ff;"/>
    <path clip-path="url(#p7346d67a27)" d="M 150.043312 194.556843 
L 158.703566 194.556843 
L 158.703566 185.896589 
L 150.043312 185.896589 
z
" style="fill:#0000ff;stroke:#0000ff;"/>
    <path clip-path="url(#p7346d67a27)" d="M 120.626424 221.379958 
L 129.286678 221.379958 
L 129.286678 212.719704 
L 120.626424 212.719704 
z
" style="fill:#0000ff;stroke:#0000ff;"/>
    <path clip-path="url(#p7346d67a27)" d="M 204.537657 212.79269 
L 213.197911 212.79269 
L 213.197911 204.132436 
L 204.537657 204.132436 
z
" style="fill:#0000ff;stroke:#0000ff;"/>
    <path clip-path="url(#p7346d67a27)" d="M 229.524541 219.203604 
L 238.184795 219.203604 
L 238.184795 210.54335 
L 229.524541 210.54335 
z
" style="fill:#0000ff;stroke:#0000ff;"/>
    <path clip-path="url(#p7346d67a27)" d="M 275.759303 198.25409 
L 284.419557 198.25409 
L 284.419557 189.593836 
L 275.759303 189.593836 
z
" style="fill:#0000ff;stroke:#0000ff;"/>
    <path clip-path="url(#p7346d67a27)" d="M 304.829708 119.516836 
C 305.978071 119.516836 307.079555 119.060586 307.891571 118.248571 
C 308.703586 117.436556 309.159835 116.335072 309.159835 115.186709 
C 309.159835 114.038346 308.703586 112.936862 307.891571 112.124847 
C 307.079555 111.312831 305.978071 110.856582 304.829708 110.856582 
C 303.681345 110.856582 302.579862 111.312831 301.767846 112.124847 
C 300.955831 112.936862 300.499581 114.038346 300.499581 115.186709 
C 300.499581 116.335072 300.955831 117.436556 301.767846 118.248571 
C 302.579862 119.060586 303.681345 119.516836 304.829708 119.516836 
z
" style="fill:#ff0000;stroke:#ff0000;"/>
    <path clip-path="url(#p7346d67a27)" d="M 70.205759 141.353752 
L 78.866013 141.353752 
L 78.866013 132.693498 
L 70.205759 132.693498 
z
" style="fill:#0000ff;stroke:#0000ff;"/>
    <path clip-path="url(#p7346d67a27)" d="M 294.442988 250.666457 
L 303.103242 250.666457 
L 303.103242 242.006203 
L 294.442988 242.006203 
z
" style="fill:#0000ff;stroke:#0000ff;"/>
    <path clip-path="url(#p7346d67a27)" d="M 95.813748 141.168822 
L 104.474002 141.168822 
L 104.474002 132.508568 
L 95.813748 132.508568 
z
" style="fill:#0000ff;stroke:#0000ff;"/>
    <path clip-path="url(#p7346d67a27)" d="M 254.401612 189.496325 
L 263.061866 189.496325 
L 263.061866 180.836071 
L 254.401612 180.836071 
z
" style="fill:#0000ff;stroke:#0000ff;"/>
    <path clip-path="url(#p7346d67a27)" d="M 299.696996 109.526132 
C 300.84536 109.526132 301.946843 109.069883 302.758859 108.257868 
C 303.570874 107.445852 304.027123 106.344369 304.027123 105.196005 
C 304.027123 104.047642 303.570874 102.946159 302.758859 102.134143 
C 301.946843 101.322128 300.84536 100.865878 299.696996 100.865878 
C 298.548633 100.865878 297.44715 101.322128 296.635134 102.134143 
C 295.823119 102.946159 295.366869 104.047642 295.366869 105.196005 
C 295.366869 106.344369 295.823119 107.445852 296.635134 108.257868 
C 297.44715 109.069883 298.548633 109.526132 299.696996 109.526132 
z
" style="fill:#ff0000;stroke:#ff0000;"/>
    <path clip-path="url(#p7346d67a27)" d="M 149.533626 220.950332 
L 158.19388 220.950332 
L 158.19388 212.290078 
L 149.533626 212.290078 
z
" style="fill:#0000ff;stroke:#0000ff;"/>
    <path clip-path="url(#p7346d67a27)" d="M 285.446654 211.552163 
L 294.106908 211.552163 
L 294.106908 202.891909 
L 285.446654 202.891909 
z
" style="fill:#0000ff;stroke:#0000ff;"/>
    <path clip-path="url(#p7346d67a27)" d="M 345.307323 222.346043 
L 353.967577 222.346043 
L 353.967577 213.685789 
L 345.307323 213.685789 
z
" style="fill:#0000ff;stroke:#0000ff;"/>
    <path clip-path="url(#p7346d67a27)" d="M 139.335894 219.899786 
L 147.996148 219.899786 
L 147.996148 211.239532 
L 139.335894 211.239532 
z
" style="fill:#0000ff;stroke:#0000ff;"/>
    <path clip-path="url(#p7346d67a27)" d="M 115.142125 190.113873 
L 123.802379 190.113873 
L 123.802379 181.453619 
L 115.142125 181.453619 
z
" style="fill:#0000ff;stroke:#0000ff;"/>
    <path clip-path="url(#p7346d67a27)" d="M 267.067738 207.647925 
L 275.727992 207.647925 
L 275.727992 198.987671 
L 267.067738 198.987671 
z
" style="fill:#0000ff;stroke:#0000ff;"/>
    <path clip-path="url(#p7346d67a27)" d="M 363.734871 231.614995 
L 372.395125 231.614995 
L 372.395125 222.95474 
L 363.734871 222.95474 
z
" style="fill:#0000ff;stroke:#0000ff;"/>
    <path clip-path="url(#p7346d67a27)" d="M 308.850238 132.193188 
C 309.998601 132.193188 311.100084 131.736938 311.9121 130.924923 
C 312.724115 130.112908 313.180365 129.011424 313.180365 127.863061 
C 313.180365 126.714698 312.724115 125.613214 311.9121 124.801199 
C 311.100084 123.989183 309.998601 123.532934 308.850238 123.532934 
C 307.701874 123.532934 306.600391 123.989183 305.788375 124.801199 
C 304.97636 125.613214 304.520111 126.714698 304.520111 127.863061 
C 304.520111 129.011424 304.97636 130.112908 305.788375 130.924923 
C 306.600391 131.736938 307.701874 132.193188 308.850238 132.193188 
z
" style="fill:#ff0000;stroke:#ff0000;"/>
    <path clip-path="url(#p7346d67a27)" d="M 197.175111 195.138218 
L 205.835365 195.138218 
L 205.835365 186.477964 
L 197.175111 186.477964 
z
" style="fill:#0000ff;stroke:#0000ff;"/>
    <path clip-path="url(#p7346d67a27)" d="M 295.949874 218.483291 
L 304.610129 218.483291 
L 304.610129 209.823037 
L 295.949874 209.823037 
z
" style="fill:#0000ff;stroke:#0000ff;"/>
    <path clip-path="url(#p7346d67a27)" d="M 270.084253 214.373271 
L 278.744507 214.373271 
L 278.744507 205.713017 
L 270.084253 205.713017 
z
" style="fill:#0000ff;stroke:#0000ff;"/>
    <path clip-path="url(#p7346d67a27)" d="M 295.685065 95.980596 
C 296.833428 95.980596 297.934912 95.524346 298.746927 94.712331 
C 299.558942 93.900315 300.015192 92.798832 300.015192 91.650468 
C 300.015192 90.502105 299.558942 89.400622 298.746927 88.588606 
C 297.934912 87.776591 296.833428 87.320341 295.685065 87.320341 
C 294.536702 87.320341 293.435218 87.776591 292.623203 88.588606 
C 291.811187 89.400622 291.354938 90.502105 291.354938 91.650468 
C 291.354938 92.798832 291.811187 93.900315 292.623203 94.712331 
C 293.435218 95.524346 294.536702 95.980596 295.685065 95.980596 
z
" style="fill:#ff0000;stroke:#ff0000;"/>
    <path clip-path="url(#p7346d67a27)" d="M 304.638192 116.467599 
C 305.786555 116.467599 306.888038 116.011349 307.700054 115.199334 
C 308.512069 114.387318 308.968319 113.285835 308.968319 112.137472 
C 308.968319 110.989108 308.512069 109.887625 307.700054 109.075609 
C 306.888038 108.263594 305.786555 107.807344 304.638192 107.807344 
C 303.489828 107.807344 302.388345 108.263594 301.576329 109.075609 
C 300.764314 109.887625 300.308065 110.989108 300.308065 112.137472 
C 300.308065 113.285835 300.764314 114.387318 301.576329 115.199334 
C 302.388345 116.011349 303.489828 116.467599 304.638192 116.467599 
z
" style="fill:#ff0000;stroke:#ff0000;"/>
    <path clip-path="url(#p7346d67a27)" d="M 357.35381 278.647462 
L 366.014064 278.647462 
L 366.014064 269.987208 
L 357.35381 269.987208 
z
" style="fill:#0000ff;stroke:#0000ff;"/>
   </g>
  </g>
 </g>
 <defs>
  <clipPath id="p7346d67a27">
   <rect height="266.112" width="357.12" x="57.6" y="41.472"/>
  </clipPath>
 </defs>
</svg>
