<?xml version="1.0" encoding="utf-8" standalone="no"?>
<!DOCTYPE svg PUBLIC "-//W3C//DTD SVG 1.1//EN"
  "http://www.w3.org/Graphics/SVG/1.1/DTD/svg11.dtd">
<!-- Created with matplotlib (http://matplotlib.org/) -->
<svg height="345pt" version="1.1" viewBox="0 0 460 345" width="460pt" xmlns="http://www.w3.org/2000/svg" xmlns:xlink="http://www.w3.org/1999/xlink">
 <defs>
  <style type="text/css">
*{stroke-linecap:butt;stroke-linejoin:round;}
  </style>
 </defs>
 <g id="figure_1">
  <g id="patch_1">
   <path d="M 0 345.6 
L 460.8 345.6 
L 460.8 0 
L 0 0 
z
" style="fill:#ffffff;"/>
  </g>
  <g id="axes_1">
   <g id="PathCollection_1">
    <path clip-path="url(#p73085fea93)" d="M 385.109875 296.751407 
L 393.770129 296.751407 
L 393.770129 288.091153 
L 385.109875 288.091153 
z
" style="fill:#0000ff;stroke:#0000ff;"/>
    <path clip-path="url(#p73085fea93)" d="M 173.27266 188.319655 
L 181.932914 188.319655 
L 181.932914 179.659401 
L 173.27266 179.659401 
z
" style="fill:#0000ff;stroke:#0000ff;"/>
    <path clip-path="url(#p73085fea93)" d="M 261.177219 234.168985 
L 269.837473 234.168985 
L 269.837473 225.508731 
L 261.177219 225.508731 
z
" style="fill:#0000ff;stroke:#0000ff;"/>
    <path clip-path="url(#p73085fea93)" d="M 297.644141 108.122973 
C 298.792504 108.122973 299.893988 107.666723 300.706003 106.854708 
C 301.518019 106.042693 301.974268 104.941209 301.974268 103.792846 
C 301.974268 102.644483 301.518019 101.542999 300.706003 100.730984 
C 299.893988 99.918968 298.792504 99.462719 297.644141 99.462719 
C 296.495778 99.462719 295.394294 99.918968 294.582279 100.730984 
C 293.770264 101.542999 293.314014 102.644483 293.314014 103.792846 
C 293.314014 104.941209 293.770264 106.042693 294.582279 106.854708 
C 295.394294 107.666723 296.495778 108.122973 297.644141 108.122973 
z
" style="fill:#ff0000;stroke:#ff0000;"/>
    <path clip-path="url(#p73085fea93)" d="M 266.397361 236.261544 
L 275.057615 236.261544 
L 275.057615 227.60129 
L 266.397361 227.60129 
z
" style="fill:#0000ff;stroke:#0000ff;"/>
    <path clip-path="url(#p73085fea93)" d="M 290.933651 216.176221 
L 299.593905 216.176221 
L 299.593905 207.515967 
L 290.933651 207.515967 
z
" style="fill:#0000ff;stroke:#0000ff;"/>
    <path clip-path="url(#p73085fea93)" d="M 145.485511 60.964847 
C 146.633875 60.964847 147.735358 60.508598 148.547374 59.696582 
C 149.359389 58.884567 149.815638 57.783083 149.815638 56.63472 
C 149.815638 55.486357 149.359389 54.384873 148.547374 53.572858 
C 147.735358 52.760843 146.633875 52.304593 145.485511 52.304593 
C 144.337148 52.304593 143.235665 52.760843 142.423649 53.572858 
C 141.611634 54.384873 141.155384 55.486357 141.155384 56.63472 
C 141.155384 57.783083 141.611634 58.884567 142.423649 59.696582 
C 143.235665 60.508598 144.337148 60.964847 145.485511 60.964847 
z
" style="fill:#ff0000;stroke:#ff0000;"/>
    <path clip-path="url(#p73085fea93)" d="M 312.415884 98.043874 
C 313.564247 98.043874 314.665731 97.587625 315.477746 96.775609 
C 316.289762 95.963594 316.746011 94.86211 316.746011 93.713747 
C 316.746011 92.565384 316.289762 91.4639 315.477746 90.651885 
C 314.665731 89.83987 313.564247 89.38362 312.415884 89.38362 
C 311.267521 89.38362 310.166037 89.83987 309.354022 90.651885 
C 308.542007 91.4639 308.085757 92.565384 308.085757 93.713747 
C 308.085757 94.86211 308.542007 95.963594 309.354022 96.775609 
C 310.166037 97.587625 311.267521 98.043874 312.415884 98.043874 
z
" style="fill:#ff0000;stroke:#ff0000;"/>
    <path clip-path="url(#p73085fea93)" d="M 306.405816 130.921503 
C 307.554179 130.921503 308.655663 130.465254 309.467678 129.653239 
C 310.279694 128.841223 310.735943 127.73974 310.735943 126.591376 
C 310.735943 125.443013 310.279694 124.34153 309.467678 123.529514 
C 308.655663 122.717499 307.554179 122.261249 306.405816 122.261249 
C 305.257453 122.261249 304.155969 122.717499 303.343954 123.529514 
C 302.531939 124.34153 302.075689 125.443013 302.075689 126.591376 
C 302.075689 127.73974 302.531939 128.841223 303.343954 129.653239 
C 304.155969 130.465254 305.257453 130.921503 306.405816 130.921503 
z
" style="fill:#ff0000;stroke:#ff0000;"/>
    <path clip-path="url(#p73085fea93)" d="M 211.094404 143.536955 
L 219.754658 143.536955 
L 219.754658 134.876701 
L 211.094404 134.876701 
z
" style="fill:#0000ff;stroke:#0000ff;"/>
    <path clip-path="url(#p73085fea93)" d="M 311.712585 237.775738 
L 320.372839 237.775738 
L 320.372839 229.115484 
L 311.712585 229.115484 
z
" style="fill:#0000ff;stroke:#0000ff;"/>
    <path clip-path="url(#p73085fea93)" d="M 367.484661 244.41078 
L 376.144915 244.41078 
L 376.144915 235.750526 
L 367.484661 235.750526 
z
" style="fill:#0000ff;stroke:#0000ff;"/>
    <path clip-path="url(#p73085fea93)" d="M 322.076321 209.902605 
L 330.736575 209.902605 
L 330.736575 201.242351 
L 322.076321 201.242351 
z
" style="fill:#0000ff;stroke:#0000ff;"/>
    <path clip-path="url(#p73085fea93)" d="M 386.292638 237.377213 
L 394.952892 237.377213 
L 394.952892 228.716959 
L 386.292638 228.716959 
z
" style="fill:#0000ff;stroke:#0000ff;"/>
    <path clip-path="url(#p73085fea93)" d="M 282.606354 210.267234 
L 291.266608 210.267234 
L 291.266608 201.60698 
L 282.606354 201.60698 
z
" style="fill:#0000ff;stroke:#0000ff;"/>
    <path clip-path="url(#p73085fea93)" d="M 241.927994 161.984657 
L 250.588248 161.984657 
L 250.588248 153.324402 
L 241.927994 153.324402 
z
" style="fill:#0000ff;stroke:#0000ff;"/>
    <path clip-path="url(#p73085fea93)" d="M 391.085149 229.813178 
L 399.745403 229.813178 
L 399.745403 221.152924 
L 391.085149 221.152924 
z
" style="fill:#0000ff;stroke:#0000ff;"/>
    <path clip-path="url(#p73085fea93)" d="M 332.086165 196.987363 
L 340.746419 196.987363 
L 340.746419 188.327109 
L 332.086165 188.327109 
z
" style="fill:#0000ff;stroke:#0000ff;"/>
    <path clip-path="url(#p73085fea93)" d="M 353.983405 278.184142 
L 362.643659 278.184142 
L 362.643659 269.523888 
L 353.983405 269.523888 
z
" style="fill:#0000ff;stroke:#0000ff;"/>
    <path clip-path="url(#p73085fea93)" d="M 197.836858 208.18626 
L 206.497112 208.18626 
L 206.497112 199.526006 
L 197.836858 199.526006 
z
" style="fill:#0000ff;stroke:#0000ff;"/>
    <path clip-path="url(#p73085fea93)" d="M 359.948026 183.341028 
L 368.60828 183.341028 
L 368.60828 174.680774 
L 359.948026 174.680774 
z
" style="fill:#0000ff;stroke:#0000ff;"/>
    <path clip-path="url(#p73085fea93)" d="M 293.09368 235.753481 
L 301.753934 235.753481 
L 301.753934 227.093227 
L 293.09368 227.093227 
z
" style="fill:#0000ff;stroke:#0000ff;"/>
    <path clip-path="url(#p73085fea93)" d="M 300.819691 115.786486 
C 301.968054 115.786486 303.069537 115.330237 303.881553 114.518221 
C 304.693568 113.706206 305.149818 112.604722 305.149818 111.456359 
C 305.149818 110.307996 304.693568 109.206512 303.881553 108.394497 
C 303.069537 107.582482 301.968054 107.126232 300.819691 107.126232 
C 299.671328 107.126232 298.569844 107.582482 297.757828 108.394497 
C 296.945813 109.206512 296.489564 110.307996 296.489564 111.456359 
C 296.489564 112.604722 296.945813 113.706206 297.757828 114.518221 
C 298.569844 115.330237 299.671328 115.786486 300.819691 115.786486 
z
" style="fill:#ff0000;stroke:#ff0000;"/>
    <path clip-path="url(#p73085fea93)" d="M 346.232123 217.75805 
L 354.892377 217.75805 
L 354.892377 209.097796 
L 346.232123 209.097796 
z
" style="fill:#0000ff;stroke:#0000ff;"/>
    <path clip-path="url(#p73085fea93)" d="M 175.285654 172.90444 
L 183.945908 172.90444 
L 183.945908 164.244186 
L 175.285654 164.244186 
z
" style="fill:#0000ff;stroke:#0000ff;"/>
    <path clip-path="url(#p73085fea93)" d="M 151.242014 194.300184 
L 159.902268 194.300184 
L 159.902268 185.63993 
L 151.242014 185.63993 
z
" style="fill:#0000ff;stroke:#0000ff;"/>
    <path clip-path="url(#p73085fea93)" d="M 122.256273 220.684768 
L 130.916527 220.684768 
L 130.916527 212.024514 
L 122.256273 212.024514 
z
" style="fill:#0000ff;stroke:#0000ff;"/>
    <path clip-path="url(#p73085fea93)" d="M 204.937664 212.237893 
L 213.597918 212.237893 
L 213.597918 203.577639 
L 204.937664 203.577639 
z
" style="fill:#0000ff;stroke:#0000ff;"/>
    <path clip-path="url(#p73085fea93)" d="M 229.558329 218.543995 
L 238.218583 218.543995 
L 238.218583 209.883741 
L 229.558329 209.883741 
z
" style="fill:#0000ff;stroke:#0000ff;"/>
    <path clip-path="url(#p73085fea93)" d="M 275.115452 197.936985 
L 283.775706 197.936985 
L 283.775706 189.276731 
L 275.115452 189.276731 
z
" style="fill:#0000ff;stroke:#0000ff;"/>
    <path clip-path="url(#p73085fea93)" d="M 303.823253 120.487008 
C 304.971616 120.487008 306.0731 120.030758 306.885115 119.218743 
C 307.697131 118.406728 308.15338 117.305244 308.15338 116.156881 
C 308.15338 115.008518 307.697131 113.907034 306.885115 113.095019 
C 306.0731 112.283003 304.971616 111.826754 303.823253 111.826754 
C 302.67489 111.826754 301.573406 112.283003 300.761391 113.095019 
C 299.949376 113.907034 299.493126 115.008518 299.493126 116.156881 
C 299.493126 117.305244 299.949376 118.406728 300.761391 119.218743 
C 301.573406 120.030758 302.67489 120.487008 303.823253 120.487008 
z
" style="fill:#ff0000;stroke:#ff0000;"/>
    <path clip-path="url(#p73085fea93)" d="M 72.574597 141.966912 
L 81.234851 141.966912 
L 81.234851 133.306658 
L 72.574597 133.306658 
z
" style="fill:#0000ff;stroke:#0000ff;"/>
    <path clip-path="url(#p73085fea93)" d="M 293.525301 249.492461 
L 302.185555 249.492461 
L 302.185555 240.832207 
L 293.525301 240.832207 
z
" style="fill:#0000ff;stroke:#0000ff;"/>
    <path clip-path="url(#p73085fea93)" d="M 97.807264 141.785005 
L 106.467518 141.785005 
L 106.467518 133.124751 
L 97.807264 133.124751 
z
" style="fill:#0000ff;stroke:#0000ff;"/>
    <path clip-path="url(#p73085fea93)" d="M 254.07079 189.322401 
L 262.731044 189.322401 
L 262.731044 180.662147 
L 254.07079 180.662147 
z
" style="fill:#0000ff;stroke:#0000ff;"/>
    <path clip-path="url(#p73085fea93)" d="M 298.765769 110.659642 
C 299.914132 110.659642 301.015615 110.203393 301.827631 109.391378 
C 302.639646 108.579362 303.095896 107.477879 303.095896 106.329515 
C 303.095896 105.181152 302.639646 104.079669 301.827631 103.267653 
C 301.015615 102.455638 299.914132 101.999388 298.765769 101.999388 
C 297.617405 101.999388 296.515922 102.455638 295.703906 103.267653 
C 294.891891 104.079669 294.435642 105.181152 294.435642 106.329515 
C 294.435642 107.477879 294.891891 108.579362 295.703906 109.391378 
C 296.515922 110.203393 297.617405 110.659642 298.765769 110.659642 
z
" style="fill:#ff0000;stroke:#ff0000;"/>
    <path clip-path="url(#p73085fea93)" d="M 150.739798 220.262166 
L 159.400052 220.262166 
L 159.400052 211.601912 
L 150.739798 211.601912 
z
" style="fill:#0000ff;stroke:#0000ff;"/>
    <path clip-path="url(#p73085fea93)" d="M 284.660822 211.017647 
L 293.321076 211.017647 
L 293.321076 202.357393 
L 284.660822 202.357393 
z
" style="fill:#0000ff;stroke:#0000ff;"/>
    <path clip-path="url(#p73085fea93)" d="M 343.644144 221.635059 
L 352.304398 221.635059 
L 352.304398 212.974805 
L 343.644144 212.974805 
z
" style="fill:#0000ff;stroke:#0000ff;"/>
    <path clip-path="url(#p73085fea93)" d="M 140.691528 219.228795 
L 149.351783 219.228795 
L 149.351783 210.568541 
L 140.691528 210.568541 
z
" style="fill:#0000ff;stroke:#0000ff;"/>
    <path clip-path="url(#p73085fea93)" d="M 116.852355 189.929853 
L 125.512609 189.929853 
L 125.512609 181.269599 
L 116.852355 181.269599 
z
" style="fill:#0000ff;stroke:#0000ff;"/>
    <path clip-path="url(#p73085fea93)" d="M 266.551275 207.17724 
L 275.211529 207.17724 
L 275.211529 198.516986 
L 266.551275 198.516986 
z
" style="fill:#0000ff;stroke:#0000ff;"/>
    <path clip-path="url(#p73085fea93)" d="M 361.80161 230.752472 
L 370.461864 230.752472 
L 370.461864 222.092218 
L 361.80161 222.092218 
z
" style="fill:#0000ff;stroke:#0000ff;"/>
    <path clip-path="url(#p73085fea93)" d="M 307.784855 132.956114 
C 308.933219 132.956114 310.034702 132.499864 310.846718 131.687849 
C 311.658733 130.875834 312.114983 129.77435 312.114983 128.625987 
C 312.114983 127.477624 311.658733 126.37614 310.846718 125.564125 
C 310.034702 124.752109 308.933219 124.29586 307.784855 124.29586 
C 306.636492 124.29586 305.535009 124.752109 304.722993 125.564125 
C 303.910978 126.37614 303.454728 127.477624 303.454728 128.625987 
C 303.454728 129.77435 303.910978 130.875834 304.722993 131.687849 
C 305.535009 132.499864 306.636492 132.956114 307.784855 132.956114 
z
" style="fill:#ff0000;stroke:#ff0000;"/>
    <path clip-path="url(#p73085fea93)" d="M 197.683027 194.872055 
L 206.343281 194.872055 
L 206.343281 186.211801 
L 197.683027 186.211801 
z
" style="fill:#0000ff;stroke:#0000ff;"/>
    <path clip-path="url(#p73085fea93)" d="M 295.010102 217.835459 
L 303.670356 217.835459 
L 303.670356 209.175205 
L 295.010102 209.175205 
z
" style="fill:#0000ff;stroke:#0000ff;"/>
    <path clip-path="url(#p73085fea93)" d="M 269.523579 213.792633 
L 278.183833 213.792633 
L 278.183833 205.132379 
L 269.523579 205.132379 
z
" style="fill:#0000ff;stroke:#0000ff;"/>
    <path clip-path="url(#p73085fea93)" d="M 294.812638 97.335562 
C 295.961001 97.335562 297.062485 96.879312 297.8745 96.067297 
C 298.686515 95.255282 299.142765 94.153798 299.142765 93.005435 
C 299.142765 91.857072 298.686515 90.755588 297.8745 89.943573 
C 297.062485 89.131557 295.961001 88.675308 294.812638 88.675308 
C 293.664275 88.675308 292.562791 89.131557 291.750776 89.943573 
C 290.93876 90.755588 290.482511 91.857072 290.482511 93.005435 
C 290.482511 94.153798 290.93876 95.255282 291.750776 96.067297 
C 292.562791 96.879312 293.664275 97.335562 294.812638 97.335562 
z
" style="fill:#ff0000;stroke:#ff0000;"/>
    <path clip-path="url(#p73085fea93)" d="M 303.634543 117.487622 
C 304.782906 117.487622 305.88439 117.031373 306.696405 116.219358 
C 307.508421 115.407342 307.96467 114.305858 307.96467 113.157495 
C 307.96467 112.009132 307.508421 110.907649 306.696405 110.095633 
C 305.88439 109.283618 304.782906 108.827368 303.634543 108.827368 
C 302.48618 108.827368 301.384696 109.283618 300.572681 110.095633 
C 299.760666 110.907649 299.304416 112.009132 299.304416 113.157495 
C 299.304416 114.305858 299.760666 115.407342 300.572681 116.219358 
C 301.384696 117.031373 302.48618 117.487622 303.634543 117.487622 
z
" style="fill:#ff0000;stroke:#ff0000;"/>
    <path clip-path="url(#p73085fea93)" d="M 355.514072 277.016005 
L 364.174326 277.016005 
L 364.174326 268.355751 
L 355.514072 268.355751 
z
" style="fill:#0000ff;stroke:#0000ff;"/>
   </g>
   <g id="PathCollection_2">
    <path clip-path="url(#p73085fea93)" d="M 385.109875 296.751407 
L 393.770129 296.751407 
L 393.770129 288.091153 
L 385.109875 288.091153 
z
" style="fill:none;stroke:#0000ff;"/>
    <path clip-path="url(#p73085fea93)" d="M 173.27266 188.319655 
L 181.932914 188.319655 
L 181.932914 179.659401 
L 173.27266 179.659401 
z
" style="fill:none;stroke:#0000ff;"/>
    <path clip-path="url(#p73085fea93)" d="M 261.177219 234.168985 
L 269.837473 234.168985 
L 269.837473 225.508731 
L 261.177219 225.508731 
z
" style="fill:none;stroke:#0000ff;"/>
    <path clip-path="url(#p73085fea93)" d="M 297.644141 108.122973 
C 298.792504 108.122973 299.893988 107.666723 300.706003 106.854708 
C 301.518019 106.042693 301.974268 104.941209 301.974268 103.792846 
C 301.974268 102.644483 301.518019 101.542999 300.706003 100.730984 
C 299.893988 99.918968 298.792504 99.462719 297.644141 99.462719 
C 296.495778 99.462719 295.394294 99.918968 294.582279 100.730984 
C 293.770264 101.542999 293.314014 102.644483 293.314014 103.792846 
C 293.314014 104.941209 293.770264 106.042693 294.582279 106.854708 
C 295.394294 107.666723 296.495778 108.122973 297.644141 108.122973 
z
" style="fill:none;stroke:#ff0000;"/>
    <path clip-path="url(#p73085fea93)" d="M 266.397361 236.261544 
L 275.057615 236.261544 
L 275.057615 227.60129 
L 266.397361 227.60129 
z
" style="fill:none;stroke:#0000ff;"/>
    <path clip-path="url(#p73085fea93)" d="M 290.933651 216.176221 
L 299.593905 216.176221 
L 299.593905 207.515967 
L 290.933651 207.515967 
z
" style="fill:none;stroke:#0000ff;"/>
    <path clip-path="url(#p73085fea93)" d="M 145.485511 60.964847 
C 146.633875 60.964847 147.735358 60.508598 148.547374 59.696582 
C 149.359389 58.884567 149.815638 57.783083 149.815638 56.63472 
C 149.815638 55.486357 149.359389 54.384873 148.547374 53.572858 
C 147.735358 52.760843 146.633875 52.304593 145.485511 52.304593 
C 144.337148 52.304593 143.235665 52.760843 142.423649 53.572858 
C 141.611634 54.384873 141.155384 55.486357 141.155384 56.63472 
C 141.155384 57.783083 141.611634 58.884567 142.423649 59.696582 
C 143.235665 60.508598 144.337148 60.964847 145.485511 60.964847 
z
" style="fill:none;stroke:#ff0000;"/>
    <path clip-path="url(#p73085fea93)" d="M 312.415884 98.043874 
C 313.564247 98.043874 314.665731 97.587625 315.477746 96.775609 
C 316.289762 95.963594 316.746011 94.86211 316.746011 93.713747 
C 316.746011 92.565384 316.289762 91.4639 315.477746 90.651885 
C 314.665731 89.83987 313.564247 89.38362 312.415884 89.38362 
C 311.267521 89.38362 310.166037 89.83987 309.354022 90.651885 
C 308.542007 91.4639 308.085757 92.565384 308.085757 93.713747 
C 308.085757 94.86211 308.542007 95.963594 309.354022 96.775609 
C 310.166037 97.587625 311.267521 98.043874 312.415884 98.043874 
z
" style="fill:none;stroke:#ff0000;"/>
    <path clip-path="url(#p73085fea93)" d="M 306.405816 130.921503 
C 307.554179 130.921503 308.655663 130.465254 309.467678 129.653239 
C 310.279694 128.841223 310.735943 127.73974 310.735943 126.591376 
C 310.735943 125.443013 310.279694 124.34153 309.467678 123.529514 
C 308.655663 122.717499 307.554179 122.261249 306.405816 122.261249 
C 305.257453 122.261249 304.155969 122.717499 303.343954 123.529514 
C 302.531939 124.34153 302.075689 125.443013 302.075689 126.591376 
C 302.075689 127.73974 302.531939 128.841223 303.343954 129.653239 
C 304.155969 130.465254 305.257453 130.921503 306.405816 130.921503 
z
" style="fill:none;stroke:#ff0000;"/>
    <path clip-path="url(#p73085fea93)" d="M 211.094404 143.536955 
L 219.754658 143.536955 
L 219.754658 134.876701 
L 211.094404 134.876701 
z
" style="fill:none;stroke:#0000ff;"/>
    <path clip-path="url(#p73085fea93)" d="M 311.712585 237.775738 
L 320.372839 237.775738 
L 320.372839 229.115484 
L 311.712585 229.115484 
z
" style="fill:none;stroke:#0000ff;"/>
    <path clip-path="url(#p73085fea93)" d="M 367.484661 244.41078 
L 376.144915 244.41078 
L 376.144915 235.750526 
L 367.484661 235.750526 
z
" style="fill:none;stroke:#0000ff;"/>
    <path clip-path="url(#p73085fea93)" d="M 322.076321 209.902605 
L 330.736575 209.902605 
L 330.736575 201.242351 
L 322.076321 201.242351 
z
" style="fill:none;stroke:#0000ff;"/>
    <path clip-path="url(#p73085fea93)" d="M 386.292638 237.377213 
L 394.952892 237.377213 
L 394.952892 228.716959 
L 386.292638 228.716959 
z
" style="fill:none;stroke:#0000ff;"/>
    <path clip-path="url(#p73085fea93)" d="M 282.606354 210.267234 
L 291.266608 210.267234 
L 291.266608 201.60698 
L 282.606354 201.60698 
z
" style="fill:none;stroke:#0000ff;"/>
    <path clip-path="url(#p73085fea93)" d="M 241.927994 161.984657 
L 250.588248 161.984657 
L 250.588248 153.324402 
L 241.927994 153.324402 
z
" style="fill:none;stroke:#0000ff;"/>
    <path clip-path="url(#p73085fea93)" d="M 391.085149 229.813178 
L 399.745403 229.813178 
L 399.745403 221.152924 
L 391.085149 221.152924 
z
" style="fill:none;stroke:#0000ff;"/>
    <path clip-path="url(#p73085fea93)" d="M 332.086165 196.987363 
L 340.746419 196.987363 
L 340.746419 188.327109 
L 332.086165 188.327109 
z
" style="fill:none;stroke:#0000ff;"/>
    <path clip-path="url(#p73085fea93)" d="M 353.983405 278.184142 
L 362.643659 278.184142 
L 362.643659 269.523888 
L 353.983405 269.523888 
z
" style="fill:none;stroke:#0000ff;"/>
    <path clip-path="url(#p73085fea93)" d="M 197.836858 208.18626 
L 206.497112 208.18626 
L 206.497112 199.526006 
L 197.836858 199.526006 
z
" style="fill:none;stroke:#0000ff;"/>
    <path clip-path="url(#p73085fea93)" d="M 359.948026 183.341028 
L 368.60828 183.341028 
L 368.60828 174.680774 
L 359.948026 174.680774 
z
" style="fill:none;stroke:#0000ff;"/>
    <path clip-path="url(#p73085fea93)" d="M 293.09368 235.753481 
L 301.753934 235.753481 
L 301.753934 227.093227 
L 293.09368 227.093227 
z
" style="fill:none;stroke:#0000ff;"/>
    <path clip-path="url(#p73085fea93)" d="M 300.819691 115.786486 
C 301.968054 115.786486 303.069537 115.330237 303.881553 114.518221 
C 304.693568 113.706206 305.149818 112.604722 305.149818 111.456359 
C 305.149818 110.307996 304.693568 109.206512 303.881553 108.394497 
C 303.069537 107.582482 301.968054 107.126232 300.819691 107.126232 
C 299.671328 107.126232 298.569844 107.582482 297.757828 108.394497 
C 296.945813 109.206512 296.489564 110.307996 296.489564 111.456359 
C 296.489564 112.604722 296.945813 113.706206 297.757828 114.518221 
C 298.569844 115.330237 299.671328 115.786486 300.819691 115.786486 
z
" style="fill:none;stroke:#ff0000;"/>
    <path clip-path="url(#p73085fea93)" d="M 346.232123 217.75805 
L 354.892377 217.75805 
L 354.892377 209.097796 
L 346.232123 209.097796 
z
" style="fill:none;stroke:#0000ff;"/>
    <path clip-path="url(#p73085fea93)" d="M 175.285654 172.90444 
L 183.945908 172.90444 
L 183.945908 164.244186 
L 175.285654 164.244186 
z
" style="fill:none;stroke:#0000ff;"/>
    <path clip-path="url(#p73085fea93)" d="M 151.242014 194.300184 
L 159.902268 194.300184 
L 159.902268 185.63993 
L 151.242014 185.63993 
z
" style="fill:none;stroke:#0000ff;"/>
    <path clip-path="url(#p73085fea93)" d="M 122.256273 220.684768 
L 130.916527 220.684768 
L 130.916527 212.024514 
L 122.256273 212.024514 
z
" style="fill:none;stroke:#0000ff;"/>
    <path clip-path="url(#p73085fea93)" d="M 204.937664 212.237893 
L 213.597918 212.237893 
L 213.597918 203.577639 
L 204.937664 203.577639 
z
" style="fill:none;stroke:#0000ff;"/>
    <path clip-path="url(#p73085fea93)" d="M 229.558329 218.543995 
L 238.218583 218.543995 
L 238.218583 209.883741 
L 229.558329 209.883741 
z
" style="fill:none;stroke:#0000ff;"/>
    <path clip-path="url(#p73085fea93)" d="M 275.115452 197.936985 
L 283.775706 197.936985 
L 283.775706 189.276731 
L 275.115452 189.276731 
z
" style="fill:none;stroke:#0000ff;"/>
    <path clip-path="url(#p73085fea93)" d="M 303.823253 120.487008 
C 304.971616 120.487008 306.0731 120.030758 306.885115 119.218743 
C 307.697131 118.406728 308.15338 117.305244 308.15338 116.156881 
C 308.15338 115.008518 307.697131 113.907034 306.885115 113.095019 
C 306.0731 112.283003 304.971616 111.826754 303.823253 111.826754 
C 302.67489 111.826754 301.573406 112.283003 300.761391 113.095019 
C 299.949376 113.907034 299.493126 115.008518 299.493126 116.156881 
C 299.493126 117.305244 299.949376 118.406728 300.761391 119.218743 
C 301.573406 120.030758 302.67489 120.487008 303.823253 120.487008 
z
" style="fill:none;stroke:#ff0000;"/>
    <path clip-path="url(#p73085fea93)" d="M 72.574597 141.966912 
L 81.234851 141.966912 
L 81.234851 133.306658 
L 72.574597 133.306658 
z
" style="fill:none;stroke:#0000ff;"/>
    <path clip-path="url(#p73085fea93)" d="M 293.525301 249.492461 
L 302.185555 249.492461 
L 302.185555 240.832207 
L 293.525301 240.832207 
z
" style="fill:none;stroke:#0000ff;"/>
    <path clip-path="url(#p73085fea93)" d="M 97.807264 141.785005 
L 106.467518 141.785005 
L 106.467518 133.124751 
L 97.807264 133.124751 
z
" style="fill:none;stroke:#0000ff;"/>
    <path clip-path="url(#p73085fea93)" d="M 254.07079 189.322401 
L 262.731044 189.322401 
L 262.731044 180.662147 
L 254.07079 180.662147 
z
" style="fill:none;stroke:#0000ff;"/>
    <path clip-path="url(#p73085fea93)" d="M 298.765769 110.659642 
C 299.914132 110.659642 301.015615 110.203393 301.827631 109.391378 
C 302.639646 108.579362 303.095896 107.477879 303.095896 106.329515 
C 303.095896 105.181152 302.639646 104.079669 301.827631 103.267653 
C 301.015615 102.455638 299.914132 101.999388 298.765769 101.999388 
C 297.617405 101.999388 296.515922 102.455638 295.703906 103.267653 
C 294.891891 104.079669 294.435642 105.181152 294.435642 106.329515 
C 294.435642 107.477879 294.891891 108.579362 295.703906 109.391378 
C 296.515922 110.203393 297.617405 110.659642 298.765769 110.659642 
z
" style="fill:none;stroke:#ff0000;"/>
    <path clip-path="url(#p73085fea93)" d="M 150.739798 220.262166 
L 159.400052 220.262166 
L 159.400052 211.601912 
L 150.739798 211.601912 
z
" style="fill:none;stroke:#0000ff;"/>
    <path clip-path="url(#p73085fea93)" d="M 284.660822 211.017647 
L 293.321076 211.017647 
L 293.321076 202.357393 
L 284.660822 202.357393 
z
" style="fill:none;stroke:#0000ff;"/>
    <path clip-path="url(#p73085fea93)" d="M 343.644144 221.635059 
L 352.304398 221.635059 
L 352.304398 212.974805 
L 343.644144 212.974805 
z
" style="fill:none;stroke:#0000ff;"/>
    <path clip-path="url(#p73085fea93)" d="M 140.691528 219.228795 
L 149.351783 219.228795 
L 149.351783 210.568541 
L 140.691528 210.568541 
z
" style="fill:none;stroke:#0000ff;"/>
    <path clip-path="url(#p73085fea93)" d="M 116.852355 189.929853 
L 125.512609 189.929853 
L 125.512609 181.269599 
L 116.852355 181.269599 
z
" style="fill:none;stroke:#0000ff;"/>
    <path clip-path="url(#p73085fea93)" d="M 266.551275 207.17724 
L 275.211529 207.17724 
L 275.211529 198.516986 
L 266.551275 198.516986 
z
" style="fill:none;stroke:#0000ff;"/>
    <path clip-path="url(#p73085fea93)" d="M 361.80161 230.752472 
L 370.461864 230.752472 
L 370.461864 222.092218 
L 361.80161 222.092218 
z
" style="fill:none;stroke:#0000ff;"/>
    <path clip-path="url(#p73085fea93)" d="M 307.784855 132.956114 
C 308.933219 132.956114 310.034702 132.499864 310.846718 131.687849 
C 311.658733 130.875834 312.114983 129.77435 312.114983 128.625987 
C 312.114983 127.477624 311.658733 126.37614 310.846718 125.564125 
C 310.034702 124.752109 308.933219 124.29586 307.784855 124.29586 
C 306.636492 124.29586 305.535009 124.752109 304.722993 125.564125 
C 303.910978 126.37614 303.454728 127.477624 303.454728 128.625987 
C 303.454728 129.77435 303.910978 130.875834 304.722993 131.687849 
C 305.535009 132.499864 306.636492 132.956114 307.784855 132.956114 
z
" style="fill:none;stroke:#ff0000;"/>
    <path clip-path="url(#p73085fea93)" d="M 197.683027 194.872055 
L 206.343281 194.872055 
L 206.343281 186.211801 
L 197.683027 186.211801 
z
" style="fill:none;stroke:#0000ff;"/>
    <path clip-path="url(#p73085fea93)" d="M 295.010102 217.835459 
L 303.670356 217.835459 
L 303.670356 209.175205 
L 295.010102 209.175205 
z
" style="fill:none;stroke:#0000ff;"/>
    <path clip-path="url(#p73085fea93)" d="M 269.523579 213.792633 
L 278.183833 213.792633 
L 278.183833 205.132379 
L 269.523579 205.132379 
z
" style="fill:none;stroke:#0000ff;"/>
    <path clip-path="url(#p73085fea93)" d="M 294.812638 97.335562 
C 295.961001 97.335562 297.062485 96.879312 297.8745 96.067297 
C 298.686515 95.255282 299.142765 94.153798 299.142765 93.005435 
C 299.142765 91.857072 298.686515 90.755588 297.8745 89.943573 
C 297.062485 89.131557 295.961001 88.675308 294.812638 88.675308 
C 293.664275 88.675308 292.562791 89.131557 291.750776 89.943573 
C 290.93876 90.755588 290.482511 91.857072 290.482511 93.005435 
C 290.482511 94.153798 290.93876 95.255282 291.750776 96.067297 
C 292.562791 96.879312 293.664275 97.335562 294.812638 97.335562 
z
" style="fill:none;stroke:#ff0000;"/>
    <path clip-path="url(#p73085fea93)" d="M 303.634543 117.487622 
C 304.782906 117.487622 305.88439 117.031373 306.696405 116.219358 
C 307.508421 115.407342 307.96467 114.305858 307.96467 113.157495 
C 307.96467 112.009132 307.508421 110.907649 306.696405 110.095633 
C 305.88439 109.283618 304.782906 108.827368 303.634543 108.827368 
C 302.48618 108.827368 301.384696 109.283618 300.572681 110.095633 
C 299.760666 110.907649 299.304416 112.009132 299.304416 113.157495 
C 299.304416 114.305858 299.760666 115.407342 300.572681 116.219358 
C 301.384696 117.031373 302.48618 117.487622 303.634543 117.487622 
z
" style="fill:none;stroke:#ff0000;"/>
    <path clip-path="url(#p73085fea93)" d="M 355.514072 277.016005 
L 364.174326 277.016005 
L 364.174326 268.355751 
L 355.514072 268.355751 
z
" style="fill:none;stroke:#0000ff;"/>
    <path clip-path="url(#p73085fea93)" d="M 299.347585 112.233873 
C 300.495948 112.233873 301.597432 111.777623 302.409447 110.965608 
C 303.221463 110.153593 303.677712 109.052109 303.677712 107.903746 
C 303.677712 106.755383 303.221463 105.653899 302.409447 104.841884 
C 301.597432 104.029868 300.495948 103.573619 299.347585 103.573619 
C 298.199222 103.573619 297.097738 104.029868 296.285723 104.841884 
C 295.473708 105.653899 295.017458 106.755383 295.017458 107.903746 
C 295.017458 109.052109 295.473708 110.153593 296.285723 110.965608 
C 297.097738 111.777623 298.199222 112.233873 299.347585 112.233873 
z
" style="fill:none;stroke:#ff0000;"/>
    <path clip-path="url(#p73085fea93)" d="M 301.896004 116.742107 
C 303.044367 116.742107 304.145851 116.285857 304.957866 115.473842 
C 305.769882 114.661827 306.226131 113.560343 306.226131 112.41198 
C 306.226131 111.263617 305.769882 110.162133 304.957866 109.350118 
C 304.145851 108.538102 303.044367 108.081853 301.896004 108.081853 
C 300.747641 108.081853 299.646157 108.538102 298.834142 109.350118 
C 298.022127 110.162133 297.565877 111.263617 297.565877 112.41198 
C 297.565877 113.560343 298.022127 114.661827 298.834142 115.473842 
C 299.646157 116.285857 300.747641 116.742107 301.896004 116.742107 
z
" style="fill:none;stroke:#ff0000;"/>
    <path clip-path="url(#p73085fea93)" d="M 296.286436 102.950412 
C 297.434799 102.950412 298.536283 102.494163 299.348298 101.682147 
C 300.160314 100.870132 300.616563 99.768648 300.616563 98.620285 
C 300.616563 97.471922 300.160314 96.370438 299.348298 95.558423 
C 298.536283 94.746408 297.434799 94.290158 296.286436 94.290158 
C 295.138073 94.290158 294.036589 94.746408 293.224574 95.558423 
C 292.412558 96.370438 291.956309 97.471922 291.956309 98.620285 
C 291.956309 99.768648 292.412558 100.870132 293.224574 101.682147 
C 294.036589 102.494163 295.138073 102.950412 296.286436 102.950412 
z
" style="fill:none;stroke:#ff0000;"/>
    <path clip-path="url(#p73085fea93)" d="M 304.448225 124.707487 
C 305.596588 124.707487 306.698072 124.251238 307.510088 123.439223 
C 308.322103 122.627207 308.778352 121.525723 308.778352 120.37736 
C 308.778352 119.228997 308.322103 118.127514 307.510088 117.315498 
C 306.698072 116.503483 305.596588 116.047233 304.448225 116.047233 
C 303.299862 116.047233 302.198379 116.503483 301.386363 117.315498 
C 300.574348 118.127514 300.118098 119.228997 300.118098 120.37736 
C 300.118098 121.525723 300.574348 122.627207 301.386363 123.439223 
C 302.198379 124.251238 303.299862 124.707487 304.448225 124.707487 
z
" style="fill:none;stroke:#ff0000;"/>
    <path clip-path="url(#p73085fea93)" d="M 303.733496 119.060391 
C 304.881859 119.060391 305.983343 118.604141 306.795358 117.792126 
C 307.607373 116.980111 308.063623 115.878627 308.063623 114.730264 
C 308.063623 113.581901 307.607373 112.480417 306.795358 111.668402 
C 305.983343 110.856386 304.881859 110.400137 303.733496 110.400137 
C 302.585133 110.400137 301.483649 110.856386 300.671634 111.668402 
C 299.859618 112.480417 299.403369 113.581901 299.403369 114.730264 
C 299.403369 115.878627 299.859618 116.980111 300.671634 117.792126 
C 301.483649 118.604141 302.585133 119.060391 303.733496 119.060391 
z
" style="fill:none;stroke:#ff0000;"/>
    <path clip-path="url(#p73085fea93)" d="M 299.996228 113.701514 
C 301.144591 113.701514 302.246075 113.245265 303.05809 112.433249 
C 303.870106 111.621234 304.326355 110.51975 304.326355 109.371387 
C 304.326355 108.223024 303.870106 107.12154 303.05809 106.309525 
C 302.246075 105.49751 301.144591 105.04126 299.996228 105.04126 
C 298.847865 105.04126 297.746381 105.49751 296.934366 106.309525 
C 296.122351 107.12154 295.666101 108.223024 295.666101 109.371387 
C 295.666101 110.51975 296.122351 111.621234 296.934366 112.433249 
C 297.746381 113.245265 298.847865 113.701514 299.996228 113.701514 
z
" style="fill:none;stroke:#ff0000;"/>
    <path clip-path="url(#p73085fea93)" d="M 302.606748 118.583198 
C 303.755111 118.583198 304.856594 118.126949 305.66861 117.314934 
C 306.480625 116.502918 306.936875 115.401434 306.936875 114.253071 
C 306.936875 113.104708 306.480625 112.003225 305.66861 111.191209 
C 304.856594 110.379194 303.755111 109.922944 302.606748 109.922944 
C 301.458384 109.922944 300.356901 110.379194 299.544885 111.191209 
C 298.73287 112.003225 298.276621 113.104708 298.276621 114.253071 
C 298.276621 115.401434 298.73287 116.502918 299.544885 117.314934 
C 300.356901 118.126949 301.458384 118.583198 302.606748 118.583198 
z
" style="fill:none;stroke:#ff0000;"/>
    <path clip-path="url(#p73085fea93)" d="M 303.945118 124.254503 
C 305.093482 124.254503 306.194965 123.798253 307.006981 122.986238 
C 307.818996 122.174223 308.275245 121.072739 308.275245 119.924376 
C 308.275245 118.776013 307.818996 117.674529 307.006981 116.862514 
C 306.194965 116.050498 305.093482 115.594249 303.945118 115.594249 
C 302.796755 115.594249 301.695272 116.050498 300.883256 116.862514 
C 300.071241 117.674529 299.614991 118.776013 299.614991 119.924376 
C 299.614991 121.072739 300.071241 122.174223 300.883256 122.986238 
C 301.695272 123.798253 302.796755 124.254503 303.945118 124.254503 
z
" style="fill:none;stroke:#ff0000;"/>
    <path clip-path="url(#p73085fea93)" d="M 301.216174 116.026098 
C 302.364537 116.026098 303.466021 115.569849 304.278036 114.757833 
C 305.090052 113.945818 305.546301 112.844334 305.546301 111.695971 
C 305.546301 110.547608 305.090052 109.446124 304.278036 108.634109 
C 303.466021 107.822094 302.364537 107.365844 301.216174 107.365844 
C 300.067811 107.365844 298.966327 107.822094 298.154312 108.634109 
C 297.342297 109.446124 296.886047 110.547608 296.886047 111.695971 
C 296.886047 112.844334 297.342297 113.945818 298.154312 114.757833 
C 298.966327 115.569849 300.067811 116.026098 301.216174 116.026098 
z
" style="fill:none;stroke:#ff0000;"/>
    <path clip-path="url(#p73085fea93)" d="M 272.887636 105.928508 
C 274.035999 105.928508 275.137483 105.472258 275.949498 104.660243 
C 276.761514 103.848228 277.217763 102.746744 277.217763 101.598381 
C 277.217763 100.450018 276.761514 99.348534 275.949498 98.536519 
C 275.137483 97.724503 274.035999 97.268254 272.887636 97.268254 
C 271.739273 97.268254 270.637789 97.724503 269.825774 98.536519 
C 269.013759 99.348534 268.557509 100.450018 268.557509 101.598381 
C 268.557509 102.746744 269.013759 103.848228 269.825774 104.660243 
C 270.637789 105.472258 271.739273 105.928508 272.887636 105.928508 
z
" style="fill:none;stroke:#ff0000;"/>
    <path clip-path="url(#p73085fea93)" d="M 287.448612 111.702739 
C 288.596975 111.702739 289.698459 111.246489 290.510474 110.434474 
C 291.322489 109.622459 291.778739 108.520975 291.778739 107.372612 
C 291.778739 106.224249 291.322489 105.122765 290.510474 104.310749 
C 289.698459 103.498734 288.596975 103.042485 287.448612 103.042485 
C 286.300249 103.042485 285.198765 103.498734 284.38675 104.310749 
C 283.574734 105.122765 283.118485 106.224249 283.118485 107.372612 
C 283.118485 108.520975 283.574734 109.622459 284.38675 110.434474 
C 285.198765 111.246489 286.300249 111.702739 287.448612 111.702739 
z
" style="fill:none;stroke:#ff0000;"/>
    <path clip-path="url(#p73085fea93)" d="M 286.750668 104.746787 
C 287.899031 104.746787 289.000515 104.290538 289.81253 103.478523 
C 290.624546 102.666507 291.080795 101.565023 291.080795 100.41666 
C 291.080795 99.268297 290.624546 98.166814 289.81253 97.354798 
C 289.000515 96.542783 287.899031 96.086533 286.750668 96.086533 
C 285.602305 96.086533 284.500821 96.542783 283.688806 97.354798 
C 282.876791 98.166814 282.420541 99.268297 282.420541 100.41666 
C 282.420541 101.565023 282.876791 102.666507 283.688806 103.478523 
C 284.500821 104.290538 285.602305 104.746787 286.750668 104.746787 
z
" style="fill:none;stroke:#ff0000;"/>
    <path clip-path="url(#p73085fea93)" d="M 301.962404 117.574813 
C 303.110767 117.574813 304.212251 117.118563 305.024266 116.306548 
C 305.836282 115.494532 306.292531 114.393049 306.292531 113.244686 
C 306.292531 112.096322 305.836282 110.994839 305.024266 110.182823 
C 304.212251 109.370808 303.110767 108.914559 301.962404 108.914559 
C 300.814041 108.914559 299.712557 109.370808 298.900542 110.182823 
C 298.088527 110.994839 297.632277 112.096322 297.632277 113.244686 
C 297.632277 114.393049 298.088527 115.494532 298.900542 116.306548 
C 299.712557 117.118563 300.814041 117.574813 301.962404 117.574813 
z
" style="fill:none;stroke:#ff0000;"/>
    <path clip-path="url(#p73085fea93)" d="M 297.779347 108.449265 
C 298.927711 108.449265 300.029194 107.993015 300.84121 107.181 
C 301.653225 106.368985 302.109474 105.267501 302.109474 104.119138 
C 302.109474 102.970775 301.653225 101.869291 300.84121 101.057276 
C 300.029194 100.24526 298.927711 99.789011 297.779347 99.789011 
C 296.630984 99.789011 295.529501 100.24526 294.717485 101.057276 
C 293.90547 101.869291 293.44922 102.970775 293.44922 104.119138 
C 293.44922 105.267501 293.90547 106.368985 294.717485 107.181 
C 295.529501 107.993015 296.630984 108.449265 297.779347 108.449265 
z
" style="fill:none;stroke:#ff0000;"/>
    <path clip-path="url(#p73085fea93)" d="M 305.74107 129.120443 
C 306.889433 129.120443 307.990916 128.664194 308.802932 127.852178 
C 309.614947 127.040163 310.071197 125.938679 310.071197 124.790316 
C 310.071197 123.641953 309.614947 122.540469 308.802932 121.728454 
C 307.990916 120.916439 306.889433 120.460189 305.74107 120.460189 
C 304.592707 120.460189 303.491223 120.916439 302.679207 121.728454 
C 301.867192 122.540469 301.410943 123.641953 301.410943 124.790316 
C 301.410943 125.938679 301.867192 127.040163 302.679207 127.852178 
C 303.491223 128.664194 304.592707 129.120443 305.74107 129.120443 
z
" style="fill:none;stroke:#ff0000;"/>
    <path clip-path="url(#p73085fea93)" d="M 300.227698 114.357837 
C 301.376061 114.357837 302.477545 113.901588 303.28956 113.089573 
C 304.101575 112.277557 304.557825 111.176074 304.557825 110.02771 
C 304.557825 108.879347 304.101575 107.777864 303.28956 106.965848 
C 302.477545 106.153833 301.376061 105.697583 300.227698 105.697583 
C 299.079335 105.697583 297.977851 106.153833 297.165836 106.965848 
C 296.35382 107.777864 295.897571 108.879347 295.897571 110.02771 
C 295.897571 111.176074 296.35382 112.277557 297.165836 113.089573 
C 297.977851 113.901588 299.079335 114.357837 300.227698 114.357837 
z
" style="fill:none;stroke:#ff0000;"/>
    <path clip-path="url(#p73085fea93)" d="M 305.611046 127.710341 
C 306.759409 127.710341 307.860892 127.254092 308.672908 126.442076 
C 309.484923 125.630061 309.941173 124.528577 309.941173 123.380214 
C 309.941173 122.231851 309.484923 121.130367 308.672908 120.318352 
C 307.860892 119.506337 306.759409 119.050087 305.611046 119.050087 
C 304.462683 119.050087 303.361199 119.506337 302.549183 120.318352 
C 301.737168 121.130367 301.280919 122.231851 301.280919 123.380214 
C 301.280919 124.528577 301.737168 125.630061 302.549183 126.442076 
C 303.361199 127.254092 304.462683 127.710341 305.611046 127.710341 
z
" style="fill:none;stroke:#ff0000;"/>
    <path clip-path="url(#p73085fea93)" d="M 306.568594 129.127942 
C 307.716957 129.127942 308.818441 128.671692 309.630456 127.859677 
C 310.442471 127.047661 310.898721 125.946178 310.898721 124.797815 
C 310.898721 123.649451 310.442471 122.547968 309.630456 121.735952 
C 308.818441 120.923937 307.716957 120.467687 306.568594 120.467687 
C 305.420231 120.467687 304.318747 120.923937 303.506732 121.735952 
C 302.694716 122.547968 302.238467 123.649451 302.238467 124.797815 
C 302.238467 125.946178 302.694716 127.047661 303.506732 127.859677 
C 304.318747 128.671692 305.420231 129.127942 306.568594 129.127942 
z
" style="fill:none;stroke:#ff0000;"/>
    <path clip-path="url(#p73085fea93)" d="M 272.947322 100.468752 
C 274.095685 100.468752 275.197168 100.012503 276.009184 99.200487 
C 276.821199 98.388472 277.277449 97.286988 277.277449 96.138625 
C 277.277449 94.990262 276.821199 93.888778 276.009184 93.076763 
C 275.197168 92.264748 274.095685 91.808498 272.947322 91.808498 
C 271.798959 91.808498 270.697475 92.264748 269.885459 93.076763 
C 269.073444 93.888778 268.617195 94.990262 268.617195 96.138625 
C 268.617195 97.286988 269.073444 98.388472 269.885459 99.200487 
C 270.697475 100.012503 271.798959 100.468752 272.947322 100.468752 
z
" style="fill:none;stroke:#ff0000;"/>
    <path clip-path="url(#p73085fea93)" d="M 302.672085 118.685451 
C 303.820448 118.685451 304.921932 118.229201 305.733947 117.417186 
C 306.545963 116.605171 307.002212 115.503687 307.002212 114.355324 
C 307.002212 113.206961 306.545963 112.105477 305.733947 111.293461 
C 304.921932 110.481446 303.820448 110.025197 302.672085 110.025197 
C 301.523722 110.025197 300.422238 110.481446 299.610223 111.293461 
C 298.798208 112.105477 298.341958 113.206961 298.341958 114.355324 
C 298.341958 115.503687 298.798208 116.605171 299.610223 117.417186 
C 300.422238 118.229201 301.523722 118.685451 302.672085 118.685451 
z
" style="fill:none;stroke:#ff0000;"/>
    <path clip-path="url(#p73085fea93)" d="M 295.760918 100.948304 
C 296.909281 100.948304 298.010765 100.492054 298.82278 99.680039 
C 299.634796 98.868024 300.091045 97.76654 300.091045 96.618177 
C 300.091045 95.469814 299.634796 94.36833 298.82278 93.556315 
C 298.010765 92.744299 296.909281 92.28805 295.760918 92.28805 
C 294.612555 92.28805 293.511071 92.744299 292.699056 93.556315 
C 291.887041 94.36833 291.430791 95.469814 291.430791 96.618177 
C 291.430791 97.76654 291.887041 98.868024 292.699056 99.680039 
C 293.511071 100.492054 294.612555 100.948304 295.760918 100.948304 
z
" style="fill:none;stroke:#ff0000;"/>
    <path clip-path="url(#p73085fea93)" d="M 296.622035 103.434161 
C 297.770399 103.434161 298.871882 102.977912 299.683898 102.165896 
C 300.495913 101.353881 300.952162 100.252397 300.952162 99.104034 
C 300.952162 97.955671 300.495913 96.854187 299.683898 96.042172 
C 298.871882 95.230157 297.770399 94.773907 296.622035 94.773907 
C 295.473672 94.773907 294.372189 95.230157 293.560173 96.042172 
C 292.748158 96.854187 292.291908 97.955671 292.291908 99.104034 
C 292.291908 100.252397 292.748158 101.353881 293.560173 102.165896 
C 294.372189 102.977912 295.473672 103.434161 296.622035 103.434161 
z
" style="fill:none;stroke:#ff0000;"/>
    <path clip-path="url(#p73085fea93)" d="M 295.990217 101.821882 
C 297.13858 101.821882 298.240064 101.365632 299.052079 100.553617 
C 299.864094 99.741602 300.320344 98.640118 300.320344 97.491755 
C 300.320344 96.343392 299.864094 95.241908 299.052079 94.429893 
C 298.240064 93.617877 297.13858 93.161628 295.990217 93.161628 
C 294.841854 93.161628 293.74037 93.617877 292.928355 94.429893 
C 292.116339 95.241908 291.66009 96.343392 291.66009 97.491755 
C 291.66009 98.640118 292.116339 99.741602 292.928355 100.553617 
C 293.74037 101.365632 294.841854 101.821882 295.990217 101.821882 
z
" style="fill:none;stroke:#ff0000;"/>
    <path clip-path="url(#p73085fea93)" d="M 303.801709 106.005304 
C 304.950072 106.005304 306.051556 105.549055 306.863571 104.737039 
C 307.675586 103.925024 308.131836 102.82354 308.131836 101.675177 
C 308.131836 100.526814 307.675586 99.42533 306.863571 98.613315 
C 306.051556 97.8013 304.950072 97.34505 303.801709 97.34505 
C 302.653346 97.34505 301.551862 97.8013 300.739847 98.613315 
C 299.927831 99.42533 299.471582 100.526814 299.471582 101.675177 
C 299.471582 102.82354 299.927831 103.925024 300.739847 104.737039 
C 301.551862 105.549055 302.653346 106.005304 303.801709 106.005304 
z
" style="fill:none;stroke:#ff0000;"/>
    <path clip-path="url(#p73085fea93)" d="M 300.203947 114.30052 
C 301.35231 114.30052 302.453794 113.84427 303.265809 113.032255 
C 304.077824 112.22024 304.534074 111.118756 304.534074 109.970393 
C 304.534074 108.82203 304.077824 107.720546 303.265809 106.908531 
C 302.453794 106.096515 301.35231 105.640266 300.203947 105.640266 
C 299.055584 105.640266 297.9541 106.096515 297.142085 106.908531 
C 296.330069 107.720546 295.87382 108.82203 295.87382 109.970393 
C 295.87382 111.118756 296.330069 112.22024 297.142085 113.032255 
C 297.9541 113.84427 299.055584 114.30052 300.203947 114.30052 
z
" style="fill:none;stroke:#ff0000;"/>
    <path clip-path="url(#p73085fea93)" d="M 298.666339 110.589829 
C 299.814702 110.589829 300.916186 110.13358 301.728201 109.321565 
C 302.540216 108.509549 302.996466 107.408066 302.996466 106.259702 
C 302.996466 105.111339 302.540216 104.009856 301.728201 103.19784 
C 300.916186 102.385825 299.814702 101.929575 298.666339 101.929575 
C 297.517976 101.929575 296.416492 102.385825 295.604477 103.19784 
C 294.792461 104.009856 294.336212 105.111339 294.336212 106.259702 
C 294.336212 107.408066 294.792461 108.509549 295.604477 109.321565 
C 296.416492 110.13358 297.517976 110.589829 298.666339 110.589829 
z
" style="fill:none;stroke:#ff0000;"/>
    <path clip-path="url(#p73085fea93)" d="M 299.92676 113.73866 
C 301.075123 113.73866 302.176607 113.282411 302.988622 112.470396 
C 303.800637 111.65838 304.256887 110.556896 304.256887 109.408533 
C 304.256887 108.26017 303.800637 107.158686 302.988622 106.346671 
C 302.176607 105.534656 301.075123 105.078406 299.92676 105.078406 
C 298.778397 105.078406 297.676913 105.534656 296.864898 106.346671 
C 296.052882 107.158686 295.596633 108.26017 295.596633 109.408533 
C 295.596633 110.556896 296.052882 111.65838 296.864898 112.470396 
C 297.676913 113.282411 298.778397 113.73866 299.92676 113.73866 
z
" style="fill:none;stroke:#ff0000;"/>
    <path clip-path="url(#p73085fea93)" d="M 301.495438 116.19487 
C 302.643801 116.19487 303.745285 115.73862 304.5573 114.926605 
C 305.369316 114.114589 305.825565 113.013106 305.825565 111.864743 
C 305.825565 110.716379 305.369316 109.614896 304.5573 108.80288 
C 303.745285 107.990865 302.643801 107.534616 301.495438 107.534616 
C 300.347075 107.534616 299.245591 107.990865 298.433576 108.80288 
C 297.621561 109.614896 297.165311 110.716379 297.165311 111.864743 
C 297.165311 113.013106 297.621561 114.114589 298.433576 114.926605 
C 299.245591 115.73862 300.347075 116.19487 301.495438 116.19487 
z
" style="fill:none;stroke:#ff0000;"/>
    <path clip-path="url(#p73085fea93)" d="M 303.744421 118.02026 
C 304.892784 118.02026 305.994268 117.564011 306.806283 116.751995 
C 307.618299 115.93998 308.074548 114.838496 308.074548 113.690133 
C 308.074548 112.54177 307.618299 111.440286 306.806283 110.628271 
C 305.994268 109.816256 304.892784 109.360006 303.744421 109.360006 
C 302.596058 109.360006 301.494574 109.816256 300.682559 110.628271 
C 299.870544 111.440286 299.414294 112.54177 299.414294 113.690133 
C 299.414294 114.838496 299.870544 115.93998 300.682559 116.751995 
C 301.494574 117.564011 302.596058 118.02026 303.744421 118.02026 
z
" style="fill:none;stroke:#ff0000;"/>
    <path clip-path="url(#p73085fea93)" d="M 303.376789 117.126147 
C 304.525152 117.126147 305.626636 116.669897 306.438651 115.857882 
C 307.250666 115.045867 307.706916 113.944383 307.706916 112.79602 
C 307.706916 111.647657 307.250666 110.546173 306.438651 109.734158 
C 305.626636 108.922142 304.525152 108.465893 303.376789 108.465893 
C 302.228426 108.465893 301.126942 108.922142 300.314927 109.734158 
C 299.502911 110.546173 299.046662 111.647657 299.046662 112.79602 
C 299.046662 113.944383 299.502911 115.045867 300.314927 115.857882 
C 301.126942 116.669897 302.228426 117.126147 303.376789 117.126147 
z
" style="fill:none;stroke:#ff0000;"/>
   </g>
  </g>
 </g>
 <defs>
  <clipPath id="p73085fea93">
   <rect height="266.112" width="357.12" x="57.6" y="41.472"/>
  </clipPath>
 </defs>
</svg>
