<?xml version="1.0" encoding="utf-8" standalone="no"?>
<!DOCTYPE svg PUBLIC "-//W3C//DTD SVG 1.1//EN"
  "http://www.w3.org/Graphics/SVG/1.1/DTD/svg11.dtd">
<!-- Created with matplotlib (http://matplotlib.org/) -->
<svg height="345pt" version="1.1" viewBox="0 0 460 345" width="460pt" xmlns="http://www.w3.org/2000/svg" xmlns:xlink="http://www.w3.org/1999/xlink">
 <defs>
  <style type="text/css">
*{stroke-linecap:butt;stroke-linejoin:round;}
  </style>
 </defs>
 <g id="figure_1">
  <g id="patch_1">
   <path d="M 0 345.6 
L 460.8 345.6 
L 460.8 0 
L 0 0 
z
" style="fill:#ffffff;"/>
  </g>
  <g id="axes_1">
   <g id="PathCollection_1">
    <path clip-path="url(#p2acabaffde)" d="M 387.389835 298.710882 
L 396.050089 298.710882 
L 396.050089 290.050627 
L 387.389835 290.050627 
z
" style="fill:#0000ff;stroke:#0000ff;"/>
    <path clip-path="url(#p2acabaffde)" d="M 172.401652 188.476913 
L 181.061906 188.476913 
L 181.061906 179.816659 
L 172.401652 179.816659 
z
" style="fill:#0000ff;stroke:#0000ff;"/>
    <path clip-path="url(#p2acabaffde)" d="M 261.613745 235.088293 
L 270.273999 235.088293 
L 270.273999 226.428039 
L 261.613745 226.428039 
z
" style="fill:#0000ff;stroke:#0000ff;"/>
    <path clip-path="url(#p2acabaffde)" d="M 298.558685 106.947302 
C 299.707048 106.947302 300.808532 106.491052 301.620547 105.679037 
C 302.432563 104.867021 302.888812 103.765538 302.888812 102.617175 
C 302.888812 101.468811 302.432563 100.367328 301.620547 99.555312 
C 300.808532 98.743297 299.707048 98.287047 298.558685 98.287047 
C 297.410322 98.287047 296.308838 98.743297 295.496823 99.555312 
C 294.684808 100.367328 294.228558 101.468811 294.228558 102.617175 
C 294.228558 103.765538 294.684808 104.867021 295.496823 105.679037 
C 296.308838 106.491052 297.410322 106.947302 298.558685 106.947302 
z
" style="fill:#ff0000;stroke:#ff0000;"/>
    <path clip-path="url(#p2acabaffde)" d="M 266.911534 237.215632 
L 275.571788 237.215632 
L 275.571788 228.555378 
L 266.911534 228.555378 
z
" style="fill:#0000ff;stroke:#0000ff;"/>
    <path clip-path="url(#p2acabaffde)" d="M 291.812789 216.796475 
L 300.473043 216.796475 
L 300.473043 208.136221 
L 291.812789 208.136221 
z
" style="fill:#0000ff;stroke:#0000ff;"/>
    <path clip-path="url(#p2acabaffde)" d="M 144.136776 59.005373 
C 145.285139 59.005373 146.386623 58.549123 147.198638 57.737108 
C 148.010654 56.925092 148.466903 55.823609 148.466903 54.675245 
C 148.466903 53.526882 148.010654 52.425399 147.198638 51.613383 
C 146.386623 50.801368 145.285139 50.345118 144.136776 50.345118 
C 142.988413 50.345118 141.886929 50.801368 141.074914 51.613383 
C 140.262899 52.425399 139.806649 53.526882 139.806649 54.675245 
C 139.806649 55.823609 140.262899 56.925092 141.074914 57.737108 
C 141.886929 58.549123 142.988413 59.005373 144.136776 59.005373 
z
" style="fill:#ff0000;stroke:#ff0000;"/>
    <path clip-path="url(#p2acabaffde)" d="M 313.55015 96.700681 
C 314.698514 96.700681 315.799997 96.244431 316.612013 95.432416 
C 317.424028 94.6204 317.880277 93.518917 317.880277 92.370554 
C 317.880277 91.22219 317.424028 90.120707 316.612013 89.308691 
C 315.799997 88.496676 314.698514 88.040427 313.55015 88.040427 
C 312.401787 88.040427 311.300304 88.496676 310.488288 89.308691 
C 309.676273 90.120707 309.220023 91.22219 309.220023 92.370554 
C 309.220023 93.518917 309.676273 94.6204 310.488288 95.432416 
C 311.300304 96.244431 312.401787 96.700681 313.55015 96.700681 
z
" style="fill:#ff0000;stroke:#ff0000;"/>
    <path clip-path="url(#p2acabaffde)" d="M 307.450686 130.124761 
C 308.599049 130.124761 309.700533 129.668511 310.512548 128.856496 
C 311.324563 128.044481 311.780813 126.942997 311.780813 125.794634 
C 311.780813 124.646271 311.324563 123.544787 310.512548 122.732772 
C 309.700533 121.920756 308.599049 121.464507 307.450686 121.464507 
C 306.302323 121.464507 305.200839 121.920756 304.388824 122.732772 
C 303.576808 123.544787 303.120559 124.646271 303.120559 125.794634 
C 303.120559 126.942997 303.576808 128.044481 304.388824 128.856496 
C 305.200839 129.668511 306.302323 130.124761 307.450686 130.124761 
z
" style="fill:#ff0000;stroke:#ff0000;"/>
    <path clip-path="url(#p2acabaffde)" d="M 210.785975 142.94989 
L 219.446229 142.94989 
L 219.446229 134.289636 
L 210.785975 134.289636 
z
" style="fill:#0000ff;stroke:#0000ff;"/>
    <path clip-path="url(#p2acabaffde)" d="M 312.900799 238.754993 
L 321.561053 238.754993 
L 321.561053 230.094739 
L 312.900799 230.094739 
z
" style="fill:#0000ff;stroke:#0000ff;"/>
    <path clip-path="url(#p2acabaffde)" d="M 369.502455 245.500314 
L 378.162709 245.500314 
L 378.162709 236.84006 
L 369.502455 236.84006 
z
" style="fill:#0000ff;stroke:#0000ff;"/>
    <path clip-path="url(#p2acabaffde)" d="M 323.41869 210.418588 
L 332.078944 210.418588 
L 332.078944 201.758334 
L 323.41869 201.758334 
z
" style="fill:#0000ff;stroke:#0000ff;"/>
    <path clip-path="url(#p2acabaffde)" d="M 388.59019 238.349844 
L 397.250444 238.349844 
L 397.250444 229.68959 
L 388.59019 229.68959 
z
" style="fill:#0000ff;stroke:#0000ff;"/>
    <path clip-path="url(#p2acabaffde)" d="M 283.361628 210.789277 
L 292.021882 210.789277 
L 292.021882 202.129023 
L 283.361628 202.129023 
z
" style="fill:#0000ff;stroke:#0000ff;"/>
    <path clip-path="url(#p2acabaffde)" d="M 242.078198 161.704207 
L 250.738452 161.704207 
L 250.738452 153.043953 
L 242.078198 153.043953 
z
" style="fill:#0000ff;stroke:#0000ff;"/>
    <path clip-path="url(#p2acabaffde)" d="M 393.453987 230.660089 
L 402.114241 230.660089 
L 402.114241 221.999835 
L 393.453987 221.999835 
z
" style="fill:#0000ff;stroke:#0000ff;"/>
    <path clip-path="url(#p2acabaffde)" d="M 333.577425 197.288684 
L 342.237679 197.288684 
L 342.237679 188.62843 
L 333.577425 188.62843 
z
" style="fill:#0000ff;stroke:#0000ff;"/>
    <path clip-path="url(#p2acabaffde)" d="M 355.800375 279.835014 
L 364.460629 279.835014 
L 364.460629 271.17476 
L 355.800375 271.17476 
z
" style="fill:#0000ff;stroke:#0000ff;"/>
    <path clip-path="url(#p2acabaffde)" d="M 197.33123 208.673716 
L 205.991484 208.673716 
L 205.991484 200.013462 
L 197.33123 200.013462 
z
" style="fill:#0000ff;stroke:#0000ff;"/>
    <path clip-path="url(#p2acabaffde)" d="M 361.853716 183.415537 
L 370.51397 183.415537 
L 370.51397 174.755283 
L 361.853716 174.755283 
z
" style="fill:#0000ff;stroke:#0000ff;"/>
    <path clip-path="url(#p2acabaffde)" d="M 294.004947 236.699124 
L 302.665201 236.699124 
L 302.665201 228.03887 
L 294.004947 228.03887 
z
" style="fill:#0000ff;stroke:#0000ff;"/>
    <path clip-path="url(#p2acabaffde)" d="M 301.78147 114.738188 
C 302.929833 114.738188 304.031316 114.281939 304.843332 113.469923 
C 305.655347 112.657908 306.111597 111.556424 306.111597 110.408061 
C 306.111597 109.259698 305.655347 108.158214 304.843332 107.346199 
C 304.031316 106.534184 302.929833 106.077934 301.78147 106.077934 
C 300.633106 106.077934 299.531623 106.534184 298.719607 107.346199 
C 297.907592 108.158214 297.451342 109.259698 297.451342 110.408061 
C 297.451342 111.556424 297.907592 112.657908 298.719607 113.469923 
C 299.531623 114.281939 300.633106 114.738188 301.78147 114.738188 
z
" style="fill:#ff0000;stroke:#ff0000;"/>
    <path clip-path="url(#p2acabaffde)" d="M 347.933797 218.404596 
L 356.594051 218.404596 
L 356.594051 209.744342 
L 347.933797 209.744342 
z
" style="fill:#0000ff;stroke:#0000ff;"/>
    <path clip-path="url(#p2acabaffde)" d="M 174.444589 172.805485 
L 183.104843 172.805485 
L 183.104843 164.145231 
L 174.444589 164.145231 
z
" style="fill:#0000ff;stroke:#0000ff;"/>
    <path clip-path="url(#p2acabaffde)" d="M 150.043312 194.556843 
L 158.703566 194.556843 
L 158.703566 185.896589 
L 150.043312 185.896589 
z
" style="fill:#0000ff;stroke:#0000ff;"/>
    <path clip-path="url(#p2acabaffde)" d="M 120.626424 221.379958 
L 129.286678 221.379958 
L 129.286678 212.719704 
L 120.626424 212.719704 
z
" style="fill:#0000ff;stroke:#0000ff;"/>
    <path clip-path="url(#p2acabaffde)" d="M 204.537657 212.79269 
L 213.197911 212.79269 
L 213.197911 204.132436 
L 204.537657 204.132436 
z
" style="fill:#0000ff;stroke:#0000ff;"/>
    <path clip-path="url(#p2acabaffde)" d="M 229.524541 219.203604 
L 238.184795 219.203604 
L 238.184795 210.54335 
L 229.524541 210.54335 
z
" style="fill:#0000ff;stroke:#0000ff;"/>
    <path clip-path="url(#p2acabaffde)" d="M 275.759303 198.25409 
L 284.419557 198.25409 
L 284.419557 189.593836 
L 275.759303 189.593836 
z
" style="fill:#0000ff;stroke:#0000ff;"/>
    <path clip-path="url(#p2acabaffde)" d="M 304.829708 119.516836 
C 305.978071 119.516836 307.079555 119.060586 307.891571 118.248571 
C 308.703586 117.436556 309.159835 116.335072 309.159835 115.186709 
C 309.159835 114.038346 308.703586 112.936862 307.891571 112.124847 
C 307.079555 111.312831 305.978071 110.856582 304.829708 110.856582 
C 303.681345 110.856582 302.579862 111.312831 301.767846 112.124847 
C 300.955831 112.936862 300.499581 114.038346 300.499581 115.186709 
C 300.499581 116.335072 300.955831 117.436556 301.767846 118.248571 
C 302.579862 119.060586 303.681345 119.516836 304.829708 119.516836 
z
" style="fill:#ff0000;stroke:#ff0000;"/>
    <path clip-path="url(#p2acabaffde)" d="M 70.205759 141.353752 
L 78.866013 141.353752 
L 78.866013 132.693498 
L 70.205759 132.693498 
z
" style="fill:#0000ff;stroke:#0000ff;"/>
    <path clip-path="url(#p2acabaffde)" d="M 294.442988 250.666457 
L 303.103242 250.666457 
L 303.103242 242.006203 
L 294.442988 242.006203 
z
" style="fill:#0000ff;stroke:#0000ff;"/>
    <path clip-path="url(#p2acabaffde)" d="M 95.813748 141.168822 
L 104.474002 141.168822 
L 104.474002 132.508568 
L 95.813748 132.508568 
z
" style="fill:#0000ff;stroke:#0000ff;"/>
    <path clip-path="url(#p2acabaffde)" d="M 254.401612 189.496325 
L 263.061866 189.496325 
L 263.061866 180.836071 
L 254.401612 180.836071 
z
" style="fill:#0000ff;stroke:#0000ff;"/>
    <path clip-path="url(#p2acabaffde)" d="M 299.696996 109.526132 
C 300.84536 109.526132 301.946843 109.069883 302.758859 108.257868 
C 303.570874 107.445852 304.027123 106.344369 304.027123 105.196005 
C 304.027123 104.047642 303.570874 102.946159 302.758859 102.134143 
C 301.946843 101.322128 300.84536 100.865878 299.696996 100.865878 
C 298.548633 100.865878 297.44715 101.322128 296.635134 102.134143 
C 295.823119 102.946159 295.366869 104.047642 295.366869 105.196005 
C 295.366869 106.344369 295.823119 107.445852 296.635134 108.257868 
C 297.44715 109.069883 298.548633 109.526132 299.696996 109.526132 
z
" style="fill:#ff0000;stroke:#ff0000;"/>
    <path clip-path="url(#p2acabaffde)" d="M 149.533626 220.950332 
L 158.19388 220.950332 
L 158.19388 212.290078 
L 149.533626 212.290078 
z
" style="fill:#0000ff;stroke:#0000ff;"/>
    <path clip-path="url(#p2acabaffde)" d="M 285.446654 211.552163 
L 294.106908 211.552163 
L 294.106908 202.891909 
L 285.446654 202.891909 
z
" style="fill:#0000ff;stroke:#0000ff;"/>
    <path clip-path="url(#p2acabaffde)" d="M 345.307323 222.346043 
L 353.967577 222.346043 
L 353.967577 213.685789 
L 345.307323 213.685789 
z
" style="fill:#0000ff;stroke:#0000ff;"/>
    <path clip-path="url(#p2acabaffde)" d="M 139.335894 219.899786 
L 147.996148 219.899786 
L 147.996148 211.239532 
L 139.335894 211.239532 
z
" style="fill:#0000ff;stroke:#0000ff;"/>
    <path clip-path="url(#p2acabaffde)" d="M 115.142125 190.113873 
L 123.802379 190.113873 
L 123.802379 181.453619 
L 115.142125 181.453619 
z
" style="fill:#0000ff;stroke:#0000ff;"/>
    <path clip-path="url(#p2acabaffde)" d="M 267.067738 207.647925 
L 275.727992 207.647925 
L 275.727992 198.987671 
L 267.067738 198.987671 
z
" style="fill:#0000ff;stroke:#0000ff;"/>
    <path clip-path="url(#p2acabaffde)" d="M 363.734871 231.614995 
L 372.395125 231.614995 
L 372.395125 222.95474 
L 363.734871 222.95474 
z
" style="fill:#0000ff;stroke:#0000ff;"/>
    <path clip-path="url(#p2acabaffde)" d="M 308.850238 132.193188 
C 309.998601 132.193188 311.100084 131.736938 311.9121 130.924923 
C 312.724115 130.112908 313.180365 129.011424 313.180365 127.863061 
C 313.180365 126.714698 312.724115 125.613214 311.9121 124.801199 
C 311.100084 123.989183 309.998601 123.532934 308.850238 123.532934 
C 307.701874 123.532934 306.600391 123.989183 305.788375 124.801199 
C 304.97636 125.613214 304.520111 126.714698 304.520111 127.863061 
C 304.520111 129.011424 304.97636 130.112908 305.788375 130.924923 
C 306.600391 131.736938 307.701874 132.193188 308.850238 132.193188 
z
" style="fill:#ff0000;stroke:#ff0000;"/>
    <path clip-path="url(#p2acabaffde)" d="M 197.175111 195.138218 
L 205.835365 195.138218 
L 205.835365 186.477964 
L 197.175111 186.477964 
z
" style="fill:#0000ff;stroke:#0000ff;"/>
    <path clip-path="url(#p2acabaffde)" d="M 295.949874 218.483291 
L 304.610129 218.483291 
L 304.610129 209.823037 
L 295.949874 209.823037 
z
" style="fill:#0000ff;stroke:#0000ff;"/>
    <path clip-path="url(#p2acabaffde)" d="M 270.084253 214.373271 
L 278.744507 214.373271 
L 278.744507 205.713017 
L 270.084253 205.713017 
z
" style="fill:#0000ff;stroke:#0000ff;"/>
    <path clip-path="url(#p2acabaffde)" d="M 295.685065 95.980596 
C 296.833428 95.980596 297.934912 95.524346 298.746927 94.712331 
C 299.558942 93.900315 300.015192 92.798832 300.015192 91.650468 
C 300.015192 90.502105 299.558942 89.400622 298.746927 88.588606 
C 297.934912 87.776591 296.833428 87.320341 295.685065 87.320341 
C 294.536702 87.320341 293.435218 87.776591 292.623203 88.588606 
C 291.811187 89.400622 291.354938 90.502105 291.354938 91.650468 
C 291.354938 92.798832 291.811187 93.900315 292.623203 94.712331 
C 293.435218 95.524346 294.536702 95.980596 295.685065 95.980596 
z
" style="fill:#ff0000;stroke:#ff0000;"/>
    <path clip-path="url(#p2acabaffde)" d="M 304.638192 116.467599 
C 305.786555 116.467599 306.888038 116.011349 307.700054 115.199334 
C 308.512069 114.387318 308.968319 113.285835 308.968319 112.137472 
C 308.968319 110.989108 308.512069 109.887625 307.700054 109.075609 
C 306.888038 108.263594 305.786555 107.807344 304.638192 107.807344 
C 303.489828 107.807344 302.388345 108.263594 301.576329 109.075609 
C 300.764314 109.887625 300.308065 110.989108 300.308065 112.137472 
C 300.308065 113.285835 300.764314 114.387318 301.576329 115.199334 
C 302.388345 116.011349 303.489828 116.467599 304.638192 116.467599 
z
" style="fill:#ff0000;stroke:#ff0000;"/>
    <path clip-path="url(#p2acabaffde)" d="M 357.35381 278.647462 
L 366.014064 278.647462 
L 366.014064 269.987208 
L 357.35381 269.987208 
z
" style="fill:#0000ff;stroke:#0000ff;"/>
   </g>
   <g id="PathCollection_2">
    <path clip-path="url(#p2acabaffde)" d="M 308.483625 128.692446 
C 309.631988 128.692446 310.733472 128.236196 311.545488 127.424181 
C 312.357503 126.612166 312.813752 125.510682 312.813752 124.362319 
C 312.813752 123.213956 312.357503 122.112472 311.545488 121.300457 
C 310.733472 120.488441 309.631988 120.032192 308.483625 120.032192 
C 307.335262 120.032192 306.233779 120.488441 305.421763 121.300457 
C 304.609748 122.112472 304.153498 123.213956 304.153498 124.362319 
C 304.153498 125.510682 304.609748 126.612166 305.421763 127.424181 
C 306.233779 128.236196 307.335262 128.692446 308.483625 128.692446 
z
" style="fill:none;stroke:#ff0000;"/>
    <path clip-path="url(#p2acabaffde)" d="M 229.493169 100.173792 
C 230.641532 100.173792 231.743016 99.717543 232.555031 98.905527 
C 233.367047 98.093512 233.823296 96.992028 233.823296 95.843665 
C 233.823296 94.695302 233.367047 93.593818 232.555031 92.781803 
C 231.743016 91.969788 230.641532 91.513538 229.493169 91.513538 
C 228.344806 91.513538 227.243322 91.969788 226.431307 92.781803 
C 225.619292 93.593818 225.163042 94.695302 225.163042 95.843665 
C 225.163042 96.992028 225.619292 98.093512 226.431307 98.905527 
C 227.243322 99.717543 228.344806 100.173792 229.493169 100.173792 
z
" style="fill:none;stroke:#ff0000;"/>
    <path clip-path="url(#p2acabaffde)" d="M 310.648887 188.456408 
C 311.79725 188.456408 312.898734 188.000158 313.710749 187.188143 
C 314.522765 186.376127 314.979014 185.274644 314.979014 184.126281 
C 314.979014 182.977918 314.522765 181.876434 313.710749 181.064418 
C 312.898734 180.252403 311.79725 179.796154 310.648887 179.796154 
C 309.500524 179.796154 308.39904 180.252403 307.587025 181.064418 
C 306.77501 181.876434 306.31876 182.977918 306.31876 184.126281 
C 306.31876 185.274644 306.77501 186.376127 307.587025 187.188143 
C 308.39904 188.000158 309.500524 188.456408 310.648887 188.456408 
z
" style="fill:none;stroke:#ff0000;"/>
    <path clip-path="url(#p2acabaffde)" d="M 304.799702 117.89611 
C 305.948065 117.89611 307.049549 117.43986 307.861564 116.627845 
C 308.67358 115.81583 309.129829 114.714346 309.129829 113.565983 
C 309.129829 112.41762 308.67358 111.316136 307.861564 110.504121 
C 307.049549 109.692105 305.948065 109.235856 304.799702 109.235856 
C 303.651339 109.235856 302.549855 109.692105 301.73784 110.504121 
C 300.925825 111.316136 300.469575 112.41762 300.469575 113.565983 
C 300.469575 114.714346 300.925825 115.81583 301.73784 116.627845 
C 302.549855 117.43986 303.651339 117.89611 304.799702 117.89611 
z
" style="fill:none;stroke:#ff0000;"/>
    <path clip-path="url(#p2acabaffde)" d="M 309.030168 144.504921 
C 310.178531 144.504921 311.280015 144.048671 312.09203 143.236656 
C 312.904045 142.42464 313.360295 141.323157 313.360295 140.174794 
C 313.360295 139.02643 312.904045 137.924947 312.09203 137.112931 
C 311.280015 136.300916 310.178531 135.844667 309.030168 135.844667 
C 307.881805 135.844667 306.780321 136.300916 305.968306 137.112931 
C 305.15629 137.924947 304.700041 139.02643 304.700041 140.174794 
C 304.700041 141.323157 305.15629 142.42464 305.968306 143.236656 
C 306.780321 144.048671 307.881805 144.504921 309.030168 144.504921 
z
" style="fill:none;stroke:#ff0000;"/>
    <path clip-path="url(#p2acabaffde)" d="M 309.146763 132.216222 
C 310.295126 132.216222 311.39661 131.759972 312.208625 130.947957 
C 313.02064 130.135942 313.47689 129.034458 313.47689 127.886095 
C 313.47689 126.737732 313.02064 125.636248 312.208625 124.824233 
C 311.39661 124.012217 310.295126 123.555968 309.146763 123.555968 
C 307.9984 123.555968 306.896916 124.012217 306.084901 124.824233 
C 305.272885 125.636248 304.816636 126.737732 304.816636 127.886095 
C 304.816636 129.034458 305.272885 130.135942 306.084901 130.947957 
C 306.896916 131.759972 307.9984 132.216222 309.146763 132.216222 
z
" style="fill:none;stroke:#ff0000;"/>
    <path clip-path="url(#p2acabaffde)" d="M 302.976122 116.611015 
C 304.124485 116.611015 305.225969 116.154766 306.037984 115.34275 
C 306.85 114.530735 307.306249 113.429251 307.306249 112.280888 
C 307.306249 111.132525 306.85 110.031041 306.037984 109.219026 
C 305.225969 108.407011 304.124485 107.950761 302.976122 107.950761 
C 301.827759 107.950761 300.726275 108.407011 299.91426 109.219026 
C 299.102245 110.031041 298.645995 111.132525 298.645995 112.280888 
C 298.645995 113.429251 299.102245 114.530735 299.91426 115.34275 
C 300.726275 116.154766 301.827759 116.611015 302.976122 116.611015 
z
" style="fill:none;stroke:#ff0000;"/>
    <path clip-path="url(#p2acabaffde)" d="M 300.544979 111.646443 
C 301.693342 111.646443 302.794825 111.190193 303.606841 110.378178 
C 304.418856 109.566163 304.875106 108.464679 304.875106 107.316316 
C 304.875106 106.167953 304.418856 105.066469 303.606841 104.254454 
C 302.794825 103.442438 301.693342 102.986189 300.544979 102.986189 
C 299.396615 102.986189 298.295132 103.442438 297.483116 104.254454 
C 296.671101 105.066469 296.214851 106.167953 296.214851 107.316316 
C 296.214851 108.464679 296.671101 109.566163 297.483116 110.378178 
C 298.295132 111.190193 299.396615 111.646443 300.544979 111.646443 
z
" style="fill:none;stroke:#ff0000;"/>
    <path clip-path="url(#p2acabaffde)" d="M 304.64374 116.555938 
C 305.792103 116.555938 306.893587 116.099689 307.705602 115.287673 
C 308.517618 114.475658 308.973867 113.374174 308.973867 112.225811 
C 308.973867 111.077448 308.517618 109.975964 307.705602 109.163949 
C 306.893587 108.351934 305.792103 107.895684 304.64374 107.895684 
C 303.495377 107.895684 302.393893 108.351934 301.581878 109.163949 
C 300.769863 109.975964 300.313613 111.077448 300.313613 112.225811 
C 300.313613 113.374174 300.769863 114.475658 301.581878 115.287673 
C 302.393893 116.099689 303.495377 116.555938 304.64374 116.555938 
z
" style="fill:none;stroke:#ff0000;"/>
    <path clip-path="url(#p2acabaffde)" d="M 207.556715 138.545686 
C 208.705078 138.545686 209.806562 138.089437 210.618577 137.277421 
C 211.430593 136.465406 211.886842 135.363922 211.886842 134.215559 
C 211.886842 133.067196 211.430593 131.965712 210.618577 131.153697 
C 209.806562 130.341682 208.705078 129.885432 207.556715 129.885432 
C 206.408352 129.885432 205.306868 130.341682 204.494853 131.153697 
C 203.682838 131.965712 203.226588 133.067196 203.226588 134.215559 
C 203.226588 135.363922 203.682838 136.465406 204.494853 137.277421 
C 205.306868 138.089437 206.408352 138.545686 207.556715 138.545686 
z
" style="fill:none;stroke:#ff0000;"/>
    <path clip-path="url(#p2acabaffde)" d="M 299.111788 107.550286 
C 300.260151 107.550286 301.361635 107.094036 302.17365 106.282021 
C 302.985666 105.470006 303.441915 104.368522 303.441915 103.220159 
C 303.441915 102.071796 302.985666 100.970312 302.17365 100.158297 
C 301.361635 99.346281 300.260151 98.890032 299.111788 98.890032 
C 297.963425 98.890032 296.861941 99.346281 296.049926 100.158297 
C 295.237911 100.970312 294.781661 102.071796 294.781661 103.220159 
C 294.781661 104.368522 295.237911 105.470006 296.049926 106.282021 
C 296.861941 107.094036 297.963425 107.550286 299.111788 107.550286 
z
" style="fill:none;stroke:#ff0000;"/>
    <path clip-path="url(#p2acabaffde)" d="M 310.580298 133.983938 
C 311.728661 133.983938 312.830144 133.527688 313.64216 132.715673 
C 314.454175 131.903658 314.910425 130.802174 314.910425 129.653811 
C 314.910425 128.505448 314.454175 127.403964 313.64216 126.591949 
C 312.830144 125.779933 311.728661 125.323684 310.580298 125.323684 
C 309.431935 125.323684 308.330451 125.779933 307.518435 126.591949 
C 306.70642 127.403964 306.250171 128.505448 306.250171 129.653811 
C 306.250171 130.802174 306.70642 131.903658 307.518435 132.715673 
C 308.330451 133.527688 309.431935 133.983938 310.580298 133.983938 
z
" style="fill:none;stroke:#ff0000;"/>
    <path clip-path="url(#p2acabaffde)" d="M 300.30563 111.047971 
C 301.453993 111.047971 302.555477 110.591721 303.367492 109.779706 
C 304.179507 108.967691 304.635757 107.866207 304.635757 106.717844 
C 304.635757 105.569481 304.179507 104.467997 303.367492 103.655981 
C 302.555477 102.843966 301.453993 102.387717 300.30563 102.387717 
C 299.157267 102.387717 298.055783 102.843966 297.243768 103.655981 
C 296.431752 104.467997 295.975503 105.569481 295.975503 106.717844 
C 295.975503 107.866207 296.431752 108.967691 297.243768 109.779706 
C 298.055783 110.591721 299.157267 111.047971 300.30563 111.047971 
z
" style="fill:none;stroke:#ff0000;"/>
    <path clip-path="url(#p2acabaffde)" d="M 225.429819 144.853906 
C 226.578182 144.853906 227.679666 144.397656 228.491681 143.585641 
C 229.303697 142.773625 229.759946 141.672142 229.759946 140.523779 
C 229.759946 139.375415 229.303697 138.273932 228.491681 137.461916 
C 227.679666 136.649901 226.578182 136.193651 225.429819 136.193651 
C 224.281456 136.193651 223.179972 136.649901 222.367957 137.461916 
C 221.555941 138.273932 221.099692 139.375415 221.099692 140.523779 
C 221.099692 141.672142 221.555941 142.773625 222.367957 143.585641 
C 223.179972 144.397656 224.281456 144.853906 225.429819 144.853906 
z
" style="fill:none;stroke:#ff0000;"/>
    <path clip-path="url(#p2acabaffde)" d="M 204.741662 100.098614 
C 205.890025 100.098614 206.991508 99.642365 207.803524 98.830349 
C 208.615539 98.018334 209.071789 96.91685 209.071789 95.768487 
C 209.071789 94.620124 208.615539 93.51864 207.803524 92.706625 
C 206.991508 91.89461 205.890025 91.43836 204.741662 91.43836 
C 203.593299 91.43836 202.491815 91.89461 201.679799 92.706625 
C 200.867784 93.51864 200.411535 94.620124 200.411535 95.768487 
C 200.411535 96.91685 200.867784 98.018334 201.679799 98.830349 
C 202.491815 99.642365 203.593299 100.098614 204.741662 100.098614 
z
" style="fill:none;stroke:#ff0000;"/>
    <path clip-path="url(#p2acabaffde)" d="M 304.648617 116.559804 
C 305.79698 116.559804 306.898463 116.103555 307.710479 115.291539 
C 308.522494 114.479524 308.978744 113.37804 308.978744 112.229677 
C 308.978744 111.081314 308.522494 109.97983 307.710479 109.167815 
C 306.898463 108.3558 305.79698 107.89955 304.648617 107.89955 
C 303.500253 107.89955 302.39877 108.3558 301.586754 109.167815 
C 300.774739 109.97983 300.31849 111.081314 300.31849 112.229677 
C 300.31849 113.37804 300.774739 114.479524 301.586754 115.291539 
C 302.39877 116.103555 303.500253 116.559804 304.648617 116.559804 
z
" style="fill:none;stroke:#ff0000;"/>
    <path clip-path="url(#p2acabaffde)" d="M 190.084283 86.930217 
C 191.232646 86.930217 192.33413 86.473967 193.146145 85.661952 
C 193.958161 84.849937 194.41441 83.748453 194.41441 82.60009 
C 194.41441 81.451727 193.958161 80.350243 193.146145 79.538228 
C 192.33413 78.726212 191.232646 78.269963 190.084283 78.269963 
C 188.93592 78.269963 187.834436 78.726212 187.022421 79.538228 
C 186.210406 80.350243 185.754156 81.451727 185.754156 82.60009 
C 185.754156 83.748453 186.210406 84.849937 187.022421 85.661952 
C 187.834436 86.473967 188.93592 86.930217 190.084283 86.930217 
z
" style="fill:none;stroke:#ff0000;"/>
    <path clip-path="url(#p2acabaffde)" d="M 302.904421 116.498612 
C 304.052785 116.498612 305.154268 116.042362 305.966284 115.230347 
C 306.778299 114.418332 307.234548 113.316848 307.234548 112.168485 
C 307.234548 111.020122 306.778299 109.918638 305.966284 109.106623 
C 305.154268 108.294607 304.052785 107.838358 302.904421 107.838358 
C 301.756058 107.838358 300.654575 108.294607 299.842559 109.106623 
C 299.030544 109.918638 298.574294 111.020122 298.574294 112.168485 
C 298.574294 113.316848 299.030544 114.418332 299.842559 115.230347 
C 300.654575 116.042362 301.756058 116.498612 302.904421 116.498612 
z
" style="fill:none;stroke:#ff0000;"/>
    <path clip-path="url(#p2acabaffde)" d="M 302.720395 116.534448 
C 303.868758 116.534448 304.970242 116.078198 305.782257 115.266183 
C 306.594273 114.454167 307.050522 113.352684 307.050522 112.204321 
C 307.050522 111.055957 306.594273 109.954474 305.782257 109.142458 
C 304.970242 108.330443 303.868758 107.874194 302.720395 107.874194 
C 301.572032 107.874194 300.470548 108.330443 299.658533 109.142458 
C 298.846518 109.954474 298.390268 111.055957 298.390268 112.204321 
C 298.390268 113.352684 298.846518 114.454167 299.658533 115.266183 
C 300.470548 116.078198 301.572032 116.534448 302.720395 116.534448 
z
" style="fill:none;stroke:#ff0000;"/>
    <path clip-path="url(#p2acabaffde)" d="M 241.457597 141.455503 
C 242.60596 141.455503 243.707444 140.999253 244.519459 140.187238 
C 245.331474 139.375223 245.787724 138.273739 245.787724 137.125376 
C 245.787724 135.977013 245.331474 134.875529 244.519459 134.063514 
C 243.707444 133.251498 242.60596 132.795249 241.457597 132.795249 
C 240.309234 132.795249 239.20775 133.251498 238.395735 134.063514 
C 237.583719 134.875529 237.12747 135.977013 237.12747 137.125376 
C 237.12747 138.273739 237.583719 139.375223 238.395735 140.187238 
C 239.20775 140.999253 240.309234 141.455503 241.457597 141.455503 
z
" style="fill:none;stroke:#ff0000;"/>
    <path clip-path="url(#p2acabaffde)" d="M 306.200398 225.3911 
C 307.348761 225.3911 308.450245 224.93485 309.26226 224.122835 
C 310.074275 223.31082 310.530525 222.209336 310.530525 221.060973 
C 310.530525 219.91261 310.074275 218.811126 309.26226 217.999111 
C 308.450245 217.187095 307.348761 216.730846 306.200398 216.730846 
C 305.052035 216.730846 303.950551 217.187095 303.138536 217.999111 
C 302.32652 218.811126 301.870271 219.91261 301.870271 221.060973 
C 301.870271 222.209336 302.32652 223.31082 303.138536 224.122835 
C 303.950551 224.93485 305.052035 225.3911 306.200398 225.3911 
z
" style="fill:none;stroke:#ff0000;"/>
    <path clip-path="url(#p2acabaffde)" d="M 299.297546 108.621183 
C 300.445909 108.621183 301.547393 108.164933 302.359409 107.352918 
C 303.171424 106.540903 303.627673 105.439419 303.627673 104.291056 
C 303.627673 103.142693 303.171424 102.041209 302.359409 101.229194 
C 301.547393 100.417178 300.445909 99.960929 299.297546 99.960929 
C 298.149183 99.960929 297.0477 100.417178 296.235684 101.229194 
C 295.423669 102.041209 294.967419 103.142693 294.967419 104.291056 
C 294.967419 105.439419 295.423669 106.540903 296.235684 107.352918 
C 297.0477 108.164933 298.149183 108.621183 299.297546 108.621183 
z
" style="fill:none;stroke:#ff0000;"/>
    <path clip-path="url(#p2acabaffde)" d="M 303.24245 117.02853 
C 304.390813 117.02853 305.492296 116.572281 306.304312 115.760265 
C 307.116327 114.94825 307.572577 113.846766 307.572577 112.698403 
C 307.572577 111.55004 307.116327 110.448556 306.304312 109.636541 
C 305.492296 108.824526 304.390813 108.368276 303.24245 108.368276 
C 302.094086 108.368276 300.992603 108.824526 300.180587 109.636541 
C 299.368572 110.448556 298.912323 111.55004 298.912323 112.698403 
C 298.912323 113.846766 299.368572 114.94825 300.180587 115.760265 
C 300.992603 116.572281 302.094086 117.02853 303.24245 117.02853 
z
" style="fill:none;stroke:#ff0000;"/>
    <path clip-path="url(#p2acabaffde)" d="M 303.664609 96.302226 
C 304.812972 96.302226 305.914455 95.845976 306.726471 95.033961 
C 307.538486 94.221946 307.994736 93.120462 307.994736 91.972099 
C 307.994736 90.823736 307.538486 89.722252 306.726471 88.910236 
C 305.914455 88.098221 304.812972 87.641972 303.664609 87.641972 
C 302.516245 87.641972 301.414762 88.098221 300.602746 88.910236 
C 299.790731 89.722252 299.334482 90.823736 299.334482 91.972099 
C 299.334482 93.120462 299.790731 94.221946 300.602746 95.033961 
C 301.414762 95.845976 302.516245 96.302226 303.664609 96.302226 
z
" style="fill:none;stroke:#ff0000;"/>
    <path clip-path="url(#p2acabaffde)" d="M 169.747032 74.570143 
C 170.895395 74.570143 171.996879 74.113894 172.808894 73.301878 
C 173.62091 72.489863 174.077159 71.388379 174.077159 70.240016 
C 174.077159 69.091653 173.62091 67.990169 172.808894 67.178154 
C 171.996879 66.366139 170.895395 65.909889 169.747032 65.909889 
C 168.598669 65.909889 167.497185 66.366139 166.68517 67.178154 
C 165.873154 67.990169 165.416905 69.091653 165.416905 70.240016 
C 165.416905 71.388379 165.873154 72.489863 166.68517 73.301878 
C 167.497185 74.113894 168.598669 74.570143 169.747032 74.570143 
z
" style="fill:none;stroke:#ff0000;"/>
    <path clip-path="url(#p2acabaffde)" d="M 304.797071 117.872837 
C 305.945434 117.872837 307.046918 117.416588 307.858933 116.604572 
C 308.670949 115.792557 309.127198 114.691073 309.127198 113.54271 
C 309.127198 112.394347 308.670949 111.292863 307.858933 110.480848 
C 307.046918 109.668833 305.945434 109.212583 304.797071 109.212583 
C 303.648708 109.212583 302.547224 109.668833 301.735209 110.480848 
C 300.923193 111.292863 300.466944 112.394347 300.466944 113.54271 
C 300.466944 114.691073 300.923193 115.792557 301.735209 116.604572 
C 302.547224 117.416588 303.648708 117.872837 304.797071 117.872837 
z
" style="fill:none;stroke:#ff0000;"/>
    <path clip-path="url(#p2acabaffde)" d="M 308.82396 129.118221 
C 309.972323 129.118221 311.073807 128.661972 311.885822 127.849956 
C 312.697837 127.037941 313.154087 125.936457 313.154087 124.788094 
C 313.154087 123.639731 312.697837 122.538247 311.885822 121.726232 
C 311.073807 120.914217 309.972323 120.457967 308.82396 120.457967 
C 307.675597 120.457967 306.574113 120.914217 305.762098 121.726232 
C 304.950082 122.538247 304.493833 123.639731 304.493833 124.788094 
C 304.493833 125.936457 304.950082 127.037941 305.762098 127.849956 
C 306.574113 128.661972 307.675597 129.118221 308.82396 129.118221 
z
" style="fill:none;stroke:#ff0000;"/>
    <path clip-path="url(#p2acabaffde)" d="M 167.500592 86.565333 
C 168.648955 86.565333 169.750439 86.109084 170.562454 85.297069 
C 171.374469 84.485053 171.830719 83.38357 171.830719 82.235206 
C 171.830719 81.086843 171.374469 79.98536 170.562454 79.173344 
C 169.750439 78.361329 168.648955 77.905079 167.500592 77.905079 
C 166.352229 77.905079 165.250745 78.361329 164.43873 79.173344 
C 163.626714 79.98536 163.170465 81.086843 163.170465 82.235206 
C 163.170465 83.38357 163.626714 84.485053 164.43873 85.297069 
C 165.250745 86.109084 166.352229 86.565333 167.500592 86.565333 
z
" style="fill:none;stroke:#ff0000;"/>
    <path clip-path="url(#p2acabaffde)" d="M 307.178562 129.060665 
C 308.326925 129.060665 309.428408 128.604415 310.240424 127.7924 
C 311.052439 126.980385 311.508689 125.878901 311.508689 124.730538 
C 311.508689 123.582175 311.052439 122.480691 310.240424 121.668676 
C 309.428408 120.85666 308.326925 120.400411 307.178562 120.400411 
C 306.030198 120.400411 304.928715 120.85666 304.116699 121.668676 
C 303.304684 122.480691 302.848434 123.582175 302.848434 124.730538 
C 302.848434 125.878901 303.304684 126.980385 304.116699 127.7924 
C 304.928715 128.604415 306.030198 129.060665 307.178562 129.060665 
z
" style="fill:none;stroke:#ff0000;"/>
    <path clip-path="url(#p2acabaffde)" d="M 206.381876 167.965079 
C 207.53024 167.965079 208.631723 167.50883 209.443739 166.696814 
C 210.255754 165.884799 210.712003 164.783315 210.712003 163.634952 
C 210.712003 162.486589 210.255754 161.385105 209.443739 160.57309 
C 208.631723 159.761075 207.53024 159.304825 206.381876 159.304825 
C 205.233513 159.304825 204.13203 159.761075 203.320014 160.57309 
C 202.507999 161.385105 202.051749 162.486589 202.051749 163.634952 
C 202.051749 164.783315 202.507999 165.884799 203.320014 166.696814 
C 204.13203 167.50883 205.233513 167.965079 206.381876 167.965079 
z
" style="fill:none;stroke:#ff0000;"/>
   </g>
  </g>
 </g>
 <defs>
  <clipPath id="p2acabaffde">
   <rect height="266.112" width="357.12" x="57.6" y="41.472"/>
  </clipPath>
 </defs>
</svg>
