<?xml version="1.0" encoding="utf-8" standalone="no"?>
<!DOCTYPE svg PUBLIC "-//W3C//DTD SVG 1.1//EN"
  "http://www.w3.org/Graphics/SVG/1.1/DTD/svg11.dtd">
<!-- Created with matplotlib (http://matplotlib.org/) -->
<svg height="345pt" version="1.1" viewBox="0 0 460 345" width="460pt" xmlns="http://www.w3.org/2000/svg" xmlns:xlink="http://www.w3.org/1999/xlink">
 <defs>
  <style type="text/css">
*{stroke-linecap:butt;stroke-linejoin:round;}
  </style>
 </defs>
 <g id="figure_1">
  <g id="patch_1">
   <path d="M 0 345.6 
L 460.8 345.6 
L 460.8 0 
L 0 0 
z
" style="fill:#ffffff;"/>
  </g>
  <g id="axes_1">
   <g id="PathCollection_1">
    <path clip-path="url(#pee82911a6e)" d="M 262.900628 172.303714 
L 271.560882 172.303714 
L 271.560882 163.64346 
L 262.900628 163.64346 
z
" style="fill:#0000ff;stroke:#0000ff;"/>
    <path clip-path="url(#pee82911a6e)" d="M 296.332814 210.418588 
L 304.993068 210.418588 
L 304.993068 201.758334 
L 296.332814 201.758334 
z
" style="fill:#0000ff;stroke:#0000ff;"/>
    <path clip-path="url(#pee82911a6e)" d="M 280.824183 119.516836 
C 281.972546 119.516836 283.07403 119.060586 283.886045 118.248571 
C 284.698061 117.436556 285.15431 116.335072 285.15431 115.186709 
C 285.15431 114.038346 284.698061 112.936862 283.886045 112.124847 
C 283.07403 111.312831 281.972546 110.856582 280.824183 110.856582 
C 279.67582 110.856582 278.574336 111.312831 277.762321 112.124847 
C 276.950306 112.936862 276.494056 114.038346 276.494056 115.186709 
C 276.494056 116.335072 276.950306 117.436556 277.762321 118.248571 
C 278.574336 119.060586 279.67582 119.516836 280.824183 119.516836 
z
" style="fill:#ff0000;stroke:#ff0000;"/>
    <path clip-path="url(#pee82911a6e)" d="M 336.222876 245.500314 
L 344.88313 245.500314 
L 344.88313 236.84006 
L 336.222876 236.84006 
z
" style="fill:#0000ff;stroke:#0000ff;"/>
    <path clip-path="url(#pee82911a6e)" d="M 287.228538 238.754993 
L 295.888792 238.754993 
L 295.888792 230.094739 
L 287.228538 230.094739 
z
" style="fill:#0000ff;stroke:#0000ff;"/>
    <path clip-path="url(#pee82911a6e)" d="M 305.126205 197.288684 
L 313.786459 197.288684 
L 313.786459 188.62843 
L 305.126205 188.62843 
z
" style="fill:#0000ff;stroke:#0000ff;"/>
    <path clip-path="url(#pee82911a6e)" d="M 182.538578 152.598371 
L 191.198832 152.598371 
L 191.198832 143.938117 
L 182.538578 143.938117 
z
" style="fill:#0000ff;stroke:#0000ff;"/>
    <path clip-path="url(#pee82911a6e)" d="M 214.624373 205.065869 
L 223.284627 205.065869 
L 223.284627 196.405615 
L 214.624373 196.405615 
z
" style="fill:#0000ff;stroke:#0000ff;"/>
    <path clip-path="url(#pee82911a6e)" d="M 272.908589 95.980596 
C 274.056952 95.980596 275.158435 95.524346 275.970451 94.712331 
C 276.782466 93.900315 277.238716 92.798832 277.238716 91.650468 
C 277.238716 90.502105 276.782466 89.400622 275.970451 88.588606 
C 275.158435 87.776591 274.056952 87.320341 272.908589 87.320341 
C 271.760225 87.320341 270.658742 87.776591 269.846726 88.588606 
C 269.034711 89.400622 268.578462 90.502105 268.578462 91.650468 
C 268.578462 92.798832 269.034711 93.900315 269.846726 94.712331 
C 270.658742 95.524346 271.760225 95.980596 272.908589 95.980596 
z
" style="fill:#ff0000;stroke:#ff0000;"/>
    <path clip-path="url(#pee82911a6e)" d="M 203.30539 202.273108 
L 211.965644 202.273108 
L 211.965644 193.612854 
L 203.30539 193.612854 
z
" style="fill:#0000ff;stroke:#0000ff;"/>
    <path clip-path="url(#pee82911a6e)" d="M 351.706175 298.710882 
L 360.366429 298.710882 
L 360.366429 290.050627 
L 351.706175 290.050627 
z
" style="fill:#0000ff;stroke:#0000ff;"/>
    <path clip-path="url(#pee82911a6e)" d="M 183.562956 235.460686 
L 192.22321 235.460686 
L 192.22321 226.800432 
L 183.562956 226.800432 
z
" style="fill:#0000ff;stroke:#0000ff;"/>
    <path clip-path="url(#pee82911a6e)" d="M 145.818073 220.950332 
L 154.478327 220.950332 
L 154.478327 212.290078 
L 145.818073 212.290078 
z
" style="fill:#0000ff;stroke:#0000ff;"/>
    <path clip-path="url(#pee82911a6e)" d="M 198.838046 142.94989 
L 207.4983 142.94989 
L 207.4983 134.289636 
L 198.838046 134.289636 
z
" style="fill:#0000ff;stroke:#0000ff;"/>
    <path clip-path="url(#pee82911a6e)" d="M 250.166578 214.373271 
L 258.826832 214.373271 
L 258.826832 205.713017 
L 250.166578 205.713017 
z
" style="fill:#0000ff;stroke:#0000ff;"/>
    <path clip-path="url(#pee82911a6e)" d="M 275.395992 106.947302 
C 276.544355 106.947302 277.645838 106.491052 278.457854 105.679037 
C 279.269869 104.867021 279.726119 103.765538 279.726119 102.617175 
C 279.726119 101.468811 279.269869 100.367328 278.457854 99.555312 
C 277.645838 98.743297 276.544355 98.287047 275.395992 98.287047 
C 274.247628 98.287047 273.146145 98.743297 272.334129 99.555312 
C 271.522114 100.367328 271.065865 101.468811 271.065865 102.617175 
C 271.065865 103.765538 271.522114 104.867021 272.334129 105.679037 
C 273.146145 106.491052 274.247628 106.947302 275.395992 106.947302 
z
" style="fill:#ff0000;stroke:#ff0000;"/>
    <path clip-path="url(#pee82911a6e)" d="M 143.96147 177.890087 
L 152.621724 177.890087 
L 152.621724 169.229833 
L 143.96147 169.229833 
z
" style="fill:#0000ff;stroke:#0000ff;"/>
    <path clip-path="url(#pee82911a6e)" d="M 77.151948 141.353752 
L 85.812202 141.353752 
L 85.812202 132.693498 
L 77.151948 132.693498 
z
" style="fill:#0000ff;stroke:#0000ff;"/>
    <path clip-path="url(#pee82911a6e)" d="M 193.472185 90.318959 
C 194.620548 90.318959 195.722031 89.862709 196.534047 89.050694 
C 197.346062 88.238679 197.802312 87.137195 197.802312 85.988832 
C 197.802312 84.840469 197.346062 83.738985 196.534047 82.92697 
C 195.722031 82.114954 194.620548 81.658705 193.472185 81.658705 
C 192.323822 81.658705 191.222338 82.114954 190.410322 82.92697 
C 189.598307 83.738985 189.142058 84.840469 189.142058 85.988832 
C 189.142058 87.137195 189.598307 88.238679 190.410322 89.050694 
C 191.222338 89.862709 192.323822 90.318959 193.472185 90.318959 
z
" style="fill:#ff0000;stroke:#ff0000;"/>
    <path clip-path="url(#pee82911a6e)" d="M 315.279593 222.346043 
L 323.939847 222.346043 
L 323.939847 213.685789 
L 315.279593 213.685789 
z
" style="fill:#0000ff;stroke:#0000ff;"/>
    <path clip-path="url(#pee82911a6e)" d="M 236.591698 189.496325 
L 245.251953 189.496325 
L 245.251953 180.836071 
L 236.591698 180.836071 
z
" style="fill:#0000ff;stroke:#0000ff;"/>
    <path clip-path="url(#pee82911a6e)" d="M 159.344223 200.130316 
L 168.004477 200.130316 
L 168.004477 191.470062 
L 159.344223 191.470062 
z
" style="fill:#0000ff;stroke:#0000ff;"/>
    <path clip-path="url(#pee82911a6e)" d="M 199.041141 235.688794 
L 207.701395 235.688794 
L 207.701395 227.02854 
L 199.041141 227.02854 
z
" style="fill:#0000ff;stroke:#0000ff;"/>
    <path clip-path="url(#pee82911a6e)" d="M 116.048822 190.113873 
L 124.709076 190.113873 
L 124.709076 181.453619 
L 116.048822 181.453619 
z
" style="fill:#0000ff;stroke:#0000ff;"/>
    <path clip-path="url(#pee82911a6e)" d="M 249.29074 231.757772 
L 257.950994 231.757772 
L 257.950994 223.097518 
L 249.29074 223.097518 
z
" style="fill:#0000ff;stroke:#0000ff;"/>
    <path clip-path="url(#pee82911a6e)" d="M 147.421797 220.430222 
L 156.082051 220.430222 
L 156.082051 211.769968 
L 147.421797 211.769968 
z
" style="fill:#0000ff;stroke:#0000ff;"/>
    <path clip-path="url(#pee82911a6e)" d="M 194.944019 189.671351 
L 203.604273 189.671351 
L 203.604273 181.011097 
L 194.944019 181.011097 
z
" style="fill:#0000ff;stroke:#0000ff;"/>
    <path clip-path="url(#pee82911a6e)" d="M 285.540296 229.893984 
C 286.688659 229.893984 287.790143 229.437735 288.602158 228.625719 
C 289.414174 227.813704 289.870423 226.71222 289.870423 225.563857 
C 289.870423 224.415494 289.414174 223.31401 288.602158 222.501995 
C 287.790143 221.68998 286.688659 221.23373 285.540296 221.23373 
C 284.391933 221.23373 283.290449 221.68998 282.478434 222.501995 
C 281.666419 223.31401 281.210169 224.415494 281.210169 225.563857 
C 281.210169 226.71222 281.666419 227.813704 282.478434 228.625719 
C 283.290449 229.437735 284.391933 229.893984 285.540296 229.893984 
z
" style="fill:#ff0000;stroke:#ff0000;"/>
    <path clip-path="url(#pee82911a6e)" d="M 225.924564 161.704207 
L 234.584818 161.704207 
L 234.584818 153.043953 
L 225.924564 153.043953 
z
" style="fill:#0000ff;stroke:#0000ff;"/>
    <path clip-path="url(#pee82911a6e)" d="M 255.078895 198.25409 
L 263.739149 198.25409 
L 263.739149 189.593836 
L 255.078895 189.593836 
z
" style="fill:#0000ff;stroke:#0000ff;"/>
    <path clip-path="url(#pee82911a6e)" d="M 199.75566 265.975827 
L 208.415914 265.975827 
L 208.415914 257.315573 
L 199.75566 257.315573 
z
" style="fill:#0000ff;stroke:#0000ff;"/>
    <path clip-path="url(#pee82911a6e)" d="M 157.020689 220.186847 
L 165.680943 220.186847 
L 165.680943 211.526593 
L 157.020689 211.526593 
z
" style="fill:#0000ff;stroke:#0000ff;"/>
    <path clip-path="url(#pee82911a6e)" d="M 136.990925 219.899786 
L 145.651179 219.899786 
L 145.651179 211.239532 
L 136.990925 211.239532 
z
" style="fill:#0000ff;stroke:#0000ff;"/>
    <path clip-path="url(#pee82911a6e)" d="M 266.733851 201.681819 
L 275.394105 201.681819 
L 275.394105 193.021565 
L 266.733851 193.021565 
z
" style="fill:#0000ff;stroke:#0000ff;"/>
    <path clip-path="url(#pee82911a6e)" d="M 177.955086 238.960181 
L 186.61534 238.960181 
L 186.61534 230.299927 
L 177.955086 230.299927 
z
" style="fill:#0000ff;stroke:#0000ff;"/>
    <path clip-path="url(#pee82911a6e)" d="M 187.191632 208.673716 
L 195.851886 208.673716 
L 195.851886 200.013462 
L 187.191632 200.013462 
z
" style="fill:#0000ff;stroke:#0000ff;"/>
    <path clip-path="url(#pee82911a6e)" d="M 277.738126 229.132946 
L 286.39838 229.132946 
L 286.39838 220.472692 
L 277.738126 220.472692 
z
" style="fill:#0000ff;stroke:#0000ff;"/>
    <path clip-path="url(#pee82911a6e)" d="M 393.548492 289.294487 
L 402.208746 289.294487 
L 402.208746 280.634233 
L 393.548492 280.634233 
z
" style="fill:#0000ff;stroke:#0000ff;"/>
    <path clip-path="url(#pee82911a6e)" d="M 140.55595 233.0553 
L 149.216205 233.0553 
L 149.216205 224.395046 
L 140.55595 224.395046 
z
" style="fill:#0000ff;stroke:#0000ff;"/>
    <path clip-path="url(#pee82911a6e)" d="M 268.974777 216.796475 
L 277.635031 216.796475 
L 277.635031 208.136221 
L 268.974777 208.136221 
z
" style="fill:#0000ff;stroke:#0000ff;"/>
    <path clip-path="url(#pee82911a6e)" d="M 280.658406 116.467599 
C 281.806769 116.467599 282.908253 116.011349 283.720268 115.199334 
C 284.532284 114.387318 284.988533 113.285835 284.988533 112.137472 
C 284.988533 110.989108 284.532284 109.887625 283.720268 109.075609 
C 282.908253 108.263594 281.806769 107.807344 280.658406 107.807344 
C 279.510043 107.807344 278.408559 108.263594 277.596544 109.075609 
C 276.784529 109.887625 276.328279 110.989108 276.328279 112.137472 
C 276.328279 113.285835 276.784529 114.387318 277.596544 115.199334 
C 278.408559 116.011349 279.510043 116.467599 280.658406 116.467599 
z
" style="fill:#ff0000;stroke:#ff0000;"/>
    <path clip-path="url(#pee82911a6e)" d="M 352.745201 238.349844 
L 361.405455 238.349844 
L 361.405455 229.68959 
L 352.745201 229.68959 
z
" style="fill:#0000ff;stroke:#0000ff;"/>
    <path clip-path="url(#pee82911a6e)" d="M 281.124922 121.234453 
C 282.273285 121.234453 283.374769 120.778203 284.186784 119.966188 
C 284.998799 119.154172 285.455049 118.052689 285.455049 116.904326 
C 285.455049 115.755962 284.998799 114.654479 284.186784 113.842463 
C 283.374769 113.030448 282.273285 112.574198 281.124922 112.574198 
C 279.976559 112.574198 278.875075 113.030448 278.06306 113.842463 
C 277.251044 114.654479 276.794795 115.755962 276.794795 116.904326 
C 276.794795 118.052689 277.251044 119.154172 278.06306 119.966188 
C 278.875075 120.778203 279.976559 121.234453 281.124922 121.234453 
z
" style="fill:#ff0000;stroke:#ff0000;"/>
    <path clip-path="url(#pee82911a6e)" d="M 215.05813 219.203604 
L 223.718384 219.203604 
L 223.718384 210.54335 
L 215.05813 210.54335 
z
" style="fill:#0000ff;stroke:#0000ff;"/>
    <path clip-path="url(#pee82911a6e)" d="M 120.796026 221.379958 
L 129.45628 221.379958 
L 129.45628 212.719704 
L 120.796026 212.719704 
z
" style="fill:#0000ff;stroke:#0000ff;"/>
    <path clip-path="url(#pee82911a6e)" d="M 316.417244 217.785646 
L 325.077498 217.785646 
L 325.077498 209.125392 
L 316.417244 209.125392 
z
" style="fill:#0000ff;stroke:#0000ff;"/>
    <path clip-path="url(#pee82911a6e)" d="M 230.597982 106.843616 
C 231.746345 106.843616 232.847828 106.387367 233.659844 105.575352 
C 234.471859 104.763336 234.928109 103.661853 234.928109 102.513489 
C 234.928109 101.365126 234.471859 100.263643 233.659844 99.451627 
C 232.847828 98.639612 231.746345 98.183362 230.597982 98.183362 
C 229.449618 98.183362 228.348135 98.639612 227.536119 99.451627 
C 226.724104 100.263643 226.267855 101.365126 226.267855 102.513489 
C 226.267855 103.661853 226.724104 104.763336 227.536119 105.575352 
C 228.348135 106.387367 229.449618 106.843616 230.597982 106.843616 
z
" style="fill:#ff0000;stroke:#ff0000;"/>
    <path clip-path="url(#pee82911a6e)" d="M 242.834514 235.088293 
L 251.494768 235.088293 
L 251.494768 226.428039 
L 242.834514 226.428039 
z
" style="fill:#0000ff;stroke:#0000ff;"/>
    <path clip-path="url(#pee82911a6e)" d="M 326.892595 224.223445 
L 335.552849 224.223445 
L 335.552849 215.563191 
L 326.892595 215.563191 
z
" style="fill:#0000ff;stroke:#0000ff;"/>
    <path clip-path="url(#pee82911a6e)" d="M 275.50033 176.111891 
L 284.160584 176.111891 
L 284.160584 167.451637 
L 275.50033 167.451637 
z
" style="fill:#0000ff;stroke:#0000ff;"/>
    <path clip-path="url(#pee82911a6e)" d="M 322.333819 247.039194 
L 330.994073 247.039194 
L 330.994073 238.37894 
L 322.333819 238.37894 
z
" style="fill:#0000ff;stroke:#0000ff;"/>
    <path clip-path="url(#pee82911a6e)" d="M 270.872307 236.699124 
L 279.532561 236.699124 
L 279.532561 228.03887 
L 270.872307 228.03887 
z
" style="fill:#0000ff;stroke:#0000ff;"/>
    <path clip-path="url(#pee82911a6e)" d="M 271.251475 250.666457 
L 279.911729 250.666457 
L 279.911729 242.006203 
L 271.251475 242.006203 
z
" style="fill:#0000ff;stroke:#0000ff;"/>
    <path clip-path="url(#pee82911a6e)" d="M 324.362369 279.835014 
L 333.022623 279.835014 
L 333.022623 271.17476 
L 324.362369 271.17476 
z
" style="fill:#0000ff;stroke:#0000ff;"/>
    <path clip-path="url(#pee82911a6e)" d="M 356.955299 230.660089 
L 365.615553 230.660089 
L 365.615553 221.999835 
L 356.955299 221.999835 
z
" style="fill:#0000ff;stroke:#0000ff;"/>
    <path clip-path="url(#pee82911a6e)" d="M 230.180315 205.206571 
L 238.840569 205.206571 
L 238.840569 196.546317 
L 230.180315 196.546317 
z
" style="fill:#0000ff;stroke:#0000ff;"/>
    <path clip-path="url(#pee82911a6e)" d="M 261.65946 210.789277 
L 270.319714 210.789277 
L 270.319714 202.129023 
L 261.65946 202.129023 
z
" style="fill:#0000ff;stroke:#0000ff;"/>
    <path clip-path="url(#pee82911a6e)" d="M 276.381313 109.526132 
C 277.529676 109.526132 278.631159 109.069883 279.443175 108.257868 
C 280.25519 107.445852 280.71144 106.344369 280.71144 105.196005 
C 280.71144 104.047642 280.25519 102.946159 279.443175 102.134143 
C 278.631159 101.322128 277.529676 100.865878 276.381313 100.865878 
C 275.23295 100.865878 274.131466 101.322128 273.31945 102.134143 
C 272.507435 102.946159 272.051186 104.047642 272.051186 105.196005 
C 272.051186 106.344369 272.507435 107.445852 273.31945 108.257868 
C 274.131466 109.069883 275.23295 109.526132 276.381313 109.526132 
z
" style="fill:#ff0000;stroke:#ff0000;"/>
    <path clip-path="url(#pee82911a6e)" d="M 283.092898 130.124761 
C 284.241262 130.124761 285.342745 129.668511 286.154761 128.856496 
C 286.966776 128.044481 287.423025 126.942997 287.423025 125.794634 
C 287.423025 124.646271 286.966776 123.544787 286.154761 122.732772 
C 285.342745 121.920756 284.241262 121.464507 283.092898 121.464507 
C 281.944535 121.464507 280.843052 121.920756 280.031036 122.732772 
C 279.219021 123.544787 278.762771 124.646271 278.762771 125.794634 
C 278.762771 126.942997 279.219021 128.044481 280.031036 128.856496 
C 280.843052 129.668511 281.944535 130.124761 283.092898 130.124761 
z
" style="fill:#ff0000;stroke:#ff0000;"/>
    <path clip-path="url(#pee82911a6e)" d="M 278.18563 114.738188 
C 279.333994 114.738188 280.435477 114.281939 281.247493 113.469923 
C 282.059508 112.657908 282.515757 111.556424 282.515757 110.408061 
C 282.515757 109.259698 282.059508 108.158214 281.247493 107.346199 
C 280.435477 106.534184 279.333994 106.077934 278.18563 106.077934 
C 277.037267 106.077934 275.935784 106.534184 275.123768 107.346199 
C 274.311753 108.158214 273.855503 109.259698 273.855503 110.408061 
C 273.855503 111.556424 274.311753 112.657908 275.123768 113.469923 
C 275.935784 114.281939 277.037267 114.738188 278.18563 114.738188 
z
" style="fill:#ff0000;stroke:#ff0000;"/>
    <path clip-path="url(#pee82911a6e)" d="M 193.429508 212.79269 
L 202.089762 212.79269 
L 202.089762 204.132436 
L 193.429508 204.132436 
z
" style="fill:#0000ff;stroke:#0000ff;"/>
    <path clip-path="url(#pee82911a6e)" d="M 187.056495 195.138218 
L 195.716749 195.138218 
L 195.716749 186.477964 
L 187.056495 186.477964 
z
" style="fill:#0000ff;stroke:#0000ff;"/>
    <path clip-path="url(#pee82911a6e)" d="M 167.380977 172.805485 
L 176.041231 172.805485 
L 176.041231 164.145231 
L 167.380977 164.145231 
z
" style="fill:#0000ff;stroke:#0000ff;"/>
    <path clip-path="url(#pee82911a6e)" d="M 130.135416 181.184177 
L 138.79567 181.184177 
L 138.79567 172.523922 
L 130.135416 172.523922 
z
" style="fill:#0000ff;stroke:#0000ff;"/>
    <path clip-path="url(#pee82911a6e)" d="M 175.559596 66.840882 
C 176.707959 66.840882 177.809443 66.384633 178.621458 65.572618 
C 179.433473 64.760602 179.889723 63.659119 179.889723 62.510755 
C 179.889723 61.362392 179.433473 60.260909 178.621458 59.448893 
C 177.809443 58.636878 176.707959 58.180628 175.559596 58.180628 
C 174.411233 58.180628 173.309749 58.636878 172.497734 59.448893 
C 171.685718 60.260909 171.229469 61.362392 171.229469 62.510755 
C 171.229469 63.659119 171.685718 64.760602 172.497734 65.572618 
C 173.309749 66.384633 174.411233 66.840882 175.559596 66.840882 
z
" style="fill:#ff0000;stroke:#ff0000;"/>
    <path clip-path="url(#pee82911a6e)" d="M 294.880973 281.92845 
L 303.541227 281.92845 
L 303.541227 273.268196 
L 294.880973 273.268196 
z
" style="fill:#0000ff;stroke:#0000ff;"/>
    <path clip-path="url(#pee82911a6e)" d="M 247.420275 237.215632 
L 256.080529 237.215632 
L 256.080529 228.555378 
L 247.420275 228.555378 
z
" style="fill:#0000ff;stroke:#0000ff;"/>
    <path clip-path="url(#pee82911a6e)" d="M 157.064996 209.908886 
L 165.72525 209.908886 
L 165.72525 201.248631 
L 157.064996 201.248631 
z
" style="fill:#0000ff;stroke:#0000ff;"/>
    <path clip-path="url(#pee82911a6e)" d="M 167.732759 188.673428 
L 176.393013 188.673428 
L 176.393013 180.013174 
L 167.732759 180.013174 
z
" style="fill:#0000ff;stroke:#0000ff;"/>
    <path clip-path="url(#pee82911a6e)" d="M 329.602135 183.415537 
L 338.262389 183.415537 
L 338.262389 174.755283 
L 329.602135 174.755283 
z
" style="fill:#0000ff;stroke:#0000ff;"/>
    <path clip-path="url(#pee82911a6e)" d="M 317.553066 218.404596 
L 326.21332 218.404596 
L 326.21332 209.744342 
L 317.553066 209.744342 
z
" style="fill:#0000ff;stroke:#0000ff;"/>
    <path clip-path="url(#pee82911a6e)" d="M 223.372772 116.329515 
C 224.521135 116.329515 225.622618 115.873266 226.434634 115.06125 
C 227.246649 114.249235 227.702899 113.147751 227.702899 111.999388 
C 227.702899 110.851025 227.246649 109.749541 226.434634 108.937526 
C 225.622618 108.125511 224.521135 107.669261 223.372772 107.669261 
C 222.224409 107.669261 221.122925 108.125511 220.310909 108.937526 
C 219.498894 109.749541 219.042645 110.851025 219.042645 111.999388 
C 219.042645 113.147751 219.498894 114.249235 220.310909 115.06125 
C 221.122925 115.873266 222.224409 116.329515 223.372772 116.329515 
z
" style="fill:#ff0000;stroke:#ff0000;"/>
    <path clip-path="url(#pee82911a6e)" d="M 194.88624 211.52793 
L 203.546494 211.52793 
L 203.546494 202.867676 
L 194.88624 202.867676 
z
" style="fill:#0000ff;stroke:#0000ff;"/>
    <path clip-path="url(#pee82911a6e)" d="M 333.580508 276.012519 
L 342.240762 276.012519 
L 342.240762 267.352265 
L 333.580508 267.352265 
z
" style="fill:#0000ff;stroke:#0000ff;"/>
    <path clip-path="url(#pee82911a6e)" d="M 270.47428 246.359558 
L 279.134534 246.359558 
L 279.134534 237.699304 
L 270.47428 237.699304 
z
" style="fill:#0000ff;stroke:#0000ff;"/>
    <path clip-path="url(#pee82911a6e)" d="M 257.525221 237.523175 
L 266.185475 237.523175 
L 266.185475 228.862921 
L 257.525221 228.862921 
z
" style="fill:#0000ff;stroke:#0000ff;"/>
    <path clip-path="url(#pee82911a6e)" d="M 263.464257 211.552163 
L 272.124511 211.552163 
L 272.124511 202.891909 
L 263.464257 202.891909 
z
" style="fill:#0000ff;stroke:#0000ff;"/>
    <path clip-path="url(#pee82911a6e)" d="M 288.372589 96.700681 
C 289.520952 96.700681 290.622436 96.244431 291.434451 95.432416 
C 292.246467 94.6204 292.702716 93.518917 292.702716 92.370554 
C 292.702716 91.22219 292.246467 90.120707 291.434451 89.308691 
C 290.622436 88.496676 289.520952 88.040427 288.372589 88.040427 
C 287.224226 88.040427 286.122742 88.496676 285.310727 89.308691 
C 284.498712 90.120707 284.042462 91.22219 284.042462 92.370554 
C 284.042462 93.518917 284.498712 94.6204 285.310727 95.432416 
C 286.122742 96.244431 287.224226 96.700681 288.372589 96.700681 
z
" style="fill:#ff0000;stroke:#ff0000;"/>
    <path clip-path="url(#pee82911a6e)" d="M 196.659669 133.863096 
C 197.808032 133.863096 198.909516 133.406846 199.721532 132.594831 
C 200.533547 131.782816 200.989796 130.681332 200.989796 129.532969 
C 200.989796 128.384606 200.533547 127.283122 199.721532 126.471107 
C 198.909516 125.659091 197.808032 125.202842 196.659669 125.202842 
C 195.511306 125.202842 194.409823 125.659091 193.597807 126.471107 
C 192.785792 127.283122 192.329542 128.384606 192.329542 129.532969 
C 192.329542 130.681332 192.785792 131.782816 193.597807 132.594831 
C 194.409823 133.406846 195.511306 133.863096 196.659669 133.863096 
z
" style="fill:#ff0000;stroke:#ff0000;"/>
    <path clip-path="url(#pee82911a6e)" d="M 286.277933 134.662103 
C 287.426296 134.662103 288.527779 134.205853 289.339795 133.393838 
C 290.15181 132.581823 290.60806 131.480339 290.60806 130.331976 
C 290.60806 129.183613 290.15181 128.082129 289.339795 127.270114 
C 288.527779 126.458098 287.426296 126.001849 286.277933 126.001849 
C 285.129569 126.001849 284.028086 126.458098 283.21607 127.270114 
C 282.404055 128.082129 281.947806 129.183613 281.947806 130.331976 
C 281.947806 131.480339 282.404055 132.581823 283.21607 133.393838 
C 284.028086 134.205853 285.129569 134.662103 286.277933 134.662103 
z
" style="fill:#ff0000;stroke:#ff0000;"/>
    <path clip-path="url(#pee82911a6e)" d="M 196.235493 190.784869 
C 197.383856 190.784869 198.485339 190.32862 199.297355 189.516604 
C 200.10937 188.704589 200.56562 187.603105 200.56562 186.454742 
C 200.56562 185.306379 200.10937 184.204895 199.297355 183.39288 
C 198.485339 182.580865 197.383856 182.124615 196.235493 182.124615 
C 195.087129 182.124615 193.985646 182.580865 193.17363 183.39288 
C 192.361615 184.204895 191.905366 185.306379 191.905366 186.454742 
C 191.905366 187.603105 192.361615 188.704589 193.17363 189.516604 
C 193.985646 190.32862 195.087129 190.784869 196.235493 190.784869 
z
" style="fill:#ff0000;stroke:#ff0000;"/>
    <path clip-path="url(#pee82911a6e)" d="M 190.761797 223.925768 
L 199.422051 223.925768 
L 199.422051 215.265514 
L 190.761797 215.265514 
z
" style="fill:#0000ff;stroke:#0000ff;"/>
    <path clip-path="url(#pee82911a6e)" d="M 106.569246 171.217421 
L 115.2295 171.217421 
L 115.2295 162.557167 
L 106.569246 162.557167 
z
" style="fill:#0000ff;stroke:#0000ff;"/>
    <path clip-path="url(#pee82911a6e)" d="M 325.707021 278.647462 
L 334.367275 278.647462 
L 334.367275 269.987208 
L 325.707021 269.987208 
z
" style="fill:#0000ff;stroke:#0000ff;"/>
    <path clip-path="url(#pee82911a6e)" d="M 151.386592 220.019164 
L 160.046846 220.019164 
L 160.046846 211.35891 
L 151.386592 211.35891 
z
" style="fill:#0000ff;stroke:#0000ff;"/>
    <path clip-path="url(#pee82911a6e)" d="M 311.465261 217.081438 
L 320.125515 217.081438 
L 320.125515 208.421184 
L 311.465261 208.421184 
z
" style="fill:#0000ff;stroke:#0000ff;"/>
    <path clip-path="url(#pee82911a6e)" d="M 236.721157 195.38711 
L 245.381411 195.38711 
L 245.381411 186.726856 
L 236.721157 186.726856 
z
" style="fill:#0000ff;stroke:#0000ff;"/>
    <path clip-path="url(#pee82911a6e)" d="M 247.555485 207.647925 
L 256.215739 207.647925 
L 256.215739 198.987671 
L 247.555485 198.987671 
z
" style="fill:#0000ff;stroke:#0000ff;"/>
    <path clip-path="url(#pee82911a6e)" d="M 284.304349 132.193188 
C 285.452712 132.193188 286.554196 131.736938 287.366211 130.924923 
C 288.178227 130.112908 288.634476 129.011424 288.634476 127.863061 
C 288.634476 126.714698 288.178227 125.613214 287.366211 124.801199 
C 286.554196 123.989183 285.452712 123.532934 284.304349 123.532934 
C 283.155986 123.532934 282.054502 123.989183 281.242487 124.801199 
C 280.430472 125.613214 279.974222 126.714698 279.974222 127.863061 
C 279.974222 129.011424 280.430472 130.112908 281.242487 130.924923 
C 282.054502 131.736938 283.155986 132.193188 284.304349 132.193188 
z
" style="fill:#ff0000;stroke:#ff0000;"/>
    <path clip-path="url(#pee82911a6e)" d="M 227.450368 155.78676 
C 228.598731 155.78676 229.700215 155.33051 230.51223 154.518495 
C 231.324245 153.70648 231.780495 152.604996 231.780495 151.456633 
C 231.780495 150.30827 231.324245 149.206786 230.51223 148.394771 
C 229.700215 147.582755 228.598731 147.126506 227.450368 147.126506 
C 226.302005 147.126506 225.200521 147.582755 224.388506 148.394771 
C 223.57649 149.206786 223.120241 150.30827 223.120241 151.456633 
C 223.120241 152.604996 223.57649 153.70648 224.388506 154.518495 
C 225.200521 155.33051 226.302005 155.78676 227.450368 155.78676 
z
" style="fill:#ff0000;stroke:#ff0000;"/>
    <path clip-path="url(#pee82911a6e)" d="M 99.318198 141.168822 
L 107.978452 141.168822 
L 107.978452 132.508568 
L 99.318198 132.508568 
z
" style="fill:#0000ff;stroke:#0000ff;"/>
    <path clip-path="url(#pee82911a6e)" d="M 272.555834 218.483291 
L 281.216088 218.483291 
L 281.216088 209.823037 
L 272.555834 209.823037 
z
" style="fill:#0000ff;stroke:#0000ff;"/>
    <path clip-path="url(#pee82911a6e)" d="M 141.728538 59.005373 
C 142.876901 59.005373 143.978385 58.549123 144.7904 57.737108 
C 145.602415 56.925092 146.058665 55.823609 146.058665 54.675245 
C 146.058665 53.526882 145.602415 52.425399 144.7904 51.613383 
C 143.978385 50.801368 142.876901 50.345118 141.728538 50.345118 
C 140.580175 50.345118 139.478691 50.801368 138.666676 51.613383 
C 137.85466 52.425399 137.398411 53.526882 137.398411 54.675245 
C 137.398411 55.823609 137.85466 56.925092 138.666676 57.737108 
C 139.478691 58.549123 140.580175 59.005373 141.728538 59.005373 
z
" style="fill:#ff0000;stroke:#ff0000;"/>
    <path clip-path="url(#pee82911a6e)" d="M 245.516385 247.712495 
L 254.176639 247.712495 
L 254.176639 239.052241 
L 245.516385 239.052241 
z
" style="fill:#0000ff;stroke:#0000ff;"/>
    <path clip-path="url(#pee82911a6e)" d="M 70.111254 139.643652 
L 78.771508 139.643652 
L 78.771508 130.983398 
L 70.111254 130.983398 
z
" style="fill:#0000ff;stroke:#0000ff;"/>
    <path clip-path="url(#pee82911a6e)" d="M 295.765445 206.104157 
L 304.425699 206.104157 
L 304.425699 197.443903 
L 295.765445 197.443903 
z
" style="fill:#0000ff;stroke:#0000ff;"/>
    <path clip-path="url(#pee82911a6e)" d="M 146.259256 194.556843 
L 154.91951 194.556843 
L 154.91951 185.896589 
L 146.259256 185.896589 
z
" style="fill:#0000ff;stroke:#0000ff;"/>
    <path clip-path="url(#pee82911a6e)" d="M 165.612613 188.476913 
L 174.272867 188.476913 
L 174.272867 179.816659 
L 165.612613 179.816659 
z
" style="fill:#0000ff;stroke:#0000ff;"/>
    <path clip-path="url(#pee82911a6e)" d="M 176.095584 221.253057 
L 184.755838 221.253057 
L 184.755838 212.592803 
L 176.095584 212.592803 
z
" style="fill:#0000ff;stroke:#0000ff;"/>
    <path clip-path="url(#pee82911a6e)" d="M 331.230461 231.614995 
L 339.890715 231.614995 
L 339.890715 222.95474 
L 331.230461 222.95474 
z
" style="fill:#0000ff;stroke:#0000ff;"/>
   </g>
   <g id="PathCollection_2">
    <path clip-path="url(#pee82911a6e)" d="M 274.496145 102.172939 
C 275.644508 102.172939 276.745991 101.716689 277.558007 100.904674 
C 278.370022 100.092659 278.826272 98.991175 278.826272 97.842812 
C 278.826272 96.694449 278.370022 95.592965 277.558007 94.78095 
C 276.745991 93.968934 275.644508 93.512685 274.496145 93.512685 
C 273.347782 93.512685 272.246298 93.968934 271.434282 94.78095 
C 270.622267 95.592965 270.166018 96.694449 270.166018 97.842812 
C 270.166018 98.991175 270.622267 100.092659 271.434282 100.904674 
C 272.246298 101.716689 273.347782 102.172939 274.496145 102.172939 
z
" style="fill:none;stroke:#ff0000;"/>
    <path clip-path="url(#pee82911a6e)" d="M 181.500655 86.930217 
C 182.649018 86.930217 183.750502 86.473967 184.562517 85.661952 
C 185.374532 84.849937 185.830782 83.748453 185.830782 82.60009 
C 185.830782 81.451727 185.374532 80.350243 184.562517 79.538228 
C 183.750502 78.726212 182.649018 78.269963 181.500655 78.269963 
C 180.352292 78.269963 179.250808 78.726212 178.438793 79.538228 
C 177.626777 80.350243 177.170528 81.451727 177.170528 82.60009 
C 177.170528 83.748453 177.626777 84.849937 178.438793 85.661952 
C 179.250808 86.473967 180.352292 86.930217 181.500655 86.930217 
z
" style="fill:none;stroke:#ff0000;"/>
    <path clip-path="url(#pee82911a6e)" d="M 196.624775 138.545686 
C 197.773138 138.545686 198.874622 138.089437 199.686637 137.277421 
C 200.498653 136.465406 200.954902 135.363922 200.954902 134.215559 
C 200.954902 133.067196 200.498653 131.965712 199.686637 131.153697 
C 198.874622 130.341682 197.773138 129.885432 196.624775 129.885432 
C 195.476412 129.885432 194.374928 130.341682 193.562913 131.153697 
C 192.750898 131.965712 192.294648 133.067196 192.294648 134.215559 
C 192.294648 135.363922 192.750898 136.465406 193.562913 137.277421 
C 194.374928 138.089437 195.476412 138.545686 196.624775 138.545686 
z
" style="fill:none;stroke:#ff0000;"/>
    <path clip-path="url(#pee82911a6e)" d="M 276.035549 108.621183 
C 277.183912 108.621183 278.285396 108.164933 279.097411 107.352918 
C 279.909427 106.540903 280.365676 105.439419 280.365676 104.291056 
C 280.365676 103.142693 279.909427 102.041209 279.097411 101.229194 
C 278.285396 100.417178 277.183912 99.960929 276.035549 99.960929 
C 274.887186 99.960929 273.785702 100.417178 272.973687 101.229194 
C 272.161671 102.041209 271.705422 103.142693 271.705422 104.291056 
C 271.705422 105.439419 272.161671 106.540903 272.973687 107.352918 
C 273.785702 108.164933 274.887186 108.621183 276.035549 108.621183 
z
" style="fill:none;stroke:#ff0000;"/>
    <path clip-path="url(#pee82911a6e)" d="M 280.663209 116.555938 
C 281.811572 116.555938 282.913056 116.099689 283.725071 115.287673 
C 284.537087 114.475658 284.993336 113.374174 284.993336 112.225811 
C 284.993336 111.077448 284.537087 109.975964 283.725071 109.163949 
C 282.913056 108.351934 281.811572 107.895684 280.663209 107.895684 
C 279.514846 107.895684 278.413362 108.351934 277.601347 109.163949 
C 276.789332 109.975964 276.333082 111.077448 276.333082 112.225811 
C 276.333082 113.374174 276.789332 114.475658 277.601347 115.287673 
C 278.413362 116.099689 279.514846 116.555938 280.663209 116.555938 
z
" style="fill:none;stroke:#ff0000;"/>
    <path clip-path="url(#pee82911a6e)" d="M 280.795932 117.872837 
C 281.944295 117.872837 283.045779 117.416588 283.857794 116.604572 
C 284.66981 115.792557 285.126059 114.691073 285.126059 113.54271 
C 285.126059 112.394347 284.66981 111.292863 283.857794 110.480848 
C 283.045779 109.668833 281.944295 109.212583 280.795932 109.212583 
C 279.647569 109.212583 278.546085 109.668833 277.73407 110.480848 
C 276.922055 111.292863 276.465805 112.394347 276.465805 113.54271 
C 276.465805 114.691073 276.922055 115.792557 277.73407 116.604572 
C 278.546085 117.416588 279.647569 117.872837 280.795932 117.872837 
z
" style="fill:none;stroke:#ff0000;"/>
    <path clip-path="url(#pee82911a6e)" d="M 276.244143 108.991094 
C 277.392506 108.991094 278.493989 108.534844 279.306005 107.722829 
C 280.11802 106.910814 280.57427 105.80933 280.57427 104.660967 
C 280.57427 103.512604 280.11802 102.41112 279.306005 101.599105 
C 278.493989 100.787089 277.392506 100.33084 276.244143 100.33084 
C 275.095779 100.33084 273.994296 100.787089 273.18228 101.599105 
C 272.370265 102.41112 271.914016 103.512604 271.914016 104.660967 
C 271.914016 105.80933 272.370265 106.910814 273.18228 107.722829 
C 273.994296 108.534844 275.095779 108.991094 276.244143 108.991094 
z
" style="fill:none;stroke:#ff0000;"/>
    <path clip-path="url(#pee82911a6e)" d="M 241.888547 103.944825 
C 243.03691 103.944825 244.138393 103.488575 244.950409 102.67656 
C 245.762424 101.864544 246.218674 100.763061 246.218674 99.614698 
C 246.218674 98.466334 245.762424 97.364851 244.950409 96.552835 
C 244.138393 95.74082 243.03691 95.284571 241.888547 95.284571 
C 240.740183 95.284571 239.6387 95.74082 238.826684 96.552835 
C 238.014669 97.364851 237.55842 98.466334 237.55842 99.614698 
C 237.55842 100.763061 238.014669 101.864544 238.826684 102.67656 
C 239.6387 103.488575 240.740183 103.944825 241.888547 103.944825 
z
" style="fill:none;stroke:#ff0000;"/>
    <path clip-path="url(#pee82911a6e)" d="M 279.815674 96.302226 
C 280.964037 96.302226 282.065521 95.845976 282.877536 95.033961 
C 283.689551 94.221946 284.145801 93.120462 284.145801 91.972099 
C 284.145801 90.823736 283.689551 89.722252 282.877536 88.910236 
C 282.065521 88.098221 280.964037 87.641972 279.815674 87.641972 
C 278.667311 87.641972 277.565827 88.098221 276.753812 88.910236 
C 275.941796 89.722252 275.485547 90.823736 275.485547 91.972099 
C 275.485547 93.120462 275.941796 94.221946 276.753812 95.033961 
C 277.565827 95.845976 278.667311 96.302226 279.815674 96.302226 
z
" style="fill:none;stroke:#ff0000;"/>
    <path clip-path="url(#pee82911a6e)" d="M 279.930965 117.899141 
C 281.079328 117.899141 282.180812 117.442892 282.992827 116.630876 
C 283.804843 115.818861 284.261092 114.717377 284.261092 113.569014 
C 284.261092 112.420651 283.804843 111.319167 282.992827 110.507152 
C 282.180812 109.695137 281.079328 109.238887 279.930965 109.238887 
C 278.782602 109.238887 277.681118 109.695137 276.869103 110.507152 
C 276.057088 111.319167 275.600838 112.420651 275.600838 113.569014 
C 275.600838 114.717377 276.057088 115.818861 276.869103 116.630876 
C 277.681118 117.442892 278.782602 117.899141 279.930965 117.899141 
z
" style="fill:none;stroke:#ff0000;"/>
    <path clip-path="url(#pee82911a6e)" d="M 280.79821 117.89611 
C 281.946573 117.89611 283.048057 117.43986 283.860072 116.627845 
C 284.672087 115.81583 285.128337 114.714346 285.128337 113.565983 
C 285.128337 112.41762 284.672087 111.316136 283.860072 110.504121 
C 283.048057 109.692105 281.946573 109.235856 280.79821 109.235856 
C 279.649847 109.235856 278.548363 109.692105 277.736348 110.504121 
C 276.924332 111.316136 276.468083 112.41762 276.468083 113.565983 
C 276.468083 114.714346 276.924332 115.81583 277.736348 116.627845 
C 278.548363 117.43986 279.649847 117.89611 280.79821 117.89611 
z
" style="fill:none;stroke:#ff0000;"/>
    <path clip-path="url(#pee82911a6e)" d="M 277.073701 111.526205 
C 278.222064 111.526205 279.323548 111.069956 280.135563 110.25794 
C 280.947579 109.445925 281.403828 108.344441 281.403828 107.196078 
C 281.403828 106.047715 280.947579 104.946231 280.135563 104.134216 
C 279.323548 103.322201 278.222064 102.865951 277.073701 102.865951 
C 275.925338 102.865951 274.823854 103.322201 274.011839 104.134216 
C 273.199823 104.946231 272.743574 106.047715 272.743574 107.196078 
C 272.743574 108.344441 273.199823 109.445925 274.011839 110.25794 
C 274.823854 111.069956 275.925338 111.526205 277.073701 111.526205 
z
" style="fill:none;stroke:#ff0000;"/>
    <path clip-path="url(#pee82911a6e)" d="M 284.561021 132.216222 
C 285.709384 132.216222 286.810868 131.759972 287.622883 130.947957 
C 288.434899 130.135942 288.891148 129.034458 288.891148 127.886095 
C 288.891148 126.737732 288.434899 125.636248 287.622883 124.824233 
C 286.810868 124.012217 285.709384 123.555968 284.561021 123.555968 
C 283.412658 123.555968 282.311174 124.012217 281.499159 124.824233 
C 280.687144 125.636248 280.230894 126.737732 280.230894 127.886095 
C 280.230894 129.034458 280.687144 130.135942 281.499159 130.947957 
C 282.311174 131.759972 283.412658 132.216222 284.561021 132.216222 
z
" style="fill:none;stroke:#ff0000;"/>
    <path clip-path="url(#pee82911a6e)" d="M 280.693618 119.28037 
C 281.841981 119.28037 282.943464 118.824121 283.75548 118.012106 
C 284.567495 117.20009 285.023745 116.098607 285.023745 114.950243 
C 285.023745 113.80188 284.567495 112.700397 283.75548 111.888381 
C 282.943464 111.076366 281.841981 110.620116 280.693618 110.620116 
C 279.545254 110.620116 278.443771 111.076366 277.631755 111.888381 
C 276.81974 112.700397 276.363491 113.80188 276.363491 114.950243 
C 276.363491 116.098607 276.81974 117.20009 277.631755 118.012106 
C 278.443771 118.824121 279.545254 119.28037 280.693618 119.28037 
z
" style="fill:none;stroke:#ff0000;"/>
    <path clip-path="url(#pee82911a6e)" d="M 215.612948 100.173792 
C 216.761311 100.173792 217.862795 99.717543 218.674811 98.905527 
C 219.486826 98.093512 219.943075 96.992028 219.943075 95.843665 
C 219.943075 94.695302 219.486826 93.593818 218.674811 92.781803 
C 217.862795 91.969788 216.761311 91.513538 215.612948 91.513538 
C 214.464585 91.513538 213.363102 91.969788 212.551086 92.781803 
C 211.739071 93.593818 211.282821 94.695302 211.282821 95.843665 
C 211.282821 96.992028 211.739071 98.093512 212.551086 98.905527 
C 213.363102 99.717543 214.464585 100.173792 215.612948 100.173792 
z
" style="fill:none;stroke:#ff0000;"/>
    <path clip-path="url(#pee82911a6e)" d="M 276.908145 111.047971 
C 278.056508 111.047971 279.157992 110.591721 279.970007 109.779706 
C 280.782023 108.967691 281.238272 107.866207 281.238272 106.717844 
C 281.238272 105.569481 280.782023 104.467997 279.970007 103.655981 
C 279.157992 102.843966 278.056508 102.387717 276.908145 102.387717 
C 275.759782 102.387717 274.658298 102.843966 273.846283 103.655981 
C 273.034268 104.467997 272.578018 105.569481 272.578018 106.717844 
C 272.578018 107.866207 273.034268 108.967691 273.846283 109.779706 
C 274.658298 110.591721 275.759782 111.047971 276.908145 111.047971 
z
" style="fill:none;stroke:#ff0000;"/>
    <path clip-path="url(#pee82911a6e)" d="M 279.450253 117.02853 
C 280.598616 117.02853 281.7001 116.572281 282.512116 115.760265 
C 283.324131 114.94825 283.78038 113.846766 283.78038 112.698403 
C 283.78038 111.55004 283.324131 110.448556 282.512116 109.636541 
C 281.7001 108.824526 280.598616 108.368276 279.450253 108.368276 
C 278.30189 108.368276 277.200407 108.824526 276.388391 109.636541 
C 275.576376 110.448556 275.120126 111.55004 275.120126 112.698403 
C 275.120126 113.846766 275.576376 114.94825 276.388391 115.760265 
C 277.200407 116.572281 278.30189 117.02853 279.450253 117.02853 
z
" style="fill:none;stroke:#ff0000;"/>
    <path clip-path="url(#pee82911a6e)" d="M 215.50489 100.125695 
C 216.653253 100.125695 217.754737 99.669446 218.566752 98.857431 
C 219.378767 98.045415 219.835017 96.943931 219.835017 95.795568 
C 219.835017 94.647205 219.378767 93.545722 218.566752 92.733706 
C 217.754737 91.921691 216.653253 91.465441 215.50489 91.465441 
C 214.356527 91.465441 213.255043 91.921691 212.443028 92.733706 
C 211.631012 93.545722 211.174763 94.647205 211.174763 95.795568 
C 211.174763 96.943931 211.631012 98.045415 212.443028 98.857431 
C 213.255043 99.669446 214.356527 100.125695 215.50489 100.125695 
z
" style="fill:none;stroke:#ff0000;"/>
    <path clip-path="url(#pee82911a6e)" d="M 224.011328 102.056337 
C 225.159691 102.056337 226.261175 101.600087 227.07319 100.788072 
C 227.885205 99.976056 228.341455 98.874573 228.341455 97.72621 
C 228.341455 96.577846 227.885205 95.476363 227.07319 94.664347 
C 226.261175 93.852332 225.159691 93.396083 224.011328 93.396083 
C 222.862965 93.396083 221.761481 93.852332 220.949466 94.664347 
C 220.13745 95.476363 219.681201 96.577846 219.681201 97.72621 
C 219.681201 98.874573 220.13745 99.976056 220.949466 100.788072 
C 221.761481 101.600087 222.862965 102.056337 224.011328 102.056337 
z
" style="fill:none;stroke:#ff0000;"/>
    <path clip-path="url(#pee82911a6e)" d="M 279.219721 116.611015 
C 280.368084 116.611015 281.469567 116.154766 282.281583 115.34275 
C 283.093598 114.530735 283.549848 113.429251 283.549848 112.280888 
C 283.549848 111.132525 283.093598 110.031041 282.281583 109.219026 
C 281.469567 108.407011 280.368084 107.950761 279.219721 107.950761 
C 278.071357 107.950761 276.969874 108.407011 276.157858 109.219026 
C 275.345843 110.031041 274.889593 111.132525 274.889593 112.280888 
C 274.889593 113.429251 275.345843 114.530735 276.157858 115.34275 
C 276.969874 116.154766 278.071357 116.611015 279.219721 116.611015 
z
" style="fill:none;stroke:#ff0000;"/>
    <path clip-path="url(#pee82911a6e)" d="M 228.183326 105.768856 
C 229.331689 105.768856 230.433173 105.312606 231.245188 104.500591 
C 232.057204 103.688575 232.513453 102.587092 232.513453 101.438728 
C 232.513453 100.290365 232.057204 99.188882 231.245188 98.376866 
C 230.433173 97.564851 229.331689 97.108601 228.183326 97.108601 
C 227.034963 97.108601 225.933479 97.564851 225.121464 98.376866 
C 224.309448 99.188882 223.853199 100.290365 223.853199 101.438728 
C 223.853199 102.587092 224.309448 103.688575 225.121464 104.500591 
C 225.933479 105.312606 227.034963 105.768856 228.183326 105.768856 
z
" style="fill:none;stroke:#ff0000;"/>
    <path clip-path="url(#pee82911a6e)" d="M 285.160073 99.237358 
C 286.308436 99.237358 287.409919 98.781108 288.221935 97.969093 
C 289.03395 97.157078 289.4902 96.055594 289.4902 94.907231 
C 289.4902 93.758868 289.03395 92.657384 288.221935 91.845369 
C 287.409919 91.033353 286.308436 90.577104 285.160073 90.577104 
C 284.011709 90.577104 282.910226 91.033353 282.09821 91.845369 
C 281.286195 92.657384 280.829946 93.758868 280.829946 94.907231 
C 280.829946 96.055594 281.286195 97.157078 282.09821 97.969093 
C 282.910226 98.781108 284.011709 99.237358 285.160073 99.237358 
z
" style="fill:none;stroke:#ff0000;"/>
    <path clip-path="url(#pee82911a6e)" d="M 285.115748 133.208232 
C 286.264111 133.208232 287.365595 132.751983 288.17761 131.939967 
C 288.989625 131.127952 289.445875 130.026468 289.445875 128.878105 
C 289.445875 127.729742 288.989625 126.628258 288.17761 125.816243 
C 287.365595 125.004228 286.264111 124.547978 285.115748 124.547978 
C 283.967385 124.547978 282.865901 125.004228 282.053886 125.816243 
C 281.24187 126.628258 280.785621 127.729742 280.785621 128.878105 
C 280.785621 130.026468 281.24187 131.127952 282.053886 131.939967 
C 282.865901 132.751983 283.967385 133.208232 285.115748 133.208232 
z
" style="fill:none;stroke:#ff0000;"/>
    <path clip-path="url(#pee82911a6e)" d="M 278.172838 114.701236 
C 279.321201 114.701236 280.422685 114.244987 281.234701 113.432972 
C 282.046716 112.620956 282.502965 111.519472 282.502965 110.371109 
C 282.502965 109.222746 282.046716 108.121262 281.234701 107.309247 
C 280.422685 106.497232 279.321201 106.040982 278.172838 106.040982 
C 277.024475 106.040982 275.922992 106.497232 275.110976 107.309247 
C 274.298961 108.121262 273.842711 109.222746 273.842711 110.371109 
C 273.842711 111.519472 274.298961 112.620956 275.110976 113.432972 
C 275.922992 114.244987 277.024475 114.701236 278.172838 114.701236 
z
" style="fill:none;stroke:#ff0000;"/>
    <path clip-path="url(#pee82911a6e)" d="M 275.874757 107.550286 
C 277.02312 107.550286 278.124604 107.094036 278.936619 106.282021 
C 279.748634 105.470006 280.204884 104.368522 280.204884 103.220159 
C 280.204884 102.071796 279.748634 100.970312 278.936619 100.158297 
C 278.124604 99.346281 277.02312 98.890032 275.874757 98.890032 
C 274.726394 98.890032 273.62491 99.346281 272.812895 100.158297 
C 272.000879 100.970312 271.54463 102.071796 271.54463 103.220159 
C 271.54463 104.368522 272.000879 105.470006 272.812895 106.282021 
C 273.62491 107.094036 274.726394 107.550286 275.874757 107.550286 
z
" style="fill:none;stroke:#ff0000;"/>
    <path clip-path="url(#pee82911a6e)" d="M 210.051881 123.201087 
C 211.200244 123.201087 212.301728 122.744837 213.113743 121.932822 
C 213.925759 121.120807 214.382008 120.019323 214.382008 118.87096 
C 214.382008 117.722597 213.925759 116.621113 213.113743 115.809098 
C 212.301728 114.997082 211.200244 114.540833 210.051881 114.540833 
C 208.903518 114.540833 207.802034 114.997082 206.990019 115.809098 
C 206.178003 116.621113 205.721754 117.722597 205.721754 118.87096 
C 205.721754 120.019323 206.178003 121.120807 206.990019 121.932822 
C 207.802034 122.744837 208.903518 123.201087 210.051881 123.201087 
z
" style="fill:none;stroke:#ff0000;"/>
    <path clip-path="url(#pee82911a6e)" d="M 282.828554 110.906786 
C 283.976917 110.906786 285.078401 110.450536 285.890416 109.638521 
C 286.702431 108.826506 287.158681 107.725022 287.158681 106.576659 
C 287.158681 105.428296 286.702431 104.326812 285.890416 103.514797 
C 285.078401 102.702781 283.976917 102.246532 282.828554 102.246532 
C 281.680191 102.246532 280.578707 102.702781 279.766691 103.514797 
C 278.954676 104.326812 278.498427 105.428296 278.498427 106.576659 
C 278.498427 107.725022 278.954676 108.826506 279.766691 109.638521 
C 280.578707 110.450536 281.680191 110.906786 282.828554 110.906786 
z
" style="fill:none;stroke:#ff0000;"/>
    <path clip-path="url(#pee82911a6e)" d="M 163.89675 74.570143 
C 165.045113 74.570143 166.146597 74.113894 166.958612 73.301878 
C 167.770628 72.489863 168.226877 71.388379 168.226877 70.240016 
C 168.226877 69.091653 167.770628 67.990169 166.958612 67.178154 
C 166.146597 66.366139 165.045113 65.909889 163.89675 65.909889 
C 162.748387 65.909889 161.646903 66.366139 160.834888 67.178154 
C 160.022873 67.990169 159.566623 69.091653 159.566623 70.240016 
C 159.566623 71.388379 160.022873 72.489863 160.834888 73.301878 
C 161.646903 74.113894 162.748387 74.570143 163.89675 74.570143 
z
" style="fill:none;stroke:#ff0000;"/>
    <path clip-path="url(#pee82911a6e)" d="M 286.267099 136.060799 
C 287.415462 136.060799 288.516946 135.604549 289.328961 134.792534 
C 290.140976 133.980519 290.597226 132.879035 290.597226 131.730672 
C 290.597226 130.582309 290.140976 129.480825 289.328961 128.66881 
C 288.516946 127.856794 287.415462 127.400545 286.267099 127.400545 
C 285.118736 127.400545 284.017252 127.856794 283.205237 128.66881 
C 282.393221 129.480825 281.936972 130.582309 281.936972 131.730672 
C 281.936972 132.879035 282.393221 133.980519 283.205237 134.792534 
C 284.017252 135.604549 285.118736 136.060799 286.267099 136.060799 
z
" style="fill:none;stroke:#ff0000;"/>
    <path clip-path="url(#pee82911a6e)" d="M 282.857348 129.060665 
C 284.005711 129.060665 285.107195 128.604415 285.91921 127.7924 
C 286.731226 126.980385 287.187475 125.878901 287.187475 124.730538 
C 287.187475 123.582175 286.731226 122.480691 285.91921 121.668676 
C 285.107195 120.85666 284.005711 120.400411 282.857348 120.400411 
C 281.708985 120.400411 280.607501 120.85666 279.795486 121.668676 
C 278.983471 122.480691 278.527221 123.582175 278.527221 124.730538 
C 278.527221 125.878901 278.983471 126.980385 279.795486 127.7924 
C 280.607501 128.604415 281.708985 129.060665 282.857348 129.060665 
z
" style="fill:none;stroke:#ff0000;"/>
    <path clip-path="url(#pee82911a6e)" d="M 194.188068 100.098614 
C 195.336431 100.098614 196.437914 99.642365 197.24993 98.830349 
C 198.061945 98.018334 198.518195 96.91685 198.518195 95.768487 
C 198.518195 94.620124 198.061945 93.51864 197.24993 92.706625 
C 196.437914 91.89461 195.336431 91.43836 194.188068 91.43836 
C 193.039704 91.43836 191.938221 91.89461 191.126205 92.706625 
C 190.31419 93.51864 189.85794 94.620124 189.85794 95.768487 
C 189.85794 96.91685 190.31419 98.018334 191.126205 98.830349 
C 191.938221 99.642365 193.039704 100.098614 194.188068 100.098614 
z
" style="fill:none;stroke:#ff0000;"/>
    <path clip-path="url(#pee82911a6e)" d="M 257.159441 142.085115 
C 258.307804 142.085115 259.409288 141.628865 260.221303 140.81685 
C 261.033318 140.004835 261.489568 138.903351 261.489568 137.754988 
C 261.489568 136.606625 261.033318 135.505141 260.221303 134.693126 
C 259.409288 133.88111 258.307804 133.424861 257.159441 133.424861 
C 256.011078 133.424861 254.909594 133.88111 254.097579 134.693126 
C 253.285563 135.505141 252.829314 136.606625 252.829314 137.754988 
C 252.829314 138.903351 253.285563 140.004835 254.097579 140.81685 
C 254.909594 141.628865 256.011078 142.085115 257.159441 142.085115 
z
" style="fill:none;stroke:#ff0000;"/>
    <path clip-path="url(#pee82911a6e)" d="M 282.274551 149.526087 
C 283.422914 149.526087 284.524398 149.069837 285.336413 148.257822 
C 286.148428 147.445807 286.604678 146.344323 286.604678 145.19596 
C 286.604678 144.047597 286.148428 142.946113 285.336413 142.134098 
C 284.524398 141.322082 283.422914 140.865833 282.274551 140.865833 
C 281.126188 140.865833 280.024704 141.322082 279.212689 142.134098 
C 278.400673 142.946113 277.944424 144.047597 277.944424 145.19596 
C 277.944424 146.344323 278.400673 147.445807 279.212689 148.257822 
C 280.024704 149.069837 281.126188 149.526087 282.274551 149.526087 
z
" style="fill:none;stroke:#ff0000;"/>
    <path clip-path="url(#pee82911a6e)" d="M 285.861259 188.456408 
C 287.009622 188.456408 288.111105 188.000158 288.923121 187.188143 
C 289.735136 186.376127 290.191386 185.274644 290.191386 184.126281 
C 290.191386 182.977918 289.735136 181.876434 288.923121 181.064418 
C 288.111105 180.252403 287.009622 179.796154 285.861259 179.796154 
C 284.712896 179.796154 283.611412 180.252403 282.799396 181.064418 
C 281.987381 181.876434 281.531132 182.977918 281.531132 184.126281 
C 281.531132 185.274644 281.987381 186.376127 282.799396 187.188143 
C 283.611412 188.000158 284.712896 188.456408 285.861259 188.456408 
z
" style="fill:none;stroke:#ff0000;"/>
    <path clip-path="url(#pee82911a6e)" d="M 280.701135 116.904196 
C 281.849498 116.904196 282.950981 116.447947 283.762997 115.635931 
C 284.575012 114.823916 285.031262 113.722432 285.031262 112.574069 
C 285.031262 111.425706 284.575012 110.324222 283.762997 109.512207 
C 282.950981 108.700191 281.849498 108.243942 280.701135 108.243942 
C 279.552771 108.243942 278.451288 108.700191 277.639272 109.512207 
C 276.827257 110.324222 276.371008 111.425706 276.371008 112.574069 
C 276.371008 113.722432 276.827257 114.823916 277.639272 115.635931 
C 278.451288 116.447947 279.552771 116.904196 280.701135 116.904196 
z
" style="fill:none;stroke:#ff0000;"/>
    <path clip-path="url(#pee82911a6e)" d="M 225.969345 141.455503 
C 227.117708 141.455503 228.219192 140.999253 229.031207 140.187238 
C 229.843223 139.375223 230.299472 138.273739 230.299472 137.125376 
C 230.299472 135.977013 229.843223 134.875529 229.031207 134.063514 
C 228.219192 133.251498 227.117708 132.795249 225.969345 132.795249 
C 224.820982 132.795249 223.719498 133.251498 222.907483 134.063514 
C 222.095468 134.875529 221.639218 135.977013 221.639218 137.125376 
C 221.639218 138.273739 222.095468 139.375223 222.907483 140.187238 
C 223.719498 140.999253 224.820982 141.455503 225.969345 141.455503 
z
" style="fill:none;stroke:#ff0000;"/>
    <path clip-path="url(#pee82911a6e)" d="M 195.607836 167.965079 
C 196.756199 167.965079 197.857683 167.50883 198.669698 166.696814 
C 199.481713 165.884799 199.937963 164.783315 199.937963 163.634952 
C 199.937963 162.486589 199.481713 161.385105 198.669698 160.57309 
C 197.857683 159.761075 196.756199 159.304825 195.607836 159.304825 
C 194.459473 159.304825 193.357989 159.761075 192.545974 160.57309 
C 191.733958 161.385105 191.277709 162.486589 191.277709 163.634952 
C 191.277709 164.783315 191.733958 165.884799 192.545974 166.696814 
C 193.357989 167.50883 194.459473 167.965079 195.607836 167.965079 
z
" style="fill:none;stroke:#ff0000;"/>
    <path clip-path="url(#pee82911a6e)" d="M 181.106708 74.111497 
C 182.255072 74.111497 183.356555 73.655248 184.168571 72.843233 
C 184.980586 72.031217 185.436835 70.929734 185.436835 69.78137 
C 185.436835 68.633007 184.980586 67.531524 184.168571 66.719508 
C 183.356555 65.907493 182.255072 65.451243 181.106708 65.451243 
C 179.958345 65.451243 178.856862 65.907493 178.044846 66.719508 
C 177.232831 67.531524 176.776581 68.633007 176.776581 69.78137 
C 176.776581 70.929734 177.232831 72.031217 178.044846 72.843233 
C 178.856862 73.655248 179.958345 74.111497 181.106708 74.111497 
z
" style="fill:none;stroke:#ff0000;"/>
    <path clip-path="url(#pee82911a6e)" d="M 277.292798 112.159102 
C 278.441161 112.159102 279.542645 111.702853 280.35466 110.890837 
C 281.166676 110.078822 281.622925 108.977338 281.622925 107.828975 
C 281.622925 106.680612 281.166676 105.579128 280.35466 104.767113 
C 279.542645 103.955098 278.441161 103.498848 277.292798 103.498848 
C 276.144435 103.498848 275.042951 103.955098 274.230936 104.767113 
C 273.418921 105.579128 272.962671 106.680612 272.962671 107.828975 
C 272.962671 108.977338 273.418921 110.078822 274.230936 110.890837 
C 275.042951 111.702853 276.144435 112.159102 277.292798 112.159102 
z
" style="fill:none;stroke:#ff0000;"/>
    <path clip-path="url(#pee82911a6e)" d="M 280.66743 116.559804 
C 281.815793 116.559804 282.917277 116.103555 283.729292 115.291539 
C 284.541308 114.479524 284.997557 113.37804 284.997557 112.229677 
C 284.997557 111.081314 284.541308 109.97983 283.729292 109.167815 
C 282.917277 108.3558 281.815793 107.89955 280.66743 107.89955 
C 279.519067 107.89955 278.417583 108.3558 277.605568 109.167815 
C 276.793553 109.97983 276.337303 111.081314 276.337303 112.229677 
C 276.337303 113.37804 276.793553 114.479524 277.605568 115.291539 
C 278.417583 116.103555 279.519067 116.559804 280.66743 116.559804 
z
" style="fill:none;stroke:#ff0000;"/>
    <path clip-path="url(#pee82911a6e)" d="M 285.649823 133.876351 
C 286.798187 133.876351 287.89967 133.420101 288.711686 132.608086 
C 289.523701 131.79607 289.979951 130.694587 289.979951 129.546223 
C 289.979951 128.39786 289.523701 127.296377 288.711686 126.484361 
C 287.89967 125.672346 286.798187 125.216096 285.649823 125.216096 
C 284.50146 125.216096 283.399977 125.672346 282.587961 126.484361 
C 281.775946 127.296377 281.319696 128.39786 281.319696 129.546223 
C 281.319696 130.694587 281.775946 131.79607 282.587961 132.608086 
C 283.399977 133.420101 284.50146 133.876351 285.649823 133.876351 
z
" style="fill:none;stroke:#ff0000;"/>
    <path clip-path="url(#pee82911a6e)" d="M 274.393021 102.525306 
C 275.541384 102.525306 276.642868 102.069056 277.454883 101.257041 
C 278.266898 100.445025 278.723148 99.343542 278.723148 98.195179 
C 278.723148 97.046815 278.266898 95.945332 277.454883 95.133316 
C 276.642868 94.321301 275.541384 93.865052 274.393021 93.865052 
C 273.244658 93.865052 272.143174 94.321301 271.331159 95.133316 
C 270.519143 95.945332 270.062894 97.046815 270.062894 98.195179 
C 270.062894 99.343542 270.519143 100.445025 271.331159 101.257041 
C 272.143174 102.069056 273.244658 102.525306 274.393021 102.525306 
z
" style="fill:none;stroke:#ff0000;"/>
    <path clip-path="url(#pee82911a6e)" d="M 212.095716 144.853906 
C 213.244079 144.853906 214.345563 144.397656 215.157578 143.585641 
C 215.969594 142.773625 216.425843 141.672142 216.425843 140.523779 
C 216.425843 139.375415 215.969594 138.273932 215.157578 137.461916 
C 214.345563 136.649901 213.244079 136.193651 212.095716 136.193651 
C 210.947353 136.193651 209.845869 136.649901 209.033854 137.461916 
C 208.221839 138.273932 207.765589 139.375415 207.765589 140.523779 
C 207.765589 141.672142 208.221839 142.773625 209.033854 143.585641 
C 209.845869 144.397656 210.947353 144.853906 212.095716 144.853906 
z
" style="fill:none;stroke:#ff0000;"/>
    <path clip-path="url(#pee82911a6e)" d="M 279.377221 96.281809 
C 280.525584 96.281809 281.627068 95.82556 282.439083 95.013544 
C 283.251098 94.201529 283.707348 93.100045 283.707348 91.951682 
C 283.707348 90.803319 283.251098 89.701835 282.439083 88.88982 
C 281.627068 88.077804 280.525584 87.621555 279.377221 87.621555 
C 278.228858 87.621555 277.127374 88.077804 276.315359 88.88982 
C 275.503343 89.701835 275.047094 90.803319 275.047094 91.951682 
C 275.047094 93.100045 275.503343 94.201529 276.315359 95.013544 
C 277.127374 95.82556 278.228858 96.281809 279.377221 96.281809 
z
" style="fill:none;stroke:#ff0000;"/>
    <path clip-path="url(#pee82911a6e)" d="M 278.998364 116.534448 
C 280.146727 116.534448 281.24821 116.078198 282.060226 115.266183 
C 282.872241 114.454167 283.328491 113.352684 283.328491 112.204321 
C 283.328491 111.055957 282.872241 109.954474 282.060226 109.142458 
C 281.24821 108.330443 280.146727 107.874194 278.998364 107.874194 
C 277.850001 107.874194 276.748517 108.330443 275.936501 109.142458 
C 275.124486 109.954474 274.668237 111.055957 274.668237 112.204321 
C 274.668237 113.352684 275.124486 114.454167 275.936501 115.266183 
C 276.748517 116.078198 277.850001 116.534448 278.998364 116.534448 
z
" style="fill:none;stroke:#ff0000;"/>
    <path clip-path="url(#pee82911a6e)" d="M 285.801887 133.983938 
C 286.950251 133.983938 288.051734 133.527688 288.86375 132.715673 
C 289.675765 131.903658 290.132015 130.802174 290.132015 129.653811 
C 290.132015 128.505448 289.675765 127.403964 288.86375 126.591949 
C 288.051734 125.779933 286.950251 125.323684 285.801887 125.323684 
C 284.653524 125.323684 283.552041 125.779933 282.740025 126.591949 
C 281.92801 127.403964 281.47176 128.505448 281.47176 129.653811 
C 281.47176 130.802174 281.92801 131.903658 282.740025 132.715673 
C 283.552041 133.527688 284.653524 133.983938 285.801887 133.983938 
z
" style="fill:none;stroke:#ff0000;"/>
    <path clip-path="url(#pee82911a6e)" d="M 277.115325 111.646443 
C 278.263688 111.646443 279.365172 111.190193 280.177187 110.378178 
C 280.989203 109.566163 281.445452 108.464679 281.445452 107.316316 
C 281.445452 106.167953 280.989203 105.066469 280.177187 104.254454 
C 279.365172 103.442438 278.263688 102.986189 277.115325 102.986189 
C 275.966962 102.986189 274.865478 103.442438 274.053463 104.254454 
C 273.241448 105.066469 272.785198 106.167953 272.785198 107.316316 
C 272.785198 108.464679 273.241448 109.566163 274.053463 110.378178 
C 274.865478 111.190193 275.966962 111.646443 277.115325 111.646443 
z
" style="fill:none;stroke:#ff0000;"/>
    <path clip-path="url(#pee82911a6e)" d="M 282.559376 127.63015 
C 283.70774 127.63015 284.809223 127.173901 285.621239 126.361885 
C 286.433254 125.54987 286.889503 124.448386 286.889503 123.300023 
C 286.889503 122.15166 286.433254 121.050176 285.621239 120.238161 
C 284.809223 119.426146 283.70774 118.969896 282.559376 118.969896 
C 281.411013 118.969896 280.30953 119.426146 279.497514 120.238161 
C 278.685499 121.050176 278.229249 122.15166 278.229249 123.300023 
C 278.229249 124.448386 278.685499 125.54987 279.497514 126.361885 
C 280.30953 127.173901 281.411013 127.63015 282.559376 127.63015 
z
" style="fill:none;stroke:#ff0000;"/>
    <path clip-path="url(#pee82911a6e)" d="M 277.849356 113.766807 
C 278.997719 113.766807 280.099203 113.310557 280.911218 112.498542 
C 281.723234 111.686527 282.179483 110.585043 282.179483 109.43668 
C 282.179483 108.288317 281.723234 107.186833 280.911218 106.374818 
C 280.099203 105.562802 278.997719 105.106553 277.849356 105.106553 
C 276.700993 105.106553 275.599509 105.562802 274.787494 106.374818 
C 273.975479 107.186833 273.519229 108.288317 273.519229 109.43668 
C 273.519229 110.585043 273.975479 111.686527 274.787494 112.498542 
C 275.599509 113.310557 276.700993 113.766807 277.849356 113.766807 
z
" style="fill:none;stroke:#ff0000;"/>
    <path clip-path="url(#pee82911a6e)" d="M 161.952234 86.565333 
C 163.100597 86.565333 164.202081 86.109084 165.014096 85.297069 
C 165.826111 84.485053 166.282361 83.38357 166.282361 82.235206 
C 166.282361 81.086843 165.826111 79.98536 165.014096 79.173344 
C 164.202081 78.361329 163.100597 77.905079 161.952234 77.905079 
C 160.803871 77.905079 159.702387 78.361329 158.890372 79.173344 
C 158.078356 79.98536 157.622107 81.086843 157.622107 82.235206 
C 157.622107 83.38357 158.078356 84.485053 158.890372 85.297069 
C 159.702387 86.109084 160.803871 86.565333 161.952234 86.565333 
z
" style="fill:none;stroke:#ff0000;"/>
    <path clip-path="url(#pee82911a6e)" d="M 280.209767 118.97564 
C 281.35813 118.97564 282.459614 118.51939 283.271629 117.707375 
C 284.083645 116.89536 284.539894 115.793876 284.539894 114.645513 
C 284.539894 113.49715 284.083645 112.395666 283.271629 111.583651 
C 282.459614 110.771635 281.35813 110.315386 280.209767 110.315386 
C 279.061404 110.315386 277.95992 110.771635 277.147905 111.583651 
C 276.33589 112.395666 275.87964 113.49715 275.87964 114.645513 
C 275.87964 115.793876 276.33589 116.89536 277.147905 117.707375 
C 277.95992 118.51939 279.061404 118.97564 280.209767 118.97564 
z
" style="fill:none;stroke:#ff0000;"/>
    <path clip-path="url(#pee82911a6e)" d="M 173.034549 66.256064 
C 174.182912 66.256064 175.284396 65.799814 176.096411 64.987799 
C 176.908426 64.175784 177.364676 63.0743 177.364676 61.925937 
C 177.364676 60.777574 176.908426 59.67609 176.096411 58.864075 
C 175.284396 58.052059 174.182912 57.59581 173.034549 57.59581 
C 171.886186 57.59581 170.784702 58.052059 169.972687 58.864075 
C 169.160671 59.67609 168.704422 60.777574 168.704422 61.925937 
C 168.704422 63.0743 169.160671 64.175784 169.972687 64.987799 
C 170.784702 65.799814 171.886186 66.256064 173.034549 66.256064 
z
" style="fill:none;stroke:#ff0000;"/>
    <path clip-path="url(#pee82911a6e)" d="M 279.587116 114.728959 
C 280.735479 114.728959 281.836963 114.272709 282.648978 113.460694 
C 283.460993 112.648678 283.917243 111.547195 283.917243 110.398832 
C 283.917243 109.250468 283.460993 108.148985 282.648978 107.336969 
C 281.836963 106.524954 280.735479 106.068705 279.587116 106.068705 
C 278.438753 106.068705 277.337269 106.524954 276.525254 107.336969 
C 275.713238 108.148985 275.256989 109.250468 275.256989 110.398832 
C 275.256989 111.547195 275.713238 112.648678 276.525254 113.460694 
C 277.337269 114.272709 278.438753 114.728959 279.587116 114.728959 
z
" style="fill:none;stroke:#ff0000;"/>
    <path clip-path="url(#pee82911a6e)" d="M 282.010651 225.3911 
C 283.159014 225.3911 284.260497 224.93485 285.072513 224.122835 
C 285.884528 223.31082 286.340778 222.209336 286.340778 221.060973 
C 286.340778 219.91261 285.884528 218.811126 285.072513 217.999111 
C 284.260497 217.187095 283.159014 216.730846 282.010651 216.730846 
C 280.862288 216.730846 279.760804 217.187095 278.948788 217.999111 
C 278.136773 218.811126 277.680524 219.91261 277.680524 221.060973 
C 277.680524 222.209336 278.136773 223.31082 278.948788 224.122835 
C 279.760804 224.93485 280.862288 225.3911 282.010651 225.3911 
z
" style="fill:none;stroke:#ff0000;"/>
    <path clip-path="url(#pee82911a6e)" d="M 279.157657 116.498612 
C 280.30602 116.498612 281.407503 116.042362 282.219519 115.230347 
C 283.031534 114.418332 283.487784 113.316848 283.487784 112.168485 
C 283.487784 111.020122 283.031534 109.918638 282.219519 109.106623 
C 281.407503 108.294607 280.30602 107.838358 279.157657 107.838358 
C 278.009293 107.838358 276.90781 108.294607 276.095794 109.106623 
C 275.283779 109.918638 274.82753 111.020122 274.82753 112.168485 
C 274.82753 113.316848 275.283779 114.418332 276.095794 115.230347 
C 276.90781 116.042362 278.009293 116.498612 279.157657 116.498612 
z
" style="fill:none;stroke:#ff0000;"/>
    <path clip-path="url(#pee82911a6e)" d="M 284.460097 144.504921 
C 285.60846 144.504921 286.709943 144.048671 287.521959 143.236656 
C 288.333974 142.42464 288.790224 141.323157 288.790224 140.174794 
C 288.790224 139.02643 288.333974 137.924947 287.521959 137.112931 
C 286.709943 136.300916 285.60846 135.844667 284.460097 135.844667 
C 283.311733 135.844667 282.21025 136.300916 281.398234 137.112931 
C 280.586219 137.924947 280.12997 139.02643 280.12997 140.174794 
C 280.12997 141.323157 280.586219 142.42464 281.398234 143.236656 
C 282.21025 144.048671 283.311733 144.504921 284.460097 144.504921 
z
" style="fill:none;stroke:#ff0000;"/>
    <path clip-path="url(#pee82911a6e)" d="M 284.281603 129.118221 
C 285.429966 129.118221 286.53145 128.661972 287.343465 127.849956 
C 288.155481 127.037941 288.61173 125.936457 288.61173 124.788094 
C 288.61173 123.639731 288.155481 122.538247 287.343465 121.726232 
C 286.53145 120.914217 285.429966 120.457967 284.281603 120.457967 
C 283.13324 120.457967 282.031756 120.914217 281.219741 121.726232 
C 280.407726 122.538247 279.951476 123.639731 279.951476 124.788094 
C 279.951476 125.936457 280.407726 127.037941 281.219741 127.849956 
C 282.031756 128.661972 283.13324 129.118221 284.281603 129.118221 
z
" style="fill:none;stroke:#ff0000;"/>
    <path clip-path="url(#pee82911a6e)" d="M 283.98701 128.692446 
C 285.135373 128.692446 286.236857 128.236196 287.048872 127.424181 
C 287.860888 126.612166 288.317137 125.510682 288.317137 124.362319 
C 288.317137 123.213956 287.860888 122.112472 287.048872 121.300457 
C 286.236857 120.488441 285.135373 120.032192 283.98701 120.032192 
C 282.838647 120.032192 281.737163 120.488441 280.925148 121.300457 
C 280.113132 122.112472 279.656883 123.213956 279.656883 124.362319 
C 279.656883 125.510682 280.113132 126.612166 280.925148 127.424181 
C 281.737163 128.236196 282.838647 128.692446 283.98701 128.692446 
z
" style="fill:none;stroke:#ff0000;"/>
    <path clip-path="url(#pee82911a6e)" d="M 195.451046 162.26465 
C 196.599409 162.26465 197.700893 161.808401 198.512908 160.996385 
C 199.324923 160.18437 199.781173 159.082886 199.781173 157.934523 
C 199.781173 156.78616 199.324923 155.684676 198.512908 154.872661 
C 197.700893 154.060646 196.599409 153.604396 195.451046 153.604396 
C 194.302683 153.604396 193.201199 154.060646 192.389184 154.872661 
C 191.577168 155.684676 191.120919 156.78616 191.120919 157.934523 
C 191.120919 159.082886 191.577168 160.18437 192.389184 160.996385 
C 193.201199 161.808401 194.302683 162.26465 195.451046 162.26465 
z
" style="fill:none;stroke:#ff0000;"/>
    <path clip-path="url(#pee82911a6e)" d="M 281.047768 120.13774 
C 282.196131 120.13774 283.297615 119.681491 284.10963 118.869475 
C 284.921646 118.05746 285.377895 116.955976 285.377895 115.807613 
C 285.377895 114.65925 284.921646 113.557766 284.10963 112.745751 
C 283.297615 111.933735 282.196131 111.477486 281.047768 111.477486 
C 279.899405 111.477486 278.797921 111.933735 277.985906 112.745751 
C 277.173891 113.557766 276.717641 114.65925 276.717641 115.807613 
C 276.717641 116.955976 277.173891 118.05746 277.985906 118.869475 
C 278.797921 119.681491 279.899405 120.13774 281.047768 120.13774 
z
" style="fill:none;stroke:#ff0000;"/>
   </g>
  </g>
 </g>
 <defs>
  <clipPath id="pee82911a6e">
   <rect height="266.112" width="357.12" x="57.6" y="41.472"/>
  </clipPath>
 </defs>
</svg>
