<?xml version="1.0" encoding="utf-8" standalone="no"?>
<!DOCTYPE svg PUBLIC "-//W3C//DTD SVG 1.1//EN"
  "http://www.w3.org/Graphics/SVG/1.1/DTD/svg11.dtd">
<!-- Created with matplotlib (http://matplotlib.org/) -->
<svg height="345pt" version="1.1" viewBox="0 0 460 345" width="460pt" xmlns="http://www.w3.org/2000/svg" xmlns:xlink="http://www.w3.org/1999/xlink">
 <defs>
  <style type="text/css">
*{stroke-linecap:butt;stroke-linejoin:round;}
  </style>
 </defs>
 <g id="figure_1">
  <g id="patch_1">
   <path d="M 0 345.6 
L 460.8 345.6 
L 460.8 0 
L 0 0 
z
" style="fill:#ffffff;"/>
  </g>
  <g id="axes_1">
   <g id="PathCollection_1">
    <path clip-path="url(#p6aca526270)" d="M 262.900628 172.303714 
L 271.560882 172.303714 
L 271.560882 163.64346 
L 262.900628 163.64346 
z
" style="fill:#0000ff;stroke:#0000ff;"/>
    <path clip-path="url(#p6aca526270)" d="M 296.332814 210.418588 
L 304.993068 210.418588 
L 304.993068 201.758334 
L 296.332814 201.758334 
z
" style="fill:#0000ff;stroke:#0000ff;"/>
    <path clip-path="url(#p6aca526270)" d="M 280.824183 119.516836 
C 281.972546 119.516836 283.07403 119.060586 283.886045 118.248571 
C 284.698061 117.436556 285.15431 116.335072 285.15431 115.186709 
C 285.15431 114.038346 284.698061 112.936862 283.886045 112.124847 
C 283.07403 111.312831 281.972546 110.856582 280.824183 110.856582 
C 279.67582 110.856582 278.574336 111.312831 277.762321 112.124847 
C 276.950306 112.936862 276.494056 114.038346 276.494056 115.186709 
C 276.494056 116.335072 276.950306 117.436556 277.762321 118.248571 
C 278.574336 119.060586 279.67582 119.516836 280.824183 119.516836 
z
" style="fill:#ff0000;stroke:#ff0000;"/>
    <path clip-path="url(#p6aca526270)" d="M 336.222876 245.500314 
L 344.88313 245.500314 
L 344.88313 236.84006 
L 336.222876 236.84006 
z
" style="fill:#0000ff;stroke:#0000ff;"/>
    <path clip-path="url(#p6aca526270)" d="M 287.228538 238.754993 
L 295.888792 238.754993 
L 295.888792 230.094739 
L 287.228538 230.094739 
z
" style="fill:#0000ff;stroke:#0000ff;"/>
    <path clip-path="url(#p6aca526270)" d="M 305.126205 197.288684 
L 313.786459 197.288684 
L 313.786459 188.62843 
L 305.126205 188.62843 
z
" style="fill:#0000ff;stroke:#0000ff;"/>
    <path clip-path="url(#p6aca526270)" d="M 182.538578 152.598371 
L 191.198832 152.598371 
L 191.198832 143.938117 
L 182.538578 143.938117 
z
" style="fill:#0000ff;stroke:#0000ff;"/>
    <path clip-path="url(#p6aca526270)" d="M 214.624373 205.065869 
L 223.284627 205.065869 
L 223.284627 196.405615 
L 214.624373 196.405615 
z
" style="fill:#0000ff;stroke:#0000ff;"/>
    <path clip-path="url(#p6aca526270)" d="M 272.908589 95.980596 
C 274.056952 95.980596 275.158435 95.524346 275.970451 94.712331 
C 276.782466 93.900315 277.238716 92.798832 277.238716 91.650468 
C 277.238716 90.502105 276.782466 89.400622 275.970451 88.588606 
C 275.158435 87.776591 274.056952 87.320341 272.908589 87.320341 
C 271.760225 87.320341 270.658742 87.776591 269.846726 88.588606 
C 269.034711 89.400622 268.578462 90.502105 268.578462 91.650468 
C 268.578462 92.798832 269.034711 93.900315 269.846726 94.712331 
C 270.658742 95.524346 271.760225 95.980596 272.908589 95.980596 
z
" style="fill:#ff0000;stroke:#ff0000;"/>
    <path clip-path="url(#p6aca526270)" d="M 203.30539 202.273108 
L 211.965644 202.273108 
L 211.965644 193.612854 
L 203.30539 193.612854 
z
" style="fill:#0000ff;stroke:#0000ff;"/>
    <path clip-path="url(#p6aca526270)" d="M 351.706175 298.710882 
L 360.366429 298.710882 
L 360.366429 290.050627 
L 351.706175 290.050627 
z
" style="fill:#0000ff;stroke:#0000ff;"/>
    <path clip-path="url(#p6aca526270)" d="M 183.562956 235.460686 
L 192.22321 235.460686 
L 192.22321 226.800432 
L 183.562956 226.800432 
z
" style="fill:#0000ff;stroke:#0000ff;"/>
    <path clip-path="url(#p6aca526270)" d="M 145.818073 220.950332 
L 154.478327 220.950332 
L 154.478327 212.290078 
L 145.818073 212.290078 
z
" style="fill:#0000ff;stroke:#0000ff;"/>
    <path clip-path="url(#p6aca526270)" d="M 198.838046 142.94989 
L 207.4983 142.94989 
L 207.4983 134.289636 
L 198.838046 134.289636 
z
" style="fill:#0000ff;stroke:#0000ff;"/>
    <path clip-path="url(#p6aca526270)" d="M 250.166578 214.373271 
L 258.826832 214.373271 
L 258.826832 205.713017 
L 250.166578 205.713017 
z
" style="fill:#0000ff;stroke:#0000ff;"/>
    <path clip-path="url(#p6aca526270)" d="M 275.395992 106.947302 
C 276.544355 106.947302 277.645838 106.491052 278.457854 105.679037 
C 279.269869 104.867021 279.726119 103.765538 279.726119 102.617175 
C 279.726119 101.468811 279.269869 100.367328 278.457854 99.555312 
C 277.645838 98.743297 276.544355 98.287047 275.395992 98.287047 
C 274.247628 98.287047 273.146145 98.743297 272.334129 99.555312 
C 271.522114 100.367328 271.065865 101.468811 271.065865 102.617175 
C 271.065865 103.765538 271.522114 104.867021 272.334129 105.679037 
C 273.146145 106.491052 274.247628 106.947302 275.395992 106.947302 
z
" style="fill:#ff0000;stroke:#ff0000;"/>
    <path clip-path="url(#p6aca526270)" d="M 143.96147 177.890087 
L 152.621724 177.890087 
L 152.621724 169.229833 
L 143.96147 169.229833 
z
" style="fill:#0000ff;stroke:#0000ff;"/>
    <path clip-path="url(#p6aca526270)" d="M 77.151948 141.353752 
L 85.812202 141.353752 
L 85.812202 132.693498 
L 77.151948 132.693498 
z
" style="fill:#0000ff;stroke:#0000ff;"/>
    <path clip-path="url(#p6aca526270)" d="M 193.472185 90.318959 
C 194.620548 90.318959 195.722031 89.862709 196.534047 89.050694 
C 197.346062 88.238679 197.802312 87.137195 197.802312 85.988832 
C 197.802312 84.840469 197.346062 83.738985 196.534047 82.92697 
C 195.722031 82.114954 194.620548 81.658705 193.472185 81.658705 
C 192.323822 81.658705 191.222338 82.114954 190.410322 82.92697 
C 189.598307 83.738985 189.142058 84.840469 189.142058 85.988832 
C 189.142058 87.137195 189.598307 88.238679 190.410322 89.050694 
C 191.222338 89.862709 192.323822 90.318959 193.472185 90.318959 
z
" style="fill:#ff0000;stroke:#ff0000;"/>
    <path clip-path="url(#p6aca526270)" d="M 315.279593 222.346043 
L 323.939847 222.346043 
L 323.939847 213.685789 
L 315.279593 213.685789 
z
" style="fill:#0000ff;stroke:#0000ff;"/>
    <path clip-path="url(#p6aca526270)" d="M 236.591698 189.496325 
L 245.251953 189.496325 
L 245.251953 180.836071 
L 236.591698 180.836071 
z
" style="fill:#0000ff;stroke:#0000ff;"/>
    <path clip-path="url(#p6aca526270)" d="M 159.344223 200.130316 
L 168.004477 200.130316 
L 168.004477 191.470062 
L 159.344223 191.470062 
z
" style="fill:#0000ff;stroke:#0000ff;"/>
    <path clip-path="url(#p6aca526270)" d="M 199.041141 235.688794 
L 207.701395 235.688794 
L 207.701395 227.02854 
L 199.041141 227.02854 
z
" style="fill:#0000ff;stroke:#0000ff;"/>
    <path clip-path="url(#p6aca526270)" d="M 116.048822 190.113873 
L 124.709076 190.113873 
L 124.709076 181.453619 
L 116.048822 181.453619 
z
" style="fill:#0000ff;stroke:#0000ff;"/>
    <path clip-path="url(#p6aca526270)" d="M 249.29074 231.757772 
L 257.950994 231.757772 
L 257.950994 223.097518 
L 249.29074 223.097518 
z
" style="fill:#0000ff;stroke:#0000ff;"/>
    <path clip-path="url(#p6aca526270)" d="M 147.421797 220.430222 
L 156.082051 220.430222 
L 156.082051 211.769968 
L 147.421797 211.769968 
z
" style="fill:#0000ff;stroke:#0000ff;"/>
    <path clip-path="url(#p6aca526270)" d="M 194.944019 189.671351 
L 203.604273 189.671351 
L 203.604273 181.011097 
L 194.944019 181.011097 
z
" style="fill:#0000ff;stroke:#0000ff;"/>
    <path clip-path="url(#p6aca526270)" d="M 285.540296 229.893984 
C 286.688659 229.893984 287.790143 229.437735 288.602158 228.625719 
C 289.414174 227.813704 289.870423 226.71222 289.870423 225.563857 
C 289.870423 224.415494 289.414174 223.31401 288.602158 222.501995 
C 287.790143 221.68998 286.688659 221.23373 285.540296 221.23373 
C 284.391933 221.23373 283.290449 221.68998 282.478434 222.501995 
C 281.666419 223.31401 281.210169 224.415494 281.210169 225.563857 
C 281.210169 226.71222 281.666419 227.813704 282.478434 228.625719 
C 283.290449 229.437735 284.391933 229.893984 285.540296 229.893984 
z
" style="fill:#ff0000;stroke:#ff0000;"/>
    <path clip-path="url(#p6aca526270)" d="M 225.924564 161.704207 
L 234.584818 161.704207 
L 234.584818 153.043953 
L 225.924564 153.043953 
z
" style="fill:#0000ff;stroke:#0000ff;"/>
    <path clip-path="url(#p6aca526270)" d="M 255.078895 198.25409 
L 263.739149 198.25409 
L 263.739149 189.593836 
L 255.078895 189.593836 
z
" style="fill:#0000ff;stroke:#0000ff;"/>
    <path clip-path="url(#p6aca526270)" d="M 199.75566 265.975827 
L 208.415914 265.975827 
L 208.415914 257.315573 
L 199.75566 257.315573 
z
" style="fill:#0000ff;stroke:#0000ff;"/>
    <path clip-path="url(#p6aca526270)" d="M 157.020689 220.186847 
L 165.680943 220.186847 
L 165.680943 211.526593 
L 157.020689 211.526593 
z
" style="fill:#0000ff;stroke:#0000ff;"/>
    <path clip-path="url(#p6aca526270)" d="M 136.990925 219.899786 
L 145.651179 219.899786 
L 145.651179 211.239532 
L 136.990925 211.239532 
z
" style="fill:#0000ff;stroke:#0000ff;"/>
    <path clip-path="url(#p6aca526270)" d="M 266.733851 201.681819 
L 275.394105 201.681819 
L 275.394105 193.021565 
L 266.733851 193.021565 
z
" style="fill:#0000ff;stroke:#0000ff;"/>
    <path clip-path="url(#p6aca526270)" d="M 177.955086 238.960181 
L 186.61534 238.960181 
L 186.61534 230.299927 
L 177.955086 230.299927 
z
" style="fill:#0000ff;stroke:#0000ff;"/>
    <path clip-path="url(#p6aca526270)" d="M 187.191632 208.673716 
L 195.851886 208.673716 
L 195.851886 200.013462 
L 187.191632 200.013462 
z
" style="fill:#0000ff;stroke:#0000ff;"/>
    <path clip-path="url(#p6aca526270)" d="M 277.738126 229.132946 
L 286.39838 229.132946 
L 286.39838 220.472692 
L 277.738126 220.472692 
z
" style="fill:#0000ff;stroke:#0000ff;"/>
    <path clip-path="url(#p6aca526270)" d="M 393.548492 289.294487 
L 402.208746 289.294487 
L 402.208746 280.634233 
L 393.548492 280.634233 
z
" style="fill:#0000ff;stroke:#0000ff;"/>
    <path clip-path="url(#p6aca526270)" d="M 140.55595 233.0553 
L 149.216205 233.0553 
L 149.216205 224.395046 
L 140.55595 224.395046 
z
" style="fill:#0000ff;stroke:#0000ff;"/>
    <path clip-path="url(#p6aca526270)" d="M 268.974777 216.796475 
L 277.635031 216.796475 
L 277.635031 208.136221 
L 268.974777 208.136221 
z
" style="fill:#0000ff;stroke:#0000ff;"/>
    <path clip-path="url(#p6aca526270)" d="M 280.658406 116.467599 
C 281.806769 116.467599 282.908253 116.011349 283.720268 115.199334 
C 284.532284 114.387318 284.988533 113.285835 284.988533 112.137472 
C 284.988533 110.989108 284.532284 109.887625 283.720268 109.075609 
C 282.908253 108.263594 281.806769 107.807344 280.658406 107.807344 
C 279.510043 107.807344 278.408559 108.263594 277.596544 109.075609 
C 276.784529 109.887625 276.328279 110.989108 276.328279 112.137472 
C 276.328279 113.285835 276.784529 114.387318 277.596544 115.199334 
C 278.408559 116.011349 279.510043 116.467599 280.658406 116.467599 
z
" style="fill:#ff0000;stroke:#ff0000;"/>
    <path clip-path="url(#p6aca526270)" d="M 352.745201 238.349844 
L 361.405455 238.349844 
L 361.405455 229.68959 
L 352.745201 229.68959 
z
" style="fill:#0000ff;stroke:#0000ff;"/>
    <path clip-path="url(#p6aca526270)" d="M 281.124922 121.234453 
C 282.273285 121.234453 283.374769 120.778203 284.186784 119.966188 
C 284.998799 119.154172 285.455049 118.052689 285.455049 116.904326 
C 285.455049 115.755962 284.998799 114.654479 284.186784 113.842463 
C 283.374769 113.030448 282.273285 112.574198 281.124922 112.574198 
C 279.976559 112.574198 278.875075 113.030448 278.06306 113.842463 
C 277.251044 114.654479 276.794795 115.755962 276.794795 116.904326 
C 276.794795 118.052689 277.251044 119.154172 278.06306 119.966188 
C 278.875075 120.778203 279.976559 121.234453 281.124922 121.234453 
z
" style="fill:#ff0000;stroke:#ff0000;"/>
    <path clip-path="url(#p6aca526270)" d="M 215.05813 219.203604 
L 223.718384 219.203604 
L 223.718384 210.54335 
L 215.05813 210.54335 
z
" style="fill:#0000ff;stroke:#0000ff;"/>
    <path clip-path="url(#p6aca526270)" d="M 120.796026 221.379958 
L 129.45628 221.379958 
L 129.45628 212.719704 
L 120.796026 212.719704 
z
" style="fill:#0000ff;stroke:#0000ff;"/>
    <path clip-path="url(#p6aca526270)" d="M 316.417244 217.785646 
L 325.077498 217.785646 
L 325.077498 209.125392 
L 316.417244 209.125392 
z
" style="fill:#0000ff;stroke:#0000ff;"/>
    <path clip-path="url(#p6aca526270)" d="M 230.597982 106.843616 
C 231.746345 106.843616 232.847828 106.387367 233.659844 105.575352 
C 234.471859 104.763336 234.928109 103.661853 234.928109 102.513489 
C 234.928109 101.365126 234.471859 100.263643 233.659844 99.451627 
C 232.847828 98.639612 231.746345 98.183362 230.597982 98.183362 
C 229.449618 98.183362 228.348135 98.639612 227.536119 99.451627 
C 226.724104 100.263643 226.267855 101.365126 226.267855 102.513489 
C 226.267855 103.661853 226.724104 104.763336 227.536119 105.575352 
C 228.348135 106.387367 229.449618 106.843616 230.597982 106.843616 
z
" style="fill:#ff0000;stroke:#ff0000;"/>
    <path clip-path="url(#p6aca526270)" d="M 242.834514 235.088293 
L 251.494768 235.088293 
L 251.494768 226.428039 
L 242.834514 226.428039 
z
" style="fill:#0000ff;stroke:#0000ff;"/>
    <path clip-path="url(#p6aca526270)" d="M 326.892595 224.223445 
L 335.552849 224.223445 
L 335.552849 215.563191 
L 326.892595 215.563191 
z
" style="fill:#0000ff;stroke:#0000ff;"/>
    <path clip-path="url(#p6aca526270)" d="M 275.50033 176.111891 
L 284.160584 176.111891 
L 284.160584 167.451637 
L 275.50033 167.451637 
z
" style="fill:#0000ff;stroke:#0000ff;"/>
    <path clip-path="url(#p6aca526270)" d="M 322.333819 247.039194 
L 330.994073 247.039194 
L 330.994073 238.37894 
L 322.333819 238.37894 
z
" style="fill:#0000ff;stroke:#0000ff;"/>
    <path clip-path="url(#p6aca526270)" d="M 270.872307 236.699124 
L 279.532561 236.699124 
L 279.532561 228.03887 
L 270.872307 228.03887 
z
" style="fill:#0000ff;stroke:#0000ff;"/>
    <path clip-path="url(#p6aca526270)" d="M 271.251475 250.666457 
L 279.911729 250.666457 
L 279.911729 242.006203 
L 271.251475 242.006203 
z
" style="fill:#0000ff;stroke:#0000ff;"/>
    <path clip-path="url(#p6aca526270)" d="M 324.362369 279.835014 
L 333.022623 279.835014 
L 333.022623 271.17476 
L 324.362369 271.17476 
z
" style="fill:#0000ff;stroke:#0000ff;"/>
    <path clip-path="url(#p6aca526270)" d="M 356.955299 230.660089 
L 365.615553 230.660089 
L 365.615553 221.999835 
L 356.955299 221.999835 
z
" style="fill:#0000ff;stroke:#0000ff;"/>
    <path clip-path="url(#p6aca526270)" d="M 230.180315 205.206571 
L 238.840569 205.206571 
L 238.840569 196.546317 
L 230.180315 196.546317 
z
" style="fill:#0000ff;stroke:#0000ff;"/>
    <path clip-path="url(#p6aca526270)" d="M 261.65946 210.789277 
L 270.319714 210.789277 
L 270.319714 202.129023 
L 261.65946 202.129023 
z
" style="fill:#0000ff;stroke:#0000ff;"/>
    <path clip-path="url(#p6aca526270)" d="M 276.381313 109.526132 
C 277.529676 109.526132 278.631159 109.069883 279.443175 108.257868 
C 280.25519 107.445852 280.71144 106.344369 280.71144 105.196005 
C 280.71144 104.047642 280.25519 102.946159 279.443175 102.134143 
C 278.631159 101.322128 277.529676 100.865878 276.381313 100.865878 
C 275.23295 100.865878 274.131466 101.322128 273.31945 102.134143 
C 272.507435 102.946159 272.051186 104.047642 272.051186 105.196005 
C 272.051186 106.344369 272.507435 107.445852 273.31945 108.257868 
C 274.131466 109.069883 275.23295 109.526132 276.381313 109.526132 
z
" style="fill:#ff0000;stroke:#ff0000;"/>
    <path clip-path="url(#p6aca526270)" d="M 283.092898 130.124761 
C 284.241262 130.124761 285.342745 129.668511 286.154761 128.856496 
C 286.966776 128.044481 287.423025 126.942997 287.423025 125.794634 
C 287.423025 124.646271 286.966776 123.544787 286.154761 122.732772 
C 285.342745 121.920756 284.241262 121.464507 283.092898 121.464507 
C 281.944535 121.464507 280.843052 121.920756 280.031036 122.732772 
C 279.219021 123.544787 278.762771 124.646271 278.762771 125.794634 
C 278.762771 126.942997 279.219021 128.044481 280.031036 128.856496 
C 280.843052 129.668511 281.944535 130.124761 283.092898 130.124761 
z
" style="fill:#ff0000;stroke:#ff0000;"/>
    <path clip-path="url(#p6aca526270)" d="M 278.18563 114.738188 
C 279.333994 114.738188 280.435477 114.281939 281.247493 113.469923 
C 282.059508 112.657908 282.515757 111.556424 282.515757 110.408061 
C 282.515757 109.259698 282.059508 108.158214 281.247493 107.346199 
C 280.435477 106.534184 279.333994 106.077934 278.18563 106.077934 
C 277.037267 106.077934 275.935784 106.534184 275.123768 107.346199 
C 274.311753 108.158214 273.855503 109.259698 273.855503 110.408061 
C 273.855503 111.556424 274.311753 112.657908 275.123768 113.469923 
C 275.935784 114.281939 277.037267 114.738188 278.18563 114.738188 
z
" style="fill:#ff0000;stroke:#ff0000;"/>
    <path clip-path="url(#p6aca526270)" d="M 193.429508 212.79269 
L 202.089762 212.79269 
L 202.089762 204.132436 
L 193.429508 204.132436 
z
" style="fill:#0000ff;stroke:#0000ff;"/>
    <path clip-path="url(#p6aca526270)" d="M 187.056495 195.138218 
L 195.716749 195.138218 
L 195.716749 186.477964 
L 187.056495 186.477964 
z
" style="fill:#0000ff;stroke:#0000ff;"/>
    <path clip-path="url(#p6aca526270)" d="M 167.380977 172.805485 
L 176.041231 172.805485 
L 176.041231 164.145231 
L 167.380977 164.145231 
z
" style="fill:#0000ff;stroke:#0000ff;"/>
    <path clip-path="url(#p6aca526270)" d="M 130.135416 181.184177 
L 138.79567 181.184177 
L 138.79567 172.523922 
L 130.135416 172.523922 
z
" style="fill:#0000ff;stroke:#0000ff;"/>
    <path clip-path="url(#p6aca526270)" d="M 175.559596 66.840882 
C 176.707959 66.840882 177.809443 66.384633 178.621458 65.572618 
C 179.433473 64.760602 179.889723 63.659119 179.889723 62.510755 
C 179.889723 61.362392 179.433473 60.260909 178.621458 59.448893 
C 177.809443 58.636878 176.707959 58.180628 175.559596 58.180628 
C 174.411233 58.180628 173.309749 58.636878 172.497734 59.448893 
C 171.685718 60.260909 171.229469 61.362392 171.229469 62.510755 
C 171.229469 63.659119 171.685718 64.760602 172.497734 65.572618 
C 173.309749 66.384633 174.411233 66.840882 175.559596 66.840882 
z
" style="fill:#ff0000;stroke:#ff0000;"/>
    <path clip-path="url(#p6aca526270)" d="M 294.880973 281.92845 
L 303.541227 281.92845 
L 303.541227 273.268196 
L 294.880973 273.268196 
z
" style="fill:#0000ff;stroke:#0000ff;"/>
    <path clip-path="url(#p6aca526270)" d="M 247.420275 237.215632 
L 256.080529 237.215632 
L 256.080529 228.555378 
L 247.420275 228.555378 
z
" style="fill:#0000ff;stroke:#0000ff;"/>
    <path clip-path="url(#p6aca526270)" d="M 157.064996 209.908886 
L 165.72525 209.908886 
L 165.72525 201.248631 
L 157.064996 201.248631 
z
" style="fill:#0000ff;stroke:#0000ff;"/>
    <path clip-path="url(#p6aca526270)" d="M 167.732759 188.673428 
L 176.393013 188.673428 
L 176.393013 180.013174 
L 167.732759 180.013174 
z
" style="fill:#0000ff;stroke:#0000ff;"/>
    <path clip-path="url(#p6aca526270)" d="M 329.602135 183.415537 
L 338.262389 183.415537 
L 338.262389 174.755283 
L 329.602135 174.755283 
z
" style="fill:#0000ff;stroke:#0000ff;"/>
    <path clip-path="url(#p6aca526270)" d="M 317.553066 218.404596 
L 326.21332 218.404596 
L 326.21332 209.744342 
L 317.553066 209.744342 
z
" style="fill:#0000ff;stroke:#0000ff;"/>
    <path clip-path="url(#p6aca526270)" d="M 223.372772 116.329515 
C 224.521135 116.329515 225.622618 115.873266 226.434634 115.06125 
C 227.246649 114.249235 227.702899 113.147751 227.702899 111.999388 
C 227.702899 110.851025 227.246649 109.749541 226.434634 108.937526 
C 225.622618 108.125511 224.521135 107.669261 223.372772 107.669261 
C 222.224409 107.669261 221.122925 108.125511 220.310909 108.937526 
C 219.498894 109.749541 219.042645 110.851025 219.042645 111.999388 
C 219.042645 113.147751 219.498894 114.249235 220.310909 115.06125 
C 221.122925 115.873266 222.224409 116.329515 223.372772 116.329515 
z
" style="fill:#ff0000;stroke:#ff0000;"/>
    <path clip-path="url(#p6aca526270)" d="M 194.88624 211.52793 
L 203.546494 211.52793 
L 203.546494 202.867676 
L 194.88624 202.867676 
z
" style="fill:#0000ff;stroke:#0000ff;"/>
    <path clip-path="url(#p6aca526270)" d="M 333.580508 276.012519 
L 342.240762 276.012519 
L 342.240762 267.352265 
L 333.580508 267.352265 
z
" style="fill:#0000ff;stroke:#0000ff;"/>
    <path clip-path="url(#p6aca526270)" d="M 270.47428 246.359558 
L 279.134534 246.359558 
L 279.134534 237.699304 
L 270.47428 237.699304 
z
" style="fill:#0000ff;stroke:#0000ff;"/>
    <path clip-path="url(#p6aca526270)" d="M 257.525221 237.523175 
L 266.185475 237.523175 
L 266.185475 228.862921 
L 257.525221 228.862921 
z
" style="fill:#0000ff;stroke:#0000ff;"/>
    <path clip-path="url(#p6aca526270)" d="M 263.464257 211.552163 
L 272.124511 211.552163 
L 272.124511 202.891909 
L 263.464257 202.891909 
z
" style="fill:#0000ff;stroke:#0000ff;"/>
    <path clip-path="url(#p6aca526270)" d="M 288.372589 96.700681 
C 289.520952 96.700681 290.622436 96.244431 291.434451 95.432416 
C 292.246467 94.6204 292.702716 93.518917 292.702716 92.370554 
C 292.702716 91.22219 292.246467 90.120707 291.434451 89.308691 
C 290.622436 88.496676 289.520952 88.040427 288.372589 88.040427 
C 287.224226 88.040427 286.122742 88.496676 285.310727 89.308691 
C 284.498712 90.120707 284.042462 91.22219 284.042462 92.370554 
C 284.042462 93.518917 284.498712 94.6204 285.310727 95.432416 
C 286.122742 96.244431 287.224226 96.700681 288.372589 96.700681 
z
" style="fill:#ff0000;stroke:#ff0000;"/>
    <path clip-path="url(#p6aca526270)" d="M 196.659669 133.863096 
C 197.808032 133.863096 198.909516 133.406846 199.721532 132.594831 
C 200.533547 131.782816 200.989796 130.681332 200.989796 129.532969 
C 200.989796 128.384606 200.533547 127.283122 199.721532 126.471107 
C 198.909516 125.659091 197.808032 125.202842 196.659669 125.202842 
C 195.511306 125.202842 194.409823 125.659091 193.597807 126.471107 
C 192.785792 127.283122 192.329542 128.384606 192.329542 129.532969 
C 192.329542 130.681332 192.785792 131.782816 193.597807 132.594831 
C 194.409823 133.406846 195.511306 133.863096 196.659669 133.863096 
z
" style="fill:#ff0000;stroke:#ff0000;"/>
    <path clip-path="url(#p6aca526270)" d="M 286.277933 134.662103 
C 287.426296 134.662103 288.527779 134.205853 289.339795 133.393838 
C 290.15181 132.581823 290.60806 131.480339 290.60806 130.331976 
C 290.60806 129.183613 290.15181 128.082129 289.339795 127.270114 
C 288.527779 126.458098 287.426296 126.001849 286.277933 126.001849 
C 285.129569 126.001849 284.028086 126.458098 283.21607 127.270114 
C 282.404055 128.082129 281.947806 129.183613 281.947806 130.331976 
C 281.947806 131.480339 282.404055 132.581823 283.21607 133.393838 
C 284.028086 134.205853 285.129569 134.662103 286.277933 134.662103 
z
" style="fill:#ff0000;stroke:#ff0000;"/>
    <path clip-path="url(#p6aca526270)" d="M 196.235493 190.784869 
C 197.383856 190.784869 198.485339 190.32862 199.297355 189.516604 
C 200.10937 188.704589 200.56562 187.603105 200.56562 186.454742 
C 200.56562 185.306379 200.10937 184.204895 199.297355 183.39288 
C 198.485339 182.580865 197.383856 182.124615 196.235493 182.124615 
C 195.087129 182.124615 193.985646 182.580865 193.17363 183.39288 
C 192.361615 184.204895 191.905366 185.306379 191.905366 186.454742 
C 191.905366 187.603105 192.361615 188.704589 193.17363 189.516604 
C 193.985646 190.32862 195.087129 190.784869 196.235493 190.784869 
z
" style="fill:#ff0000;stroke:#ff0000;"/>
    <path clip-path="url(#p6aca526270)" d="M 190.761797 223.925768 
L 199.422051 223.925768 
L 199.422051 215.265514 
L 190.761797 215.265514 
z
" style="fill:#0000ff;stroke:#0000ff;"/>
    <path clip-path="url(#p6aca526270)" d="M 106.569246 171.217421 
L 115.2295 171.217421 
L 115.2295 162.557167 
L 106.569246 162.557167 
z
" style="fill:#0000ff;stroke:#0000ff;"/>
    <path clip-path="url(#p6aca526270)" d="M 325.707021 278.647462 
L 334.367275 278.647462 
L 334.367275 269.987208 
L 325.707021 269.987208 
z
" style="fill:#0000ff;stroke:#0000ff;"/>
    <path clip-path="url(#p6aca526270)" d="M 151.386592 220.019164 
L 160.046846 220.019164 
L 160.046846 211.35891 
L 151.386592 211.35891 
z
" style="fill:#0000ff;stroke:#0000ff;"/>
    <path clip-path="url(#p6aca526270)" d="M 311.465261 217.081438 
L 320.125515 217.081438 
L 320.125515 208.421184 
L 311.465261 208.421184 
z
" style="fill:#0000ff;stroke:#0000ff;"/>
    <path clip-path="url(#p6aca526270)" d="M 236.721157 195.38711 
L 245.381411 195.38711 
L 245.381411 186.726856 
L 236.721157 186.726856 
z
" style="fill:#0000ff;stroke:#0000ff;"/>
    <path clip-path="url(#p6aca526270)" d="M 247.555485 207.647925 
L 256.215739 207.647925 
L 256.215739 198.987671 
L 247.555485 198.987671 
z
" style="fill:#0000ff;stroke:#0000ff;"/>
    <path clip-path="url(#p6aca526270)" d="M 284.304349 132.193188 
C 285.452712 132.193188 286.554196 131.736938 287.366211 130.924923 
C 288.178227 130.112908 288.634476 129.011424 288.634476 127.863061 
C 288.634476 126.714698 288.178227 125.613214 287.366211 124.801199 
C 286.554196 123.989183 285.452712 123.532934 284.304349 123.532934 
C 283.155986 123.532934 282.054502 123.989183 281.242487 124.801199 
C 280.430472 125.613214 279.974222 126.714698 279.974222 127.863061 
C 279.974222 129.011424 280.430472 130.112908 281.242487 130.924923 
C 282.054502 131.736938 283.155986 132.193188 284.304349 132.193188 
z
" style="fill:#ff0000;stroke:#ff0000;"/>
    <path clip-path="url(#p6aca526270)" d="M 227.450368 155.78676 
C 228.598731 155.78676 229.700215 155.33051 230.51223 154.518495 
C 231.324245 153.70648 231.780495 152.604996 231.780495 151.456633 
C 231.780495 150.30827 231.324245 149.206786 230.51223 148.394771 
C 229.700215 147.582755 228.598731 147.126506 227.450368 147.126506 
C 226.302005 147.126506 225.200521 147.582755 224.388506 148.394771 
C 223.57649 149.206786 223.120241 150.30827 223.120241 151.456633 
C 223.120241 152.604996 223.57649 153.70648 224.388506 154.518495 
C 225.200521 155.33051 226.302005 155.78676 227.450368 155.78676 
z
" style="fill:#ff0000;stroke:#ff0000;"/>
    <path clip-path="url(#p6aca526270)" d="M 99.318198 141.168822 
L 107.978452 141.168822 
L 107.978452 132.508568 
L 99.318198 132.508568 
z
" style="fill:#0000ff;stroke:#0000ff;"/>
    <path clip-path="url(#p6aca526270)" d="M 272.555834 218.483291 
L 281.216088 218.483291 
L 281.216088 209.823037 
L 272.555834 209.823037 
z
" style="fill:#0000ff;stroke:#0000ff;"/>
    <path clip-path="url(#p6aca526270)" d="M 141.728538 59.005373 
C 142.876901 59.005373 143.978385 58.549123 144.7904 57.737108 
C 145.602415 56.925092 146.058665 55.823609 146.058665 54.675245 
C 146.058665 53.526882 145.602415 52.425399 144.7904 51.613383 
C 143.978385 50.801368 142.876901 50.345118 141.728538 50.345118 
C 140.580175 50.345118 139.478691 50.801368 138.666676 51.613383 
C 137.85466 52.425399 137.398411 53.526882 137.398411 54.675245 
C 137.398411 55.823609 137.85466 56.925092 138.666676 57.737108 
C 139.478691 58.549123 140.580175 59.005373 141.728538 59.005373 
z
" style="fill:#ff0000;stroke:#ff0000;"/>
    <path clip-path="url(#p6aca526270)" d="M 245.516385 247.712495 
L 254.176639 247.712495 
L 254.176639 239.052241 
L 245.516385 239.052241 
z
" style="fill:#0000ff;stroke:#0000ff;"/>
    <path clip-path="url(#p6aca526270)" d="M 70.111254 139.643652 
L 78.771508 139.643652 
L 78.771508 130.983398 
L 70.111254 130.983398 
z
" style="fill:#0000ff;stroke:#0000ff;"/>
    <path clip-path="url(#p6aca526270)" d="M 295.765445 206.104157 
L 304.425699 206.104157 
L 304.425699 197.443903 
L 295.765445 197.443903 
z
" style="fill:#0000ff;stroke:#0000ff;"/>
    <path clip-path="url(#p6aca526270)" d="M 146.259256 194.556843 
L 154.91951 194.556843 
L 154.91951 185.896589 
L 146.259256 185.896589 
z
" style="fill:#0000ff;stroke:#0000ff;"/>
    <path clip-path="url(#p6aca526270)" d="M 165.612613 188.476913 
L 174.272867 188.476913 
L 174.272867 179.816659 
L 165.612613 179.816659 
z
" style="fill:#0000ff;stroke:#0000ff;"/>
    <path clip-path="url(#p6aca526270)" d="M 176.095584 221.253057 
L 184.755838 221.253057 
L 184.755838 212.592803 
L 176.095584 212.592803 
z
" style="fill:#0000ff;stroke:#0000ff;"/>
    <path clip-path="url(#p6aca526270)" d="M 331.230461 231.614995 
L 339.890715 231.614995 
L 339.890715 222.95474 
L 331.230461 222.95474 
z
" style="fill:#0000ff;stroke:#0000ff;"/>
   </g>
  </g>
 </g>
 <defs>
  <clipPath id="p6aca526270">
   <rect height="266.112" width="357.12" x="57.6" y="41.472"/>
  </clipPath>
 </defs>
</svg>
